<svg xmlns="http://www.w3.org/2000/svg" viewBox="0 0 707 707">
  <title>Logo_srmilton</title>
  <g id="Capa_1" data-name="Capa 1">
    <g>
      <g>
        <path d="M387.1,275.9a10.2,10.2,0,0,0-1.8-5.7c-1.1-1.5-2.9-2.2-5.4-2.3h-4.1v17.8h5.1C385.2,285.8,387.3,282.5,387.1,275.9Z" style="fill: #008ab3"/>
        <path d="M484.7,365.1c-3-22.9-26.7-22.5-54.5-16.7,1.3-17.2,3.7-44.4,6-56.2,3.9-20.2,14.8-80.7,14.8-80.7h-.4c0-10.6-39.9-19.2-89-19.2s-89,8.6-89,19.2a3.2,3.2,0,0,0,.3,1.4s11,59.5,14.9,79.3c2.3,11.8,4.7,39,6,56.2-27.8-5.8-51.5-6.2-54.5,16.7-2.2,17.1,12.5,43.3,122.7,43.3S486.9,382.2,484.7,365.1Zm-129.5-90a7.1,7.1,0,0,1,.6-2.6,10.9,10.9,0,0,1,4.7-4.8c2-1.1,4.9-1.7,8.7-1.7h14.2a11.9,11.9,0,0,1,7.7,2.6c2.2,1.8,3.3,4.4,3.3,7.9a13.3,13.3,0,0,1-1.7,6.7,10.7,10.7,0,0,1-4.8,4.4l9.8,15.5c5.8,8.7,10.8,13.4,15,14.2-4.1.3-7,.4-8.7,0-3.7-.7-7.3-3.1-10.8-7.4a52.3,52.3,0,0,1-4-5.8q-1.8-3-5.7-9l-4.2-6.5h-3.5v10a3.9,3.9,0,0,0,1.6,3.2,5.3,5.3,0,0,0,2.8,1.4v1.7H363.6v-1.7a5.3,5.3,0,0,0,2.8-1.4,4.2,4.2,0,0,0,1.6-3.2V268.8a3.4,3.4,0,0,0-.3-.8.6.6,0,0,0-.7-.2,5.9,5.9,0,0,0-4,2.2,7.3,7.3,0,0,0-1.4,4.2,11.6,11.6,0,0,0,.7,4.2,4,4,0,0,0,2,2.6,8.8,8.8,0,0,1-4.4.5,4.9,4.9,0,0,1-2.8-1.3,4.6,4.6,0,0,1-1.6-2.3A6.7,6.7,0,0,1,355.2,275.1Zm-42,23.6.9-15.6a16.3,16.3,0,0,0,1.1,2.7,26.3,26.3,0,0,0,1.5,3.2c.2.5.8,1.6,1.6,3.1a17.5,17.5,0,0,0,2.3,3.4l2.7,2.8a10.6,10.6,0,0,0,3.4,2.5c1.1.5,2.5.9,4,1.4a20.7,20.7,0,0,0,5,.5,9.2,9.2,0,0,0,7.6-4.4,10.3,10.3,0,0,0,1.3-9q-.7-2.7-4.8-5.1a101.2,101.2,0,0,0-10-5.1,62.9,62.9,0,0,1-8.9-4.6,19.1,19.1,0,0,1-6.3-6.7,11.5,11.5,0,0,1-1.7-7.5,13.9,13.9,0,0,1,2.8-6.9c1.5-2.2,4-3.9,7.4-5.2a32.8,32.8,0,0,1,11.8-2c9.2,0,15.8,2,20,6l-.7,12.2-2.5-3.8-3.9-4.8a21.2,21.2,0,0,0-6-4.7,14.9,14.9,0,0,0-7-1.8,8.9,8.9,0,0,0-6.1,2.5,7.7,7.7,0,0,0-2.8,5.8,9.1,9.1,0,0,0,3.3,6.9,23.4,23.4,0,0,0,7.6,4.6c2.8,1.1,6,2.5,9.5,4.1a34.7,34.7,0,0,1,8.1,5,12.7,12.7,0,0,1,4,6.6,14.2,14.2,0,0,1,0,7.1,18.8,18.8,0,0,1-2.8,6.1c-3.8,5.3-10.5,7.9-20.2,7.9a44.8,44.8,0,0,1-13.5-1.9A19.3,19.3,0,0,1,313.2,298.7Zm113.7,83.5s-27.4,3.1-38.6,2.3c-13.2-.9-25.2-7.6-37.5-12.4-7.4-2.8-25.7-12.4-25.7-12.4l103.1-3.3Z" style="fill: #008ab3"/>
      </g>
      <g id="Milton">
        <path d="M238.9,408.3h14.9l13.4,63.9,12.9-50.5h14.6v2.7c-1,0-2.1.6-3.4,2a7.3,7.3,0,0,0-1.8,5v49.8a7.1,7.1,0,0,0,1.8,5c1.3,1.4,2.4,2.1,3.4,2.1v2.6H274.9v-2.6c1,0,2.1-.7,3.4-2.1a7.1,7.1,0,0,0,1.8-5V444c-1.6,5.2-4.1,13-7.3,23.4s-5.7,18.3-7.3,23.5h-2.4l-7.6-23.6c-3.3-10.5-5.9-38.9-7.6-44.1v58a7.2,7.2,0,0,0,1.9,5c1.2,1.4,2.4,2.1,3.4,2.1v2.6H238.9v-2.6q1.5,0,3.3-2.1a6.8,6.8,0,0,0,1.9-5V419.7a6.9,6.9,0,0,0-1.9-5c-1.2-1.3-2.3-2-3.3-2Z" style="fill: #008ab3"/>
        <path d="M299.6,428.9h19.8v2.7c-1,0-2.2.7-3.4,2.1a7.7,7.7,0,0,0-1.9,5.2V481a7.6,7.6,0,0,0,1.9,5.1c1.2,1.4,2.4,2.1,3.4,2.1v2.7H299.6v-2.7q1.5,0,3.3-2.1a7.2,7.2,0,0,0,1.9-5.1V438.9a7.3,7.3,0,0,0-1.9-5.2q-1.8-2.1-3.3-2.1Z" style="fill: #008ab3"/>
        <path d="M322.6,428.9h19.7v2.7q-1.5,0-3.3,2.1a7.3,7.3,0,0,0-1.9,5.2v48.8h11.5a8.6,8.6,0,0,0,3.6-.8,7.6,7.6,0,0,0,3-2.4l2.1-2.7a17.9,17.9,0,0,0,1.7-3.2c.7-1.4,1.1-2.1,1.1-2.2l-.5,14.5h-37v-2.7q1.5,0,3.3-2.1a7.2,7.2,0,0,0,1.9-5.1V438.9a7.3,7.3,0,0,0-1.9-5.2q-1.8-2.1-3.3-2.1Z" style="fill: #008ab3"/>
        <path d="M352,428.9h41.8l1,14.5c-1-2-3-4.2-5.9-6.6s-8.2-3.6-11.3-3.6V481a7.2,7.2,0,0,0,1.9,5.1c1.2,1.4,2.4,2.1,3.4,2.1v2.7H363.1v-2.7c1,0,2.2-.7,3.4-2.1a7.2,7.2,0,0,0,1.9-5.1V433.3H366a14.4,14.4,0,0,0-9,3.5c-2.9,2.3-4.9,4.4-5.9,6.4Z" style="fill: #008ab3"/>
        <path d="M401.8,438c4.5-6,9.8-9.1,16.1-9.1s11.6,3.1,16,9.1,6.7,13.3,6.7,21.9-2.2,15.8-6.7,21.9-9.7,9.1-16,9.1-11.6-3-16.1-9.1-6.7-13.4-6.7-21.9S397.3,444,401.8,438Zm24.6,1.8c-2.2-4.7-5.1-7-8.5-7s-6.3,2.3-8.5,7-3.4,11.4-3.4,20.1,1.1,15.3,3.4,20.1,5,7.1,8.5,7.1,6.3-2.4,8.5-7.1,3.3-11.5,3.3-20.1S428.6,444.5,426.4,439.8Z" style="fill: #008ab3"/>
        <path d="M453.9,421.5,477.6,471V419.5a7.1,7.1,0,0,0-1.9-4.9c-1.3-1.3-2.4-2-3.4-2v-4.3h14.2v4.3a5.2,5.2,0,0,0-3.4,2,6.7,6.7,0,0,0-1.9,4.9v71.4h-3.9l-27.9-48.1v38.6a6.9,6.9,0,0,0,1.8,4.9c1.3,1.3,2.4,2,3.4,2v2.6H440.5v-2.6c1,0,2.1-.7,3.4-2a6.9,6.9,0,0,0,1.8-4.9V439.7c0-2-.5-12.3-1.7-13.6s-2.4-2-3.4-2v-2.6Z" style="fill: #008ab3"/>
      </g>
      <g id="_1970" data-name="1970">
        <path d="M170.2,343.3c-.2-.1-.3-.3-.5-.6a1.1,1.1,0,0,1-.3-.6.4.4,0,0,1,.1-.3l8.1-5.4h.1q.3,0,.6.9a12.9,12.9,0,0,0-.5,4.4v18.5a15.6,15.6,0,0,0,.4,4.2c0,.2.5.4,1.4.6l1.7.3c.1,0,.2.3.2.9v.5l-5.7-.2-5.5.2a1.3,1.3,0,0,1-.2-.8c0-.4.1-.6.2-.6l1.9-.3c.9-.2,1.3-.4,1.4-.6a10.6,10.6,0,0,0,.3-2.7V344.8a12.2,12.2,0,0,0-.1-2.1c-.1-.4-.1-.7-.2-.8a.5.5,0,0,0-.4-.2l-.8.3-1.2.7Z" style="fill: #008ab3"/>
        <path d="M198.5,336.2a8,8,0,0,1,6.4,3,10.6,10.6,0,0,1,2.5,7,17.9,17.9,0,0,1-1.5,7.2,21.2,21.2,0,0,1-3.9,6.1,30.4,30.4,0,0,1-5,4.5,19.4,19.4,0,0,1-5.3,2.8c-.2,0-.4-.2-.6-.5a1.8,1.8,0,0,1-.4-.8,22.7,22.7,0,0,0,7-4.7,17.1,17.1,0,0,0,4.6-7.8c0-.3,0-.5-.1-.5a.1.1,0,0,0-.1.1,4.9,4.9,0,0,1-2.2,1.1,8.8,8.8,0,0,1-2.9.6,7.3,7.3,0,0,1-5.7-2.6,8.5,8.5,0,0,1-2.4-6,9,9,0,0,1,2.9-6.7A9.2,9.2,0,0,1,198.5,336.2Zm4.9,10.1a10.3,10.3,0,0,0-1.6-5.8,4.6,4.6,0,0,0-4.1-2.5,4,4,0,0,0-3.4,1.9,7.5,7.5,0,0,0-1.5,4.9,8,8,0,0,0,1.6,5.1,5.1,5.1,0,0,0,4.4,2.1,5.5,5.5,0,0,0,2.4-.7,3.5,3.5,0,0,0,1.5-1.5A10.8,10.8,0,0,0,203.4,346.3Z" style="fill: #008ab3"/>
        <path d="M520.6,340.3a1.7,1.7,0,0,0-1.4.7,5.1,5.1,0,0,0-.9,1.3,10.7,10.7,0,0,0-.6,1.7c-.1.2-.3.2-.7.3h-.9c0-.3.3-1.3.7-3.1s.6-3.1.7-4,.3-.5.8-.5H535c.2,0,.3.2.3.5a1.2,1.2,0,0,1-.2.7l-.6,1.2a8.7,8.7,0,0,1-.5,1.2l-12.4,26.4-.5.2a2.1,2.1,0,0,1-1.1-.5,1,1,0,0,1-.5-.8l12.4-25Z" style="fill: #008ab3"/>
        <path d="M538.2,351.5a19.3,19.3,0,0,1,2.8-10.8,8.5,8.5,0,0,1,14.9,0,22,22,0,0,1,0,21.5c-1.9,2.9-4.3,4.4-7.5,4.4a8.4,8.4,0,0,1-7.4-4.4A19.2,19.2,0,0,1,538.2,351.5Zm4.1-.1a24.1,24.1,0,0,0,1.7,9.5q1.7,3.9,4.2,3.9c2,0,3.5-1.3,4.7-3.9a24.9,24.9,0,0,0,1.6-9.7,22.8,22.8,0,0,0-1.6-9.3c-1.1-2.5-2.5-3.8-4.2-3.8s-3.5,1.3-4.6,3.8A22.4,22.4,0,0,0,542.3,351.4Z" style="fill: #008ab3"/>
      </g>
      <path id="Aro" d="M356.6,552.8c-128.1,0-232.3-90.3-232.3-201.3S228.5,150.2,356.6,150.2s232.3,90.3,232.3,201.3S484.7,552.8,356.6,552.8Zm0-396c-124.5,0-225.7,87.4-225.7,194.7S232.1,546.2,356.6,546.2s225.6-87.4,225.6-194.7S481,156.8,356.6,156.8Z" style="fill: #008ab3"/>
    </g>
  </g>
  <g id="Capa_2" data-name="Capa 2">
    <rect width="707" height="707" style="fill: none"/>
  </g>
</svg>
