<?xml version="1.0" encoding="utf-8"?>
<!-- Generator: Adobe Illustrator 24.0.2, SVG Export Plug-In . SVG Version: 6.00 Build 0)  -->
<svg version="1.1" id="Capa_1" xmlns="http://www.w3.org/2000/svg" xmlns:xlink="http://www.w3.org/1999/xlink" x="0px" y="0px"
	 viewBox="0 0 247.6 298.6" style="enable-background:new 0 0 247.6 298.6;" xml:space="preserve">
<style type="text/css">
	.st0{fill:#E20E0E;}
</style>
<title>conceptosRecurso 1</title>
<g id="Capa_2_1_">
	<g id="Capa_1-2">
		<path class="st0" d="M148.2,83.6c0-2-0.6-4-1.8-5.7c-1.1-1.5-2.9-2.2-5.4-2.3h-4.1v17.8h5.1C146.3,93.5,148.4,90.2,148.2,83.6z
			 M245.8,172.8c-3-22.9-26.7-22.5-54.5-16.7c1.3-17.2,3.7-44.4,6-56.2c3.9-20.2,14.8-80.7,14.8-80.7h-0.4c0-10.6-39.9-19.2-89-19.2
			s-89,8.6-89,19.2c0,0.5,0.1,1,0.3,1.4c0,0,11,59.5,14.9,79.3c2.3,11.8,4.7,39,6,56.2c-27.8-5.8-51.5-6.2-54.5,16.7
			c-2.2,17.1,12.5,43.3,122.7,43.3S248,189.9,245.8,172.8L245.8,172.8z M116.3,82.8c0-0.9,0.2-1.8,0.6-2.6c1-2.1,2.7-3.7,4.7-4.8
			c2-1.1,4.9-1.7,8.7-1.7h14.2c2.8-0.1,5.5,0.9,7.7,2.6c2.2,1.8,3.3,4.4,3.3,7.9c0,2.3-0.6,4.6-1.7,6.7c-1.1,1.9-2.8,3.5-4.8,4.4
			l9.8,15.5c5.8,8.7,10.8,13.4,15,14.2c-4.1,0.3-7,0.4-8.7,0c-3.7-0.7-7.3-3.1-10.8-7.4c-1.5-1.8-2.8-3.8-4-5.8c-1.2-2-3.1-5-5.7-9
			l-4.2-6.5h-3.5v10c0,1.3,0.6,2.5,1.6,3.2c0.8,0.7,1.8,1.2,2.8,1.4v1.7h-16.6v-1.7c1-0.2,2-0.7,2.8-1.4c1-0.8,1.6-1.9,1.6-3.2V76.5
			l-0.3-0.8c-0.2-0.2-0.4-0.3-0.7-0.2c-1.6,0.2-3,1-4,2.2c-0.9,1.2-1.4,2.7-1.4,4.2c0,1.4,0.2,2.9,0.7,4.2c0.3,1.1,1,2,2,2.6
			c-1.4,0.5-2.9,0.7-4.4,0.5c-1-0.1-2-0.6-2.8-1.3c-0.8-0.6-1.3-1.4-1.6-2.3C116.3,84.7,116.2,83.7,116.3,82.8L116.3,82.8z
			 M74.3,106.4l0.9-15.6c0.3,0.9,0.7,1.8,1.1,2.7c0.4,1.1,0.9,2.2,1.5,3.2c0.2,0.5,0.8,1.6,1.6,3.1c0.6,1.2,1.4,2.4,2.3,3.4l2.7,2.8
			c0.9,1.1,2.1,1.9,3.4,2.5c1.1,0.5,2.5,0.9,4,1.4c1.6,0.4,3.3,0.5,5,0.5c3.1-0.1,6-1.7,7.6-4.4c1.8-2.6,2.3-6,1.3-9
			c-0.5-1.8-2.1-3.5-4.8-5.1c-3.2-1.9-6.6-3.6-10-5.1c-3.1-1.3-6.1-2.8-8.9-4.6c-2.6-1.7-4.8-4-6.3-6.7c-1.4-2.2-2-4.9-1.7-7.5
			c0.3-2.5,1.3-4.9,2.8-6.9c1.5-2.2,4-3.9,7.4-5.2c3.8-1.4,7.8-2.1,11.8-2c9.2,0,15.8,2,20,6l-0.7,12.2l-2.5-3.8l-3.9-4.8
			c-1.7-1.9-3.7-3.5-6-4.7c-2.1-1.2-4.6-1.8-7-1.8c-2.3,0-4.5,0.9-6.1,2.5c-1.7,1.4-2.8,3.6-2.8,5.8c0,2.7,1.2,5.2,3.3,6.9
			c2.2,2,4.8,3.6,7.6,4.6c2.8,1.1,6,2.5,9.5,4.1c2.9,1.3,5.6,3,8.1,5c2,1.7,3.4,4,4,6.6c0.6,2.3,0.6,4.8,0,7.1
			c-0.6,2.2-1.5,4.3-2.8,6.1c-3.8,5.3-10.5,7.9-20.2,7.9c-4.6,0.1-9.1-0.6-13.5-1.9C79.7,110.7,76.7,108.9,74.3,106.4L74.3,106.4z
			 M188,189.9c0,0-27.4,3.1-38.6,2.3c-13.2-0.9-25.2-7.6-37.5-12.4c-7.4-2.8-25.7-12.4-25.7-12.4l103.1-3.3L188,189.9z M0,216h14.9
			l13.4,63.9l12.9-50.5h14.6v2.7c-1,0-2.1,0.6-3.4,2c-1.2,1.4-1.8,3.2-1.8,5v49.8c-0.1,1.8,0.6,3.6,1.8,5c1.3,1.4,2.4,2.1,3.4,2.1
			v2.6H36V296c1,0,2.1-0.7,3.4-2.1c1.2-1.4,1.9-3.2,1.8-5v-37.2c-1.6,5.2-4.1,13-7.3,23.4l-7.3,23.5h-2.4L16.6,275
			c-3.3-10.5-5.9-38.9-7.6-44.1v58c0,1.8,0.7,3.6,1.9,5c1.2,1.4,2.4,2.1,3.4,2.1v2.6H0V296c1,0,2.1-0.7,3.3-2.1c1.3-1.3,2-3.1,1.9-5
			v-61.5c0.1-1.9-0.6-3.7-1.9-5c-1.2-1.3-2.3-2-3.3-2L0,216z M60.7,236.6h19.8v2.7c-1,0-2.2,0.7-3.4,2.1c-1.3,1.4-1.9,3.3-1.9,5.2
			v42.1c0,1.9,0.7,3.7,1.9,5.1c1.2,1.4,2.4,2.1,3.4,2.1v2.7H60.7v-2.7c1,0,2.1-0.7,3.3-2.1c1.3-1.4,2-3.2,1.9-5.1v-42.1
			c0.1-1.9-0.6-3.8-1.9-5.2c-1.2-1.4-2.3-2.1-3.3-2.1V236.6z M83.7,236.6h19.7v2.7c-1,0-2.1,0.7-3.3,2.1c-1.3,1.4-2,3.3-1.9,5.2
			v48.8h11.5c1.2,0,2.5-0.3,3.6-0.8c1.2-0.5,2.2-1.4,3-2.4l2.1-2.7c0.7-1,1.2-2.1,1.7-3.2l1.1-2.2l-0.5,14.5h-37v-2.7
			c1,0,2.1-0.7,3.3-2.1c1.3-1.4,2-3.2,1.9-5.1v-42.1c0.1-1.9-0.6-3.8-1.9-5.2c-1.2-1.4-2.3-2.1-3.3-2.1L83.7,236.6z M113.1,236.6
			h41.8l1,14.5c-1-2-3-4.2-5.9-6.6s-8.2-3.6-11.3-3.6v47.8c-0.1,1.9,0.6,3.7,1.9,5.1c1.2,1.4,2.4,2.1,3.4,2.1v2.7h-19.8v-2.7
			c1,0,2.2-0.7,3.4-2.1c1.3-1.4,2-3.2,1.9-5.1V241h-2.4c-3.3,0.1-6.5,1.3-9,3.5c-2.9,2.3-4.9,4.4-5.9,6.4L113.1,236.6z M162.9,245.7
			c4.5-6,9.8-9.1,16.1-9.1s11.6,3.1,16,9.1s6.7,13.3,6.7,21.9s-2.2,15.8-6.7,21.9s-9.7,9.1-16,9.1s-11.6-3-16.1-9.1
			s-6.7-13.4-6.7-21.9S158.4,251.7,162.9,245.7L162.9,245.7z M187.5,247.5c-2.2-4.7-5.1-7-8.5-7s-6.3,2.3-8.5,7s-3.4,11.4-3.4,20.1
			s1.1,15.3,3.4,20.1s5,7.1,8.5,7.1s6.3-2.4,8.5-7.1s3.3-11.5,3.3-20.1S189.7,252.2,187.5,247.5L187.5,247.5z M215,229.2l23.7,49.5
			v-51.5c0-1.8-0.7-3.6-1.9-4.9c-1.3-1.3-2.4-2-3.4-2V216h14.2v4.3c-1.4,0.2-2.6,0.9-3.4,2c-1.3,1.3-2,3.1-1.9,4.9v71.4h-3.9
			l-27.9-48.1v38.6c-0.1,1.8,0.6,3.6,1.8,4.9c1.3,1.3,2.4,2,3.4,2v2.6h-14.1V296c1,0,2.1-0.7,3.4-2c1.2-1.3,1.9-3.1,1.8-4.9v-41.7
			c0-2-0.5-12.3-1.7-13.6c-0.8-1.1-2-1.8-3.4-2v-2.6L215,229.2z"/>
	</g>
</g>
</svg>
