<svg xmlns="http://www.w3.org/2000/svg" viewBox="0 0 38.1 38.1"><title>conceptosRecurso 4</title><g id="a8792e09-ff8c-4c0a-8ec2-0a6ec0e07cf7" data-name="Capa 2"><g id="eef32678-1456-4e4e-80a8-885185cd245b" data-name="Capa 3"><path id="f3316136-3c98-4aca-9c68-b48354895e94" data-name="facebook" d="M19,0h0A19,19,0,0,0,0,19H0A19.1,19.1,0,0,0,19,38.1h0A19.2,19.2,0,0,0,38.1,19h0A19.1,19.1,0,0,0,19,0Zm5.3,11.6H21.8c-.9,0-1,.3-1,1.2V15h3.5L24,18.9H20.8V30.5H16.1V19H13.7V15h2.4V12c0-3,1.6-4.5,5-4.5h3.2Z" style="fill:#fff"/></g></g></svg>