<?xml version="1.0" encoding="utf-8"?>
<!-- Generator: Adobe Illustrator 24.0.2, SVG Export Plug-In . SVG Version: 6.00 Build 0)  -->
<svg version="1.1" id="Capa_1" xmlns="http://www.w3.org/2000/svg" xmlns:xlink="http://www.w3.org/1999/xlink" x="0px" y="0px"
	 viewBox="0 0 38.1 39.5" style="enable-background:new 0 0 38.1 39.5;" xml:space="preserve">
<style type="text/css">
	.st0{fill:#FFFFFF;}
</style>
<path id="linkedin" class="st0" d="M19,0C8.5,0,0,8.5,0,19l0,0c-0.8,10.5,7.1,19.7,17.7,20.4c10.5,0.8,19.7-7.1,20.4-17.7
	c0.1-0.9,0.1-1.8,0-2.8l0,0C38,8.5,29.5,0,19,0z M14.3,27.5h-3.9V14.8h3.9L14.3,27.5z M12.4,13.1c-1.3,0.1-2.3-0.9-2.4-2.2
	c0,0,0-0.1,0-0.1c0-1.3,1.1-2.4,2.4-2.4l0,0c1.3,0.1,2.3,1.1,2.3,2.4C14.7,12.1,13.7,13.1,12.4,13.1L12.4,13.1z M29.1,27.5h-3.9
	v-6.7c0-1.8-0.7-2.8-2.2-2.8s-2.4,1-2.4,2.8v6.7h-3.7V14.8h3.7v1.7c0.9-1.3,2.3-2.1,3.9-2.1c2.7,0,4.6,1.6,4.6,5.1V27.5z"/>
</svg>
