<?xml version="1.0" encoding="utf-8"?>
<!-- Generator: Adobe Illustrator 24.0.2, SVG Export Plug-In . SVG Version: 6.00 Build 0)  -->
<svg version="1.1" id="b33d8cce-737c-4799-afa6-b332823edae8"
	 xmlns="http://www.w3.org/2000/svg" xmlns:xlink="http://www.w3.org/1999/xlink" x="0px" y="0px" viewBox="0 0 44.9 37.4"
	 style="enable-background:new 0 0 44.9 37.4;" xml:space="preserve">
<style type="text/css">
	.st0{fill:#FFFFFF;}
</style>
<title>logo-menu</title>
<path class="st0" d="M1.7,0.1h41.5c0.9,0,1.7,0.8,1.7,1.7v1.5c0,0.9-0.8,1.7-1.7,1.7H1.7C0.8,5,0,4.2,0,3.3V1.8
	C0,0.9,0.8,0.1,1.7,0.1z"/>
<path class="st0" d="M1.7,16.3h41.5c0.9,0,1.7,0.8,1.7,1.7v1.5c0,0.9-0.8,1.7-1.7,1.7H1.7c-0.9,0-1.7-0.8-1.7-1.7V18
	C0,17.1,0.8,16.3,1.7,16.3z"/>
<path class="st0" d="M1.7,32.5h41.5c0.9,0,1.7,0.8,1.7,1.7v1.5c0,0.9-0.8,1.7-1.7,1.7H1.7c-0.9,0-1.7-0.8-1.7-1.7v-1.5
	C0,33.3,0.8,32.5,1.7,32.5z"/>
</svg>
