<?xml version="1.0" encoding="utf-8"?>
<!-- Generator: Adobe Illustrator 24.0.2, SVG Export Plug-In . SVG Version: 6.00 Build 0)  -->
<svg version="1.1" id="Capa_1" xmlns="http://www.w3.org/2000/svg" xmlns:xlink="http://www.w3.org/1999/xlink" x="0px" y="0px"
	 viewBox="0 0 38.1 39.8" style="enable-background:new 0 0 38.1 39.8;" xml:space="preserve">
<style type="text/css">
	.st0{fill:#FDFDFD;}
</style>
<path id="f4e6b62c-542f-4e0c-98b5-bc1928aa6d79" class="st0" d="M19,0C8.5,0,0,8.5,0,19l0,0c-0.8,10.5,7.1,19.7,17.7,20.4
	c10.5,0.8,19.7-7.1,20.4-17.7c0.1-0.9,0.1-1.8,0-2.8l0,0C38,8.5,29.5,0,19,0z M27.1,14.9c0.3,6.5-4.7,12.1-11.2,12.4
	c-0.2,0-0.4,0-0.6,0c-2.3,0-4.5-0.6-6.4-1.9c2.2,0.2,4.4-0.4,6.2-1.7c-1.8,0-3.3-1.2-3.9-2.9c0.6,0.1,1.2,0.1,1.8-0.1
	c-1.9-0.4-3.3-2.1-3.3-4.1c0.6,0.3,1.2,0.5,1.9,0.5c-1.8-1.2-2.4-3.6-1.3-5.5c2.1,2.6,5.3,4.1,8.6,4.3c-0.6-2.2,0.8-4.4,3-5
	c0.3-0.1,0.7-0.1,1-0.1c1.2,0,2.3,0.5,3.1,1.3c0.9-0.2,1.8-0.5,2.6-1c-0.3,1-0.9,1.8-1.8,2.3c0.8-0.1,1.6-0.3,2.4-0.7
	C28.6,13.5,27.9,14.3,27.1,14.9z"/>
</svg>
