<svg xmlns="http://www.w3.org/2000/svg" viewBox="0 0 174.4 150"><defs><style>.cls-1{fill:#231f20;}</style></defs><title>Recurso 1</title><g id="Capa_2" data-name="Capa 2"><g id="Capa_1-2" data-name="Capa 1"><path class="cls-1" d="M39.5,61.82a19.54,19.54,0,0,1-3-3.6,20.42,20.42,0,0,0,3.91,1.2c3.21.8,7.44-.67,10.12-2S57.6,56,59.93,56.12s4.71.6,4.38,2-5.75,3.94-5.75,3.94a2,2,0,0,0,1.24.33c.83,0,6.08-1.4,6.54-4.17s-1.8-8.37-3.27-9-4.17,0-4.17,0c4,1.44,4.94,6.17,4.94,6.17-2.61-1.5-9.28-1.23-12.62.51s-8.38,2.67-10.08,2.5a13.14,13.14,0,0,1-3.57-1c1.83,0,3.23-2.67,3.23-2.67s-2.06,2.27-5.54.44S33.56,47,33.56,47s-2.94,5.91-1,9.81S39.5,61.82,39.5,61.82Zm37.5-21s-1.78-5-2.8-8.54l-1.56,8.41,1.65,1.6a3.63,3.63,0,0,0-.67-1.69C73,39.48,76.51,40.37,77,40.77Zm25.4,45.65c.25.22.44.4.59.52C102.8,86.77,102.57,86.58,102.4,86.42Zm67,33c-.09-5.43-3.92-3.91-3.92-2.4,0,0-11.4,1.6-13.09-6.68a16.53,16.53,0,0,0,1.69-12.46,34.59,34.59,0,0,0-3.63-8.6c11.1,2.12,21.7-5.08,19-15.52-3.34-13.09-19.63-9.48-24.43-9.35s-13.49-2-8-11.62,18-5.87,18-5.87c-2.14.67-4.67,4.81-4.67,4.81,9.75-6.81,22.3,4.54,22.3,4.54-3.1-13.68-23.16-14.64-30-12.64-4.29-.37-5.24-3.39-3.08-6.63,2.32-3.48,10.51-14,10.51-14a23.42,23.42,0,0,1-6.23,4c-4.19,2-6.32-2.22-4.37-6.85s8.19-16.56,8.19-16.56c-2,3.21-24.57,31.25-21.72,26.71s5.25-11.93,5.25-11.93c-2.84,6.94-22.43,25.28-30.71,34.27s-5.78,19.59-4,22a2.71,2.71,0,0,1,.62,1.23c-4.87-3-3.89-13.93-.27-19.66C100.68,50.12,115.28,36,115.28,36V34.63s.44-1.51-.09-.45-3.65,1.25-3.38-.88a65.56,65.56,0,0,0-.36-8.55s-1.16,5.79-2.76,5.61-2.49-2.68-2.4-5.44-1.16-9.7-1.16-9.7c-.8,11.75-8.28,8-8.28,3.74S92.31,6.14,92.31,6.14,94.72,20.56,91,20.56s-7-5.07-9.88-9.88S68.28,0,68.28,0c13.43,16.09,17.65,32.11,18.4,44.51a5.37,5.37,0,0,0-2.91,2.23c.35-2.85-.63-7.75-1.25-9.89a79.26,79.26,0,0,1-1.16-9.16c0,2.67-1,5.25-2,9.07a17.44,17.44,0,0,0-.81,6.06c-1.06-2.23-4.27-2.14-4.27-2.14,1.34,1.79.18,2.49.18,2.49L73,41.57c-1.43-1.6-3.48-1-3.39.27s0,2-2.85,2-5.87-3.47-9.07-3.12-5.52,2.14-5.7,6.68,1.87,5.25,1.87,5.25c-.8-.44-.89-1.07-.89-3.47s2.49-1.43,2.49-1.43c-.09,4.54,2.67,4.46,2.67,4.46-1-2.68-.71-4.19,3.56-4s5.43,7.12,5.52,9.08-1.16,3-2.67,3.91-2.94,2.23-5.43,2.05-1.69-5-1.69-5c-3,2-1.69,5.7-1.69,5.7-1.87-.18-2.23-3-2.23-3a6.84,6.84,0,0,0-.18,5.43c.62,1.07-.53,3.56-.53,3.56s1.6-.44,1.6-1.25,1.07-1.87,1.07-1.87a7.18,7.18,0,0,0-.09,2.67C55.64,70.5,53.86,71,53.86,71c2.93,1,5.34-2.5,6.58-4.19.8-1.07,5.08-3.8,8.09-5.65l.21.36c2.61-.41,5-1.34,4.61.6s-.86,2.67-4.2,4.4C66,68.2,59.6,73.1,57.86,80.25v-.07a14.69,14.69,0,0,0-.71,2.57c-.83-.1-2.79.31-5.25,5-3.3,6.32-1,9.08.18,10.15.49.46,1.14,1.17,1.72,1.83a10.82,10.82,0,0,0-6.09-2.36c-5.87-.62-9.61-.63-11.3-2.67S32.22,92,30.62,93.29s-6,3.48-8,3.48S17.27,95.61,15,94.54s-3.56,1.51-3.56,1.51a20.12,20.12,0,0,0-3.2-.18A4.43,4.43,0,0,0,4.72,98S0,99.17,0,102a2.78,2.78,0,0,0,2.49,3s-2.85-3,3-5a6.81,6.81,0,0,0,3.83,1.24h2.76s-1.07,1.34-.89,2.32S8,106,9.35,109.32c0,0,2-3.65,3.11-3a3.46,3.46,0,0,0,3.65-.71,16.46,16.46,0,0,1,8-2.5l.41,0c.3.45,1.73,2.25,5.46,2.57,4.27.35,3.74,2.58,2.31,3.47a9,9,0,0,1-2.76,1.15s5,.45,5.7-2,.45-7.3-3.29-6.68-4.27.35-4.72-.45,0-1.06,2.76-1.33,5.61-.35,8.19,2.05,10.86,7.12,15.85,7.12,6.41.71,6.41.71-.16-3.64.9-3.59a13.63,13.63,0,0,0,2.26,1.92,27,27,0,0,0,4.82,2.77A15.81,15.81,0,0,0,65.74,115c-2.07,4.6-9.41,12.69-10.88,13.75a4.55,4.55,0,0,1-3.54.47s.2,1,.8,1.07-3.73.87-5,.07-3.41-2-4.21-3.14-2.54.33-2.67,1.27l-.13.93a12.49,12.49,0,0,1-3.61-2.14c-.93-1.07-4.87-1.53-5.94.07-.48.71-.5.94-.39,1A5.66,5.66,0,0,0,27,133.46c0,4.14,2.54,5.15,2.54,5.15s-2.67-3,1.94-7.22c0,0,.27,1.61,2.87,1.67a22.21,22.21,0,0,1,6.34,1.67s-4.47-.67-5.54,3.27,2.54,6.88,2.54,6.88-1.81-5,1.2-6.74c0,0,.87,2.33,5.61,2.33s6.94-4.67,11.68-4.67,4,3,7.41,3,4.61-2.21,4.61-.54a4.12,4.12,0,0,1-.34,2.14,4.16,4.16,0,0,0,2.54-4.81c-.6-3.74-4.81-3.6-6.07-2.53s-4.41-.61-3.14-1.74a2,2,0,0,1,2.53-.13,6.68,6.68,0,0,1,2.61-3.81c2-1.2,11.42-10.62,14.42-12.28a14.12,14.12,0,0,0,2.81-2.06c2,.31,9.09,1.25,11.3-.35,0,0,7.12.18,8.46-2.4,0,0,4.63-.27,6-2.32,1.26-1.81,4.94-3.4,5.79-3.75.13,1.67-.87,7.07-1.87,9.94-1.07,3.07,2.8,7.57,4.05,9.92s.62,3.43-.62,5.17-5.74,7.21-9.79,7.21-4.73-4.49-6.15-4.49-1.82,2.4-1.82,2.4-3-3.56-5.34-3.56-2.81,1-2.81,1c-7.57,1.74-6.1,10-6.1,10,0-2.71,3.38-6.36,4.41-6.58s1.87-.4,2.49.62,3.8,1,4.62,1c-.42,0-1.53.38-3.15,2.62-2.09,2.9-.27,6.15-.27,6.15-.26-2.89,3.21-3.47,5.44-3.3s7.43-.35,8.14-1,2.89-.93,3.74,0,6.68.44,9.43,1.16,1.07,3.87,1.07,3.87,4.36-1.65,4.36-4.45-3.38-6.28-5.34-5.08a14,14,0,0,1-4.89,1.52c0-2.36,8.94-10.91,10.73-11.62s2.49-3.21,1.06-4-2.31-2.36-2.31-6.41c0-3.6,4.85-8.32,5.92-10.27C132.67,112.35,139,124,149,124c12.1,0,15.49,3.2,16.11,6s.27,6.94-3.56,6.94-4.81-2.85-8.73-2.85c-2-.18-2.14,1.34-2.14,1.34s-5.07-.8-6.14,6.85c0,0,2.67-3.11,6-2.67s2.22,2,6.05,2c0,0-5.16,4.36.71,8.37,0,0-1.42-3.74,1.52-3.74s1.06.71,4.36.71,7.83-5.07,8.1-9.08c0,0,1.87,3,3.12,3C174.39,140.92,169.5,126.05,169.41,119.37ZM58.93,45.22c-1.16,0-2.13-1.16-.18-1.33,2.32-.21,4,2.49,4,2.49A15.26,15.26,0,0,0,58.93,45.22ZM151.47,68.1a2.59,2.59,0,0,1,2.8,2.14c3.07-4.68,9.88.26,9.08.66s.14,1.88-.8,1.88-1.2,1.2-1.2,1.2,2-.14,2,.8,1.74.67,1.74.67c-.14,6-3.87,7.07-3.87,7.07s.26-2-.94-1.87S159,78,159,78c-1.74.54-.14,2.94-1.61,3.08s-1.07,2.8-1.07,2.8-4.13,0-6.14-.27-2.4-1.6-2.13-2.27-.81-1.47-.54-2.14,1.6-1.46,1.6-1.46,2.81.13-.13-.54-2.94,1.74-4.27,1.87c-1.09.11-1.64,1.27-1.81,1.7a25,25,0,0,0-6.18-3.27c.24-1.13-.71-.9-.83-2.44a3.76,3.76,0,0,1,1.47-2.93c-2.53,0-4.4,2.53-4.4,2.53a2.29,2.29,0,0,0-2,1.42,35.88,35.88,0,0,0-8.63,0,15.81,15.81,0,0,1,7-2.49s-5.26-.62-3.39-5.7c1.23-3.33,4.88-5.78,7.24-7.06l.06.39C135.85,69.44,148.93,68.1,151.47,68.1ZM96.69,78a1.9,1.9,0,0,1-.48,1.4C96.43,78.7,96.57,78.26,96.69,78Zm-28-26.62c.63.53,1.6-.63,3.48.35s3.91-.53,3.91-.53L73,48.34c-2.5,1.6-4.19-2.05-2.85-3s2.49-2.4,3.74-1.16-.27,3.57-.27,3.57l2.76,2.49c-.27-1.52,1.87-2.41,1.87-2.41s.3.25.82.78l-.73-.24s-1.78.44-1.07,2-3.83,3.29-5.07,1.87c-.93-1.06-2.63.33-3.33-.56l-.3-.37Zm-.18,9.83,1.08-.66C69.1,61,68.76,61.2,68.54,61.2ZM55.28,107.63c-8-.36-17-7.75-17-7.75,9.61,6.68,18,6.85,18,6.85Zm13-18.43s-2.08,2.86-1.63,8c-.19,7,1.63,9.51,1.63,9.51a5.71,5.71,0,0,0-3-2.41,20,20,0,0,1,2.06,1.81,4.29,4.29,0,0,1,.83,1.82c-2-.69-7.31-3-9.17-9,0,0,1.4,3.28,7.34,1.41,0,0-5.74.86-7.47-3.88,0,0,4.87,1.27,7.21,0,0,0-6.81.34-8.22-2.54s-.73-3.73-.73-3.73A10,10,0,0,0,65,92.94s-7.81-2.2-7.48-6.48c.06-.76.11-1.35.16-1.8,1.16,4.45,7.21,3.66,8.79,3.6,0,0-10.22.27-7.61-8.74,0,0,.19,3,6.41,3.14a6.66,6.66,0,0,1-4.61-2.74c-1.61-2.47-.4-4.14.87-5.94a5.5,5.5,0,0,0,4.54,4.07S63.34,76.11,62.74,74a2.35,2.35,0,0,1,1.54-2.87s1.26,3.2,3.73,3.27c0,0-3.2-2.41-2.73-4.28a1.83,1.83,0,0,1,2.13-1.53s.54,2.8,2.4,3.07c0,0-2.73-2.74-.86-4.27s1.67.73,3.27,1.13c0,0-2.41-2.87,1-3.8s.6,3.27.6,3.27,5.47-2.67,4.94-6.61c-.42-3.07-4.63-2.93-7.26-1.94l.07,0c-1.73-.79-1.93-3.32-1.95-5a3.14,3.14,0,0,1,.17.82,5.16,5.16,0,0,0,2.31,3.73s-.09-1.15,2.5-.8,5,1.52,4.89,3.65-2.22,6-6.23,9.44c-3.74,3.16-7.86,8.8-5.43,16.12a7.11,7.11,0,0,1,1-.84,11.54,11.54,0,0,1,3.29-1.78c.32-.09.65-.16,1-.22l.35-.31h0s2,.11,4.11.44C71.92,84.29,68.28,89.2,68.28,89.2Zm3,19.2h0Zm7.85,3.41c-.53,1.78-11.57,13.17-16.2,15.58s-5.52,4.72-5.52,4.72-.8-2.23,3.82-4.81,15.67-13.53,16.3-16.56S75.76,108,75.76,108s3.47-.8,4.36-10.24c0,0,.35,8.1-2.23,10.06C77.89,107.8,79.67,110,79.14,111.81ZM78.6,79.67s-2.58-.18.36-3.2,4.81-5.7,5-5a1.33,1.33,0,0,0,2.22.45s-2-1.43-.27-4.28,5.17-11.75,2.23-15.84.44-4.1.44-4.1a5.49,5.49,0,0,0-2.66.23v0A2.75,2.75,0,0,1,86.7,45q.06,1.11.09,2.19a5.38,5.38,0,0,1,.74,0,8.52,8.52,0,0,1,1.13.08.55.55,0,0,1,.45.58.54.54,0,0,1-.54.48s-.79,0-1,.49c-.12.23-.26,1,1,2.77,3.07,4.28-.28,13.37-2.2,16.44a4.52,4.52,0,0,0-.54,1.16l1.15,1s3.21.93,3.21,3.34c0,1.23,2.5,2.59,5,3.63a65.62,65.62,0,0,1-7.84.51C84.9,77.58,83.39,80.16,78.6,79.67Zm9.51,16.9a28.67,28.67,0,0,0-3.56-7.71,6.76,6.76,0,0,1,3.85-3.4c4.09-1.33,5.87,2.76,5.87,2.76s5-4.54,7.84-2a5,5,0,0,1,6-3.29,4.65,4.65,0,0,1-.8-2.76c-.09-2,1.16-3,4.09-3.12,0,0-3-3.2-.26-4.45s5.43-2.49,5.43-2.49-2.58-.53-2.5-2.67,2.14-5,7.22-6.23c0,0-3-1-3-2.85s3.21-5.16,6.23-6.68c0,0-4,.18-4.36-1.87s3.65-6.67,6.32-7.83a3.24,3.24,0,0,1-2.14-3.83c.7-2.77,6.45-8,6.75-8.26-.28.25-4.79,4.26-4.79,1.85,0,0,14.87-18.34,16.56-20.12,0,0-5.25,8.37-5.08,13.09s5.08,4.63,7.75,2.49c0,0-5.52,7.75-7,9.62s-1.6,7.21,2.4,7.38c0,0-11,6.59-7,15.05,0,0-8.55,3.56-9.17,9.52-.71,3.21,1.6,4.1,1.6,4.1s-6,2.22-7.56,6a12.75,12.75,0,0,0-.36,7.84s-9.08-1.34-9.53,6.85c0,0-8.63-1.16-9.61,3.65C99.17,97.12,92.88,91.75,88.11,96.57Zm25.66,6.51c-2,1.52-2.14-1.24-2.14-1.24s-1.24,3.42-2.67,4.85-2.94,0-2.67-1.65c0,0-1.34,2.94-3.38,3.83s-3.92.09-3.38-1.51a8.51,8.51,0,0,1-3.39,3c-1.71.86-2.78.06-3.12-.73,5.44-1.3,11.85-5.88,15.5-7.1,2.46-.82,4.74-3.38,7.18-5.24C115.61,98.8,115.24,102,113.77,103.08Zm2.66-3.76A10.58,10.58,0,0,0,116,97.1a9.72,9.72,0,0,1,3.28-1.7A5.13,5.13,0,0,1,116.43,99.32Zm3.75-2.24a5.65,5.65,0,0,0,.14-1.84,5.46,5.46,0,0,1,3,.73c.24.12.44.26.66.39C122.58,99.64,119.52,99.32,120.18,97.08Zm7.21,3.34c-1.47-1.34-2.81-2.1-2.89-3a1.28,1.28,0,0,1,.15-.62,12.64,12.64,0,0,1,3.55,3.67c.16.47.3.91.43,1.33A9.41,9.41,0,0,0,127.39,100.42Zm39,22.5c-.07-2.14-.6-1.2-2.27-1.2s-12.35-1.94-16.56-6.88-8.48-19.1-10.62-24.1-13.68-5.88-13.68-5.88,11.61-.2,14.75,5.74,5.41,22,12.89,26,13.35,3.54,13.35,3.54,1.94-1.33,2.67,1.14.54,5,1.07,6.74A14.92,14.92,0,0,1,166.36,122.92Z"/></g></g></svg>