<svg width="1920" height="1080" viewBox="0 0 1920 1080" fill="none" xmlns="http://www.w3.org/2000/svg">
<g clip-path="url(#clip0_12_91)">
<g clip-path="url(#clip1_12_91)">
<path d="M1920.26 0H0.255981V1080H1920.26V0Z" fill="url(#paint0_linear_12_91)"/>
<path d="M1920.26 139.536V455.76C1894.66 456.408 1869.06 457.272 1842.94 458.136C1681.66 462.888 1514.75 467.64 1357.06 462.024C1197.82 456.408 1035.01 454.68 890.368 398.736C912.896 374.112 960 368.928 989.44 387.72C994.56 374.76 1019.14 368.496 1031.42 377.352C1039.36 348.84 1070.08 322.488 1103.87 315.792C1137.66 309.096 1175.3 319.68 1197.57 342.144C1212.93 329.184 1240.58 325.728 1259.78 334.368C1273.86 314.496 1303.04 306.072 1324.29 320.76C1331.71 289.224 1359.87 261.792 1395.97 251.856C1432.06 241.92 1474.3 249.912 1501.95 271.728C1513.73 265.032 1534.72 268.056 1545.47 275.832C1571.58 244.08 1634.3 231.984 1674.5 250.344C1680.13 224.856 1709.31 202.608 1737.47 192.24C1765.63 181.872 1799.68 184.032 1825.79 197.856C1832.19 177.12 1858.82 161.352 1880.58 150.552C1892.86 144.504 1906.43 140.832 1920.26 139.536Z" fill="url(#paint1_linear_12_91)"/>
<path d="M565.76 347.544C380.928 387.288 190.208 424.224 0.255981 416.88V149.04C26.112 156.6 48.64 173.016 59.136 194.4C78.848 188.784 100.096 197.208 114.944 209.52C133.12 198.288 160 196.776 181.76 200.664C203.776 204.552 223.488 216.648 234.496 233.064C245.76 230.256 263.68 239.112 266.496 248.832C287.232 232.2 319.744 226.584 347.648 231.984C375.552 237.384 399.616 255.312 409.344 277.992C418.56 274.536 430.08 275.616 438.272 280.584C446.464 285.768 451.072 294.624 450.048 303.048C470.272 295.272 501.248 299.808 521.472 307.368C542.464 314.928 558.592 329.832 565.76 347.544Z" fill="url(#paint2_linear_12_91)"/>
<path d="M1920.26 405.864V1079.78H0.255981V361.152C56.832 328.536 112.384 294.192 179.712 279.072C295.424 253.152 394.752 324.864 506.368 337.392C561.92 343.656 617.216 323.568 673.536 324C771.584 324.648 852.736 386.424 948.992 401.112C1051.14 416.664 1152.26 378 1247.49 344.736C1342.72 311.472 1419.78 289.872 1514.5 324.216C1597.7 354.24 1686.27 421.416 1776.38 433.944C1820.16 439.992 1872.9 413.424 1920.26 405.864Z" fill="url(#paint3_linear_12_91)"/>
<path d="M1920.26 433.728V657.504L1831.68 658.368L1167.1 664.848V555.12C1200.9 528.768 1256.19 525.096 1294.59 546.264C1304.06 530.928 1331.97 524.016 1350.14 532.44C1361.15 505.224 1391.87 488.16 1425.66 486C1459.46 483.84 1494.02 500.04 1509.63 525.528C1527.04 517.968 1554.43 527.472 1567.49 539.568C1593.6 526.608 1637.89 535.248 1651.46 557.928C1659.14 540.864 1678.34 528.984 1698.82 523.152C1719.3 517.32 1742.59 519.696 1761.02 529.416C1764.35 512.352 1794.3 496.584 1812.99 503.712C1816.58 487.08 1827.84 470.88 1842.94 458.136C1852.42 450.144 1863.42 443.88 1875.2 439.776C1889.28 434.808 1904.9 432.648 1920.26 433.728Z" fill="url(#paint4_linear_12_91)"/>
<path d="M1920.26 676.08V1080H0.255981V648.432C144.64 589.464 289.28 530.496 433.664 471.312C435.968 470.448 438.272 469.368 440.576 468.504C444.928 466.776 449.28 465.048 453.376 463.32C508.672 441.072 567.04 419.688 627.2 417.744L629.248 409.968L631.296 417.528C641.024 417.312 650.752 417.744 660.48 418.608C675.84 420.12 690.688 422.928 705.28 426.6L709.632 411.048L714.496 429.192C715.008 429.408 715.52 429.408 716.032 429.624L718.08 421.848L720.64 431.136C752.896 440.856 784.128 454.248 815.872 465.912L818.176 457.704L820.992 467.856C850.176 478.44 879.616 487.08 911.36 489.888C923.648 490.968 936.192 491.184 948.48 490.752L951.808 478.656L955.136 490.536C955.648 490.536 956.16 490.536 956.928 490.536L960.256 478.656L963.328 490.104C996.352 488.16 1029.38 483.408 1061.63 482.76L1064.45 472.824L1065.98 478.872L1071.87 457.056L1077.76 478.44L1080.58 467.856L1084.67 482.976H1082.37C1084.42 482.976 1086.46 483.192 1088.26 483.192L1090.82 473.688L1093.63 483.408C1105.66 484.488 1117.7 486.432 1129.22 489.672L1132.29 478.656L1135.87 491.616C1136.9 492.048 1138.18 492.264 1139.2 492.696L1140.48 487.728L1142.02 493.776C1168.38 503.496 1189.63 520.128 1211.9 535.248C1218.82 540 1225.73 544.536 1232.9 548.64L1233.41 546.696L1234.18 549.504C1236.99 551.016 1239.55 552.528 1242.37 554.04L1245.44 542.592L1248 552.312L1250.05 545.184L1253.89 559.656C1255.42 560.304 1256.96 560.952 1258.5 561.384L1260.54 554.256L1262.85 562.896C1264.9 563.544 1266.94 564.192 1269.25 564.84L1272.06 554.256L1275.39 566.568C1276.16 566.784 1276.67 567 1277.44 567L1278.98 561.816L1280.51 567.648C1316.86 574.992 1354.5 568.08 1392.64 561.384L1395.97 549.288L1399.04 560.304C1400.58 560.088 1402.11 559.656 1403.65 559.44L1407.23 546.48L1410.56 558.36C1431.81 554.904 1453.06 552.096 1474.05 552.312C1498.62 552.744 1521.66 557.28 1543.94 564.624L1545.73 558.36L1547.26 564.408L1549.82 555.336L1553.15 567.648C1560.83 570.456 1568.51 573.48 1575.94 576.72L1577.98 569.16L1580.54 578.88C1619.71 596.592 1656.83 620.136 1695.74 640.224C1709.31 647.136 1723.14 653.832 1737.47 659.448C1761.02 668.736 1785.34 675.648 1811.46 678.456C1817.09 679.104 1822.98 679.32 1828.86 679.536C1848.58 680.4 1868.8 679.104 1889.02 677.808C1899.26 677.16 1909.76 676.512 1920.26 676.08Z" fill="url(#paint5_linear_12_91)"/>
<path d="M1747.71 759.672C1612.8 769.824 1476.1 762.912 1344 738.504C1331.2 736.128 1318.66 733.752 1306.11 731.16C1197.82 708.48 1094.4 674.352 992 637.632L990.72 633.096L989.696 636.768C981.504 633.744 973.312 630.72 965.12 627.912L962.56 617.976L960.256 625.968C960 625.752 959.744 625.752 959.232 625.536L958.208 622.08L957.44 624.888C866.816 591.624 776.704 557.064 684.544 526.608L683.008 521.208L681.728 525.744C680.96 525.528 679.936 525.096 679.168 524.88L676.096 513.864L673.536 523.152C671.232 522.288 668.928 521.64 666.368 520.776L664.576 513.648L663.04 519.48C661.248 518.832 659.712 518.4 657.92 517.752L654.336 504.36L652.288 511.488L649.728 501.984L646.4 514.296C644.096 513.648 641.536 512.784 639.232 511.92L637.696 506.088L636.416 511.056C605.696 501.552 574.208 492.696 542.464 484.488L539.904 474.768L537.6 483.192C532.224 481.896 527.104 480.6 521.728 479.304L517.888 465.696L515.84 472.824L513.28 463.32L509.696 476.712C503.296 475.2 496.896 473.904 490.752 472.392L489.472 467.424L488.192 471.744C486.912 471.528 485.888 471.312 484.608 470.88L480.768 456.624L477.184 469.368C469.504 467.64 461.824 466.128 453.888 464.616L450.56 452.304L447.488 463.32C442.88 462.456 438.272 461.592 433.664 460.728C414.464 457.272 395.008 454.032 375.552 451.44L372.992 441.936L370.688 450.792C369.408 450.576 368.384 450.36 367.104 450.36L364.8 442.152L362.752 449.928C358.4 449.28 354.304 448.848 349.952 448.416L347.648 439.992L345.6 447.984C259.328 438.048 172.544 436.752 88.832 448.416L86.528 439.992L83.968 449.064C81.664 449.28 79.616 449.712 77.312 450.144L75.264 442.8L72.96 450.792C69.632 451.224 66.304 451.872 62.976 452.304L62.464 450.144L61.952 452.52C57.856 453.168 53.76 454.032 49.408 454.68L46.592 444.312L43.776 454.896L37.888 433.512L30.976 458.352C20.48 460.512 10.24 462.888 0 465.696V1080H1920V736.992C1863.42 747.792 1805.82 755.352 1747.71 759.672Z" fill="#DE7E41"/>
<path d="M1262.08 818.208C1254.66 799.848 1235.71 785.376 1214.21 777.6C1190.4 768.96 1166.08 772.2 1140.22 771.984C1125.12 749.52 1097.98 733.968 1068.29 727.704C1055.49 713.232 1035.26 703.512 1014.02 702C992.768 700.272 972.032 709.128 956.16 721.224C936.704 705.672 909.312 697.68 882.688 699.192C856.064 700.92 827.392 709.344 811.008 727.056C796.16 713.232 772.864 709.128 755.968 721.224C733.952 693.576 698.88 673.92 660.224 667.44C621.568 660.96 571.648 668.088 538.88 686.448C523.52 665.496 484.864 660.528 463.104 676.728C450.816 653.184 426.752 633.96 398.336 624.672C369.92 615.384 334.08 615.816 306.176 626.4C298.752 606.744 271.872 590.544 247.808 594C215.04 567.864 162.816 565.92 121.856 581.688C86.528 560.952 43.52 550.584 0.511963 551.016V818.208H1262.08Z" fill="url(#paint6_linear_12_91)"/>
<path d="M1920.26 506.736V1080H540.416C621.568 1052.35 684.032 993.6 752.896 943.92C758.272 940.032 763.904 935.928 769.536 932.256C808.96 905.256 850.944 881.928 899.84 869.832C985.344 848.664 1080.58 865.08 1165.57 842.616C1226.24 826.632 1275.14 792.72 1323.78 758.376C1330.43 753.624 1337.09 748.872 1344 744.336C1346.3 742.824 1348.35 741.312 1350.66 739.8C1388.03 714.096 1426.94 689.904 1472 675.216C1491.2 668.952 1511.17 664.632 1531.39 661.176C1585.66 652.104 1643.01 649.944 1695.74 640.008C1733.38 632.88 1768.45 621.864 1797.89 601.56C1827.33 581.472 1847.55 554.04 1874.94 532.224C1887.74 522.072 1903.36 512.784 1920.26 506.736Z" fill="url(#paint7_linear_12_91)"/>
<path d="M1904.38 956.016C1795.58 917.784 1686.53 879.768 1577.73 841.752C1559.81 835.488 1542.14 829.224 1524.22 822.96C1513.73 819.288 1503.23 815.616 1492.74 811.944L1488.13 795.312L1484.29 809.136C1483.01 808.704 1481.47 808.272 1480.19 807.624L1472 777.816L1465.34 802.44C1460.48 800.712 1455.62 799.2 1450.75 797.472L1445.38 777.6L1440.77 794.016C1437.44 792.936 1434.11 791.856 1430.78 790.776L1421.31 756.432L1416.7 772.848L1410.56 750.6L1402.11 781.704C1396.48 779.976 1390.85 778.248 1385.47 776.52L1382.4 765.504L1379.84 774.792C1361.15 768.96 1342.46 763.56 1323.52 758.376C1272.32 744.336 1225.22 733.968 1178.88 728.136L1176.58 719.28L1174.27 727.488C1160.45 725.76 1146.62 724.464 1132.8 723.816L1125.63 698.112L1121.02 714.528L1114.88 692.28L1106.43 722.952C1092.61 722.736 1078.78 722.736 1064.96 723.384L1059.07 702.216L1053.18 724.032C1052.67 724.032 1052.16 724.032 1051.65 724.032L1038.85 677.16L1025.54 726.192C1020.16 726.624 1014.78 727.272 1009.41 727.92L1006.08 715.824L1002.5 728.784C988.416 730.512 974.08 732.888 959.488 735.48C825.6 760.104 695.04 801.576 560.128 781.704C559.36 781.704 558.848 781.488 558.08 781.272L554.752 768.528L551.68 780.192C533.248 776.952 515.328 772.2 497.92 766.584L488.96 733.752L482.816 756L479.488 743.472L475.392 758.592C400.384 729.648 332.288 683.64 255.232 654.912L252.672 645.192L250.368 653.184C235.008 647.568 219.392 642.816 203.264 638.928L199.168 624.024L195.584 637.2C184.832 634.824 174.08 632.88 162.816 631.584L159.232 618.84L156.672 628.344L149.504 598.32L141.056 628.56C137.216 628.344 133.632 628.128 129.792 627.912L123.392 604.8L116.992 627.912C110.08 627.912 102.912 628.128 95.744 628.56L93.952 622.296L92.16 628.776C82.688 629.424 73.216 630.504 63.232 632.016L56.832 608.472L50.176 632.88L36.608 583.416L20.992 640.656C14.08 642.384 6.912 644.544 0 646.704V1080H1920V961.632C1914.88 959.688 1909.5 957.744 1904.38 956.016Z" fill="url(#paint8_linear_12_91)"/>
<path d="M1920.26 587.52V1030.1H936.448C939.008 1020.6 943.36 1011.53 949.504 1003.1C953.344 997.92 957.44 992.952 962.304 988.416C965.888 985.176 969.472 982.152 973.568 979.56C980.736 974.808 988.416 970.92 997.12 968.76C1010.69 965.304 1026.3 966.6 1037.82 973.512C1039.87 960.768 1052.67 952.128 1067.01 949.536C1075.97 948.024 1100.54 948.888 1105.15 958.392C1105.41 958.824 1105.41 959.256 1105.66 959.688C1105.66 959.256 1105.41 958.824 1105.41 958.392C1101.82 940.464 1118.46 921.888 1138.18 914.112C1158.14 906.12 1181.7 906.984 1203.46 910.656C1211.14 900.936 1220.61 893.592 1232.38 892.08C1236.22 891.648 1240.32 891.648 1244.67 892.512C1251.58 871.776 1275.9 857.304 1300.99 854.064C1326.34 850.824 1353.22 861.192 1367.04 879.336C1388.03 862.488 1423.1 861.84 1444.61 877.824C1468.42 838.296 1525.5 819.288 1577.47 826.2C1579.26 826.416 1581.06 826.632 1582.85 827.064C1582.85 825.984 1582.59 825.12 1582.59 824.04C1580.54 802.872 1587.46 779.76 1604.35 763.992C1605.63 762.696 1606.91 761.616 1608.45 760.536C1629.18 744.336 1659.14 736.992 1686.78 741.312C1690.11 726.624 1704.96 715.608 1721.6 710.424C1734.14 706.32 1748.74 706.968 1761.02 711.504C1764.86 712.8 1768.19 714.744 1771.52 716.904C1772.03 715.824 1772.29 714.96 1773.06 713.88C1782.02 697.032 1807.62 684.072 1827.33 691.416C1827.84 687.312 1828.1 683.424 1828.61 679.32C1829.38 672.192 1830.4 665.28 1831.68 658.152C1834.24 644.976 1838.34 632.232 1846.53 620.136C1861.38 598.536 1891.07 581.904 1920.26 587.52Z" fill="url(#paint9_linear_12_91)"/>
<path d="M1920.26 663.336V1080H0.255981V857.52C64.512 822.96 131.072 791.424 204.032 773.496C212.48 771.336 220.928 769.608 229.376 768.312L243.712 715.608L257.28 765.072C261.376 764.856 265.472 764.424 269.568 764.208L276.736 738.504L282.624 759.672L293.12 721.008L304.896 764.64C331.264 766.368 357.376 770.904 382.72 777.816L386.56 763.56L391.168 780.192C423.424 789.912 454.912 803.304 484.864 819.288C524.288 840.24 564.992 865.296 604.16 888.84C641.536 911.088 679.424 938.952 727.808 937.872C736.256 937.656 744.704 936.792 752.896 935.496C758.528 934.632 763.904 933.552 769.536 932.472C794.624 927.504 819.712 921.024 845.056 923.832C863.488 925.776 880.128 932.256 896 940.248L898.304 932.04L901.376 942.84C905.984 945.216 910.592 947.808 914.944 950.4L926.208 909.144L941.568 965.304C949.504 969.408 957.44 973.296 965.632 976.536C968.192 977.616 971.008 978.48 973.824 979.56C1038.59 1001.38 1113.34 985.608 1180.42 967.248C1214.98 957.744 1249.02 947.808 1283.07 937.008L1297.66 883.872L1309.95 928.368C1312.51 927.504 1315.33 926.64 1317.89 925.776L1323.52 905.256L1328.13 922.32C1413.38 894.024 1496.83 862.056 1578.24 826.2C1580.03 825.552 1581.57 824.688 1583.36 824.04C1618.69 808.488 1653.76 792.072 1688.32 775.224L1691.65 762.912L1693.7 755.784L1695.74 762.912L1697.79 770.688C1703.68 767.88 1709.31 764.856 1715.2 762.048C1721.09 759.024 1726.98 756 1732.86 752.976C1737.98 750.384 1743.36 747.576 1748.48 744.984C1750.27 744.12 1751.81 743.256 1753.6 742.392L1762.05 711.72L1767.68 690.984L1774.08 714.096L1778.43 729.864C1785.86 726.192 1793.54 722.304 1800.96 718.848L1805.31 703.08L1808.64 715.176C1834.5 703.08 1860.86 692.496 1888 684.72L1889.79 678.024L1895.17 657.936L1895.42 657.504L1895.68 657.936L1899.78 672.84L1903.87 657.72L1911.81 628.344L1921.54 657.72V663.336H1920.26Z" fill="url(#paint10_linear_12_91)"/>
<path d="M1853.95 967.464L1826.3 926.64L1807.87 975.24L1794.3 948.24L1779.71 988.2C1777.92 988.2 1776.13 988.416 1774.34 988.416L1755.9 920.16L1747.2 967.032L1729.02 899.856L1712.13 990.576H1711.87L1702.4 960.768L1693.18 991.44C1668.1 992.52 1643.01 993.816 1617.92 995.112L1603.84 961.2L1595.9 985.176L1582.08 942.84L1572.35 995.544L1563.14 972.432L1554.18 998.568C1544.96 999.216 1536 999.648 1526.78 1000.3L1521.66 980.856L1516.8 1000.94C1513.22 1001.16 1509.38 1001.38 1505.79 1001.59L1494.78 960.768L1484.8 1002.89C1476.35 1003.54 1467.65 1003.97 1459.2 1004.62L1452.29 987.768L1445.63 1005.48C1409.02 1008.07 1372.67 1010.88 1336.32 1013.9L1323.26 979.992L1313.02 1011.31L1294.59 970.704L1276.93 1018.87C1269.76 1019.52 1262.85 1020.17 1255.68 1020.82L1247.49 990.576L1241.6 1022.11C1239.3 1022.33 1236.99 1022.54 1234.69 1022.76L1220.61 970.488L1210.37 1024.92C1180.93 1027.73 1151.74 1030.75 1122.56 1033.56L1106.43 1002.46L1095.94 1031.4L1088.51 1011.74L1081.6 1038.1C1044.99 1041.98 1008.9 1046.09 973.312 1050.41L954.624 991.656L937.472 1054.73C929.792 1055.59 922.112 1056.67 914.688 1057.54L910.848 1043.06L905.984 1058.83C892.928 1060.56 879.872 1062.07 866.816 1063.8L840.448 992.088L812.032 1054.94L796.16 1006.34L773.632 1065.31C752.896 1062.72 732.416 1060.13 712.192 1057.54L690.176 999.216L668.416 1052.35C660.992 1051.49 653.568 1050.62 646.4 1049.76L624.64 957.312L601.088 1044.58C599.552 1044.36 598.272 1044.36 596.736 1044.14L582.912 988.416L568.576 1041.12C559.104 1040.04 549.376 1038.96 539.904 1038.1L518.4 975.456L504.064 1011.31L488.96 929.88L467.712 995.328L455.424 958.176L428.032 1024.27L404.224 1024.7C375.552 1022.11 347.648 1019.52 320.768 1017.36L303.104 957.528L288.512 1003.75L261.888 863.352L234.24 969.624L220.416 894.24L189.696 1006.99C188.416 1006.99 187.136 1006.78 185.856 1006.78L160.768 938.088L139.776 979.992L111.36 905.04L68.608 968.112L16.64 771.768C16.64 771.768 9.98398 791.208 0.255981 818.856V1080H1920.26V933.552C1905.66 891.216 1887.74 840.672 1887.74 840.672L1853.95 967.464Z" fill="#2C0C19"/>
</g>
<rect x="0.5" y="0.5" width="1921" height="1079" stroke="black"/>
<rect x="0.5" y="0.5" width="1921" height="1079" stroke="black" stroke-opacity="0.2"/>
</g>
<defs>
<linearGradient id="paint0_linear_12_91" x1="973.398" y1="-0.581905" x2="966.956" y2="371.655" gradientUnits="userSpaceOnUse">
<stop stop-color="#FFC875"/>
<stop offset="1" stop-color="#FFE6C1"/>
</linearGradient>
<linearGradient id="paint1_linear_12_91" x1="1391.16" y1="212.419" x2="1433.67" y2="450.722" gradientUnits="userSpaceOnUse">
<stop stop-color="#FFFAF2"/>
<stop offset="0.3727" stop-color="#FFF0D9" stop-opacity="0.6264"/>
<stop offset="0.7332" stop-color="#FFE9C7" stop-opacity="0.265"/>
<stop offset="0.9975" stop-color="#FFE6C1" stop-opacity="0"/>
</linearGradient>
<linearGradient id="paint2_linear_12_91" x1="305.342" y1="204.762" x2="241.008" y2="380.717" gradientUnits="userSpaceOnUse">
<stop stop-color="#FFFAF2"/>
<stop offset="0.3727" stop-color="#FFF0D9" stop-opacity="0.6264"/>
<stop offset="0.7332" stop-color="#FFE9C7" stop-opacity="0.265"/>
<stop offset="0.9975" stop-color="#FFE6C1" stop-opacity="0"/>
</linearGradient>
<linearGradient id="paint3_linear_12_91" x1="985.228" y1="349.758" x2="977.57" y2="509.499" gradientUnits="userSpaceOnUse">
<stop stop-color="#FFB05C"/>
<stop offset="1" stop-color="#FFC875"/>
</linearGradient>
<linearGradient id="paint4_linear_12_91" x1="1533.16" y1="459.077" x2="1542.88" y2="576.172" gradientUnits="userSpaceOnUse">
<stop stop-color="#FFFAF2"/>
<stop offset="0.9975" stop-color="#FFE6C1" stop-opacity="0"/>
</linearGradient>
<linearGradient id="paint5_linear_12_91" x1="988.532" y1="506.364" x2="979.219" y2="671.916" gradientUnits="userSpaceOnUse">
<stop stop-color="#E8924D"/>
<stop offset="1" stop-color="#FFB05C"/>
</linearGradient>
<linearGradient id="paint6_linear_12_91" x1="662.148" y1="578.614" x2="624.346" y2="760.185" gradientUnits="userSpaceOnUse">
<stop stop-color="#FFFAF2"/>
<stop offset="0.5655" stop-color="#FFEED4" stop-opacity="0.4331"/>
<stop offset="0.9975" stop-color="#FFE6C1" stop-opacity="0"/>
</linearGradient>
<linearGradient id="paint7_linear_12_91" x1="1230.02" y1="792.979" x2="1350.12" y2="1044.57" gradientUnits="userSpaceOnUse">
<stop stop-color="#BF5047"/>
<stop offset="0.879" stop-color="#DE7E42"/>
</linearGradient>
<linearGradient id="paint8_linear_12_91" x1="962.469" y1="589.034" x2="960.422" y2="945.554" gradientUnits="userSpaceOnUse">
<stop stop-color="#912838"/>
<stop offset="1" stop-color="#BF5047"/>
</linearGradient>
<linearGradient id="paint9_linear_12_91" x1="1399.31" y1="746.911" x2="1461.88" y2="933.585" gradientUnits="userSpaceOnUse">
<stop stop-color="#FFFAF2"/>
<stop offset="0.0405511" stop-color="#FFF7EB" stop-opacity="0.9593"/>
<stop offset="0.1865" stop-color="#FFF0D8" stop-opacity="0.8131"/>
<stop offset="0.3576" stop-color="#FFEACB" stop-opacity="0.6415"/>
<stop offset="0.5753" stop-color="#FFE7C3" stop-opacity="0.4232"/>
<stop offset="0.9975" stop-color="#FFE6C1" stop-opacity="0"/>
</linearGradient>
<linearGradient id="paint10_linear_12_91" x1="959.781" y1="847.75" x2="964.7" y2="1153.83" gradientUnits="userSpaceOnUse">
<stop stop-color="#4A1623"/>
<stop offset="0.2084" stop-color="#511825"/>
<stop offset="0.5016" stop-color="#631C2A"/>
<stop offset="0.8435" stop-color="#812433"/>
<stop offset="1" stop-color="#912838"/>
</linearGradient>
<clipPath id="clip0_12_91">
<rect width="1920" height="1080" fill="white"/>
</clipPath>
<clipPath id="clip1_12_91">
<rect width="1922" height="1080" fill="white"/>
</clipPath>
</defs>
</svg>
