<svg width="1920" height="1080" viewBox="0 0 1920 1080" fill="none" xmlns="http://www.w3.org/2000/svg">
<rect x="3" y="3" width="1914" height="1074" fill="white"/>
<rect x="3" y="3" width="1914" height="1074" stroke="#AD4242" stroke-width="6"/>
<g clip-path="url(#clip0_12_55)">
<path d="M1918 -77.2831H0V1120.72H1918V-77.2831Z" fill="url(#paint0_linear_12_55)"/>
<path d="M1942.82 399.717V750.491C1917.24 751.21 1891.67 752.169 1865.58 753.127C1704.47 758.398 1537.73 763.669 1380.2 757.44C1221.14 751.21 1058.49 749.293 914 687.237C936.505 659.923 983.559 654.172 1012.97 675.017C1018.08 660.641 1042.63 653.693 1054.91 663.517C1062.84 631.889 1093.52 602.658 1127.28 595.231C1161.04 587.803 1198.63 599.543 1220.88 624.462C1236.22 610.086 1263.84 606.252 1283.02 615.836C1297.09 593.793 1326.24 584.449 1347.47 600.741C1354.88 565.76 1383.01 535.331 1419.07 524.309C1455.13 513.287 1497.33 522.153 1524.95 546.352C1536.71 538.925 1557.68 542.279 1568.42 550.905C1594.51 515.683 1657.16 502.266 1697.31 522.632C1702.94 494.359 1732.09 469.68 1760.22 458.179C1788.35 446.679 1822.36 449.075 1848.45 464.409C1854.84 441.407 1881.44 423.917 1903.18 411.937C1915.45 405.228 1929.01 401.155 1942.82 399.717Z" fill="url(#paint1_linear_12_55)"/>
<path d="M564.915 647.909C380.275 691.996 189.754 732.967 0 724.821V427.717C25.8291 436.103 48.3336 454.313 58.8187 478.033C78.5101 471.803 99.736 481.148 114.569 494.805C132.726 482.346 159.578 480.669 181.315 484.981C203.308 489.294 222.999 502.712 233.996 520.921C245.248 517.807 263.15 527.63 265.963 538.412C286.677 519.963 319.155 513.733 347.03 519.723C374.905 525.713 398.944 545.6 408.662 570.758C417.868 566.924 429.376 568.122 437.56 573.633C445.743 579.384 450.346 589.207 449.323 598.552C469.526 589.926 500.47 594.958 520.673 603.344C541.643 611.73 557.754 628.262 564.915 647.909Z" fill="url(#paint2_linear_12_55)"/>
<path d="M1920 721.578V1469.13H2V671.98C58.5171 635.801 114.011 597.704 181.269 580.932C296.861 552.18 396.085 631.728 507.585 645.624C563.079 652.573 618.317 630.29 674.579 630.769C772.524 631.488 853.592 700.014 949.748 716.306C1051.79 733.558 1152.8 690.669 1247.93 653.771C1343.07 616.873 1420.04 592.913 1514.66 631.009C1597.78 664.313 1686.26 738.829 1776.28 752.726C1820.01 759.434 1872.69 729.964 1920 721.578Z" fill="url(#paint3_linear_12_55)"/>
<path d="M1920.37 694.019V942.244L1831.88 943.203L1168 950.391V828.674C1201.76 799.443 1257 795.369 1295.36 818.85C1304.82 801.839 1332.69 794.171 1350.85 803.516C1361.85 773.326 1392.53 754.398 1426.29 752.002C1460.05 749.606 1494.57 767.576 1510.17 795.849C1527.56 787.463 1554.92 798.005 1567.97 811.423C1594.05 797.047 1638.29 806.631 1651.85 831.789C1659.52 812.86 1678.7 799.682 1699.16 793.213C1719.62 786.744 1742.89 789.379 1761.3 800.161C1764.63 781.233 1794.55 763.742 1813.22 771.649C1816.8 753.2 1828.05 735.23 1843.14 721.093C1852.6 712.228 1863.59 705.28 1875.36 700.727C1889.42 695.217 1905.02 692.821 1920.37 694.019Z" fill="url(#paint4_linear_12_55)"/>
<path d="M1942 1043.9V1491.96H24V1013.24C168.234 947.825 312.723 882.414 456.957 816.763C459.258 815.805 461.56 814.607 463.861 813.648C468.209 811.732 472.556 809.815 476.648 807.898C531.886 783.219 590.194 759.499 650.291 757.342L652.337 748.717L654.383 757.103C664.101 756.863 673.818 757.343 683.536 758.301C698.88 759.978 713.713 763.093 728.29 767.166L732.637 749.915L737.496 770.041C738.007 770.281 738.519 770.281 739.03 770.52L741.076 761.895L743.634 772.198C775.856 782.98 807.055 797.835 838.766 810.773L841.068 801.668L843.881 812.93C873.035 824.67 902.444 834.254 934.155 837.369C946.43 838.567 958.961 838.807 971.236 838.327L974.561 824.91L977.885 838.088C978.397 838.088 978.908 838.088 979.675 838.088L983 824.91L986.069 837.609C1019.06 835.452 1052.05 830.181 1084.27 829.462L1087.08 818.44L1088.62 825.149L1094.5 800.95L1100.38 824.67L1103.19 812.93L1107.29 829.702H1104.98C1107.03 829.702 1109.08 829.941 1110.87 829.941L1113.42 819.399L1116.24 830.181C1128.26 831.379 1140.28 833.535 1151.78 837.129L1154.85 824.91L1158.43 839.286C1159.46 839.765 1160.73 840.005 1161.76 840.484L1163.04 834.973L1164.57 841.682C1190.91 852.464 1212.14 870.913 1234.39 887.685C1241.29 892.956 1248.2 897.988 1255.36 902.54L1255.87 900.384L1256.63 903.499C1259.45 905.176 1262.01 906.853 1264.82 908.53L1267.89 895.831L1270.44 906.613L1272.49 898.707L1276.33 914.76C1277.86 915.479 1279.39 916.197 1280.93 916.677L1282.98 908.77L1285.28 918.354C1287.32 919.073 1289.37 919.791 1291.67 920.51L1294.48 908.77L1297.81 922.427C1298.57 922.666 1299.09 922.906 1299.85 922.906L1301.39 917.156L1302.92 923.625C1339.24 931.771 1376.83 924.104 1414.93 916.677L1418.26 903.259L1421.33 915.479C1422.86 915.239 1424.4 914.76 1425.93 914.52L1429.51 900.144L1432.83 913.322C1454.06 909.489 1475.29 906.374 1496.26 906.613C1520.81 907.093 1543.82 912.124 1566.07 920.271L1567.86 913.322L1569.4 920.031L1571.95 909.968L1575.28 923.625C1582.95 926.74 1590.62 930.094 1598.04 933.688L1600.08 925.302L1602.64 936.084C1641.77 955.731 1678.85 981.848 1717.72 1004.13C1731.28 1011.8 1745.09 1019.23 1759.41 1025.45C1782.93 1035.76 1807.23 1043.42 1833.31 1046.54C1838.94 1047.26 1844.82 1047.5 1850.7 1047.74C1870.39 1048.7 1890.6 1047.26 1910.8 1045.82C1921.03 1045.1 1931.51 1044.38 1942 1043.9Z" fill="url(#paint5_linear_12_55)"/>
<path d="M1747.89 1063.51C1613.12 1074.77 1476.56 1067.11 1344.6 1040.03C1331.81 1037.4 1319.28 1034.76 1306.75 1031.89C1198.58 1006.73 1095.26 968.871 992.967 928.139L991.688 923.107L990.665 927.181C982.482 923.826 974.298 920.472 966.115 917.357L963.557 906.335L961.256 915.201C961 914.961 960.744 914.961 960.233 914.721L959.21 910.888L958.443 914.003C867.913 877.104 777.895 838.768 685.831 804.985L684.297 798.995L683.018 804.026C682.251 803.787 681.228 803.307 680.461 803.068L677.392 790.848L674.834 801.151C672.533 800.193 670.231 799.474 667.674 798.515L665.884 790.609L664.349 797.078C662.559 796.359 661.025 795.88 659.235 795.161L655.654 780.306L653.609 788.213L651.051 777.67L647.727 791.327C645.425 790.609 642.868 789.65 640.566 788.692L639.032 782.223L637.753 787.733C607.065 777.191 575.61 767.367 543.899 758.263L541.342 747.481L539.04 756.825C533.67 755.387 528.555 753.95 523.185 752.512L519.349 737.417L517.303 745.324L514.745 734.782L511.165 749.637C504.772 747.96 498.378 746.522 492.241 744.845L490.962 739.334L489.683 744.126C488.405 743.887 487.382 743.647 486.103 743.168L482.267 727.354L478.687 741.491C471.015 739.574 463.343 737.897 455.415 736.219L452.091 722.562L449.022 734.782C444.419 733.823 439.815 732.865 435.212 731.907C416.032 728.073 396.597 724.479 377.161 721.604L374.603 711.061L372.302 720.885C371.023 720.645 370 720.406 368.722 720.406L366.42 711.301L364.374 719.927C360.027 719.208 355.935 718.729 351.587 718.249L349.286 708.905L347.24 717.77C261.058 706.749 174.364 705.311 90.7395 718.249L88.4379 708.905L85.8805 718.968C83.5789 719.208 81.5331 719.687 79.2315 720.166L77.1856 712.02L74.884 720.885C71.5595 721.364 68.2349 722.083 64.9104 722.562L64.3989 720.166L63.8875 722.802C59.7957 723.521 55.704 724.479 51.3565 725.198L48.5435 713.697L45.7304 725.437L39.8485 701.717L32.9437 729.271C22.4587 731.667 12.2293 734.303 2 737.417V1418.84H1920V1038.35C1863.48 1050.33 1805.94 1058.72 1747.89 1063.51Z" fill="#DE7E41"/>
<path d="M1260.25 1022.12C1252.84 1001.75 1233.91 985.697 1212.43 977.072C1188.65 967.488 1164.35 971.082 1138.52 970.842C1123.44 945.924 1096.33 928.672 1066.66 921.724C1053.88 905.671 1033.67 894.889 1012.45 893.212C991.222 891.295 970.508 901.118 954.653 914.536C935.217 897.285 907.853 888.42 881.257 890.097C854.661 892.014 826.019 901.358 809.652 921.005C794.819 905.671 771.548 901.118 754.669 914.536C732.676 883.867 697.641 862.064 659.025 854.876C620.409 847.688 570.541 855.594 537.807 875.96C522.463 852.719 483.847 847.208 462.11 865.178C449.835 839.062 425.796 817.738 397.41 807.435C369.023 797.132 333.221 797.611 305.346 809.352C297.929 787.548 271.077 769.578 247.038 773.412C214.305 744.42 162.135 742.264 121.218 759.754C85.9264 736.753 42.9632 725.252 0 725.731V1022.12H1260.25Z" fill="url(#paint6_linear_12_55)"/>
<path d="M1917.84 661.156V1297.05H539.438C620.505 1266.39 682.904 1201.21 751.696 1146.11C757.067 1141.79 762.693 1137.24 768.319 1133.17C807.702 1103.22 849.642 1077.34 898.487 1063.92C983.902 1040.44 1079.03 1058.65 1163.94 1033.73C1224.55 1016 1273.39 978.386 1321.98 940.29C1328.63 935.019 1335.28 929.747 1342.18 924.716C1344.49 923.039 1346.53 921.361 1348.83 919.684C1386.17 891.172 1425.04 864.337 1470.05 848.044C1489.23 841.095 1509.18 836.303 1529.38 832.47C1583.6 822.407 1640.88 820.011 1693.56 808.989C1731.15 801.082 1766.19 788.863 1795.6 766.34C1825.01 744.057 1845.21 713.628 1872.58 689.429C1885.36 678.167 1900.96 667.865 1917.84 661.156Z" fill="url(#paint7_linear_12_55)"/>
<path d="M1903.4 1114.73C1794.71 1072.32 1685.77 1030.15 1577.08 987.979C1559.18 981.03 1541.54 974.082 1523.64 967.133C1513.15 963.06 1502.66 958.987 1492.18 954.914L1487.58 936.465L1483.74 951.799C1482.46 951.32 1480.93 950.841 1479.65 950.122L1471.47 917.057L1464.82 944.371C1459.96 942.455 1455.1 940.777 1450.24 938.861L1444.87 916.817L1440.27 935.027C1436.94 933.829 1433.62 932.631 1430.29 931.433L1420.83 893.337L1416.23 911.546L1410.09 886.867L1401.65 921.37C1396.02 919.453 1390.4 917.536 1385.03 915.619L1381.96 903.4L1379.4 913.703C1360.73 907.233 1342.06 901.243 1323.14 895.493C1271.99 879.919 1224.94 868.418 1178.65 861.949L1176.35 852.125L1174.05 861.23C1160.24 859.313 1146.43 857.876 1132.62 857.157L1125.46 828.645L1120.86 846.854L1114.72 822.175L1106.28 856.199C1092.47 855.959 1078.66 855.959 1064.85 856.678L1058.97 833.197L1053.09 857.397C1052.57 857.397 1052.06 857.397 1051.55 857.397L1038.76 805.403L1025.47 859.793C1020.1 860.272 1014.73 860.991 1009.36 861.709L1006.03 848.292L1002.45 862.668C988.385 864.585 974.064 867.22 959.487 870.095C825.739 897.41 695.315 943.413 560.543 921.37C559.776 921.37 559.265 921.13 558.498 920.891L555.173 906.754L552.104 919.693C533.691 916.099 515.79 910.827 498.4 904.598L489.45 868.179L483.312 892.857L479.987 878.961L475.896 895.733C400.966 863.626 332.941 812.591 255.965 780.725L253.408 769.943L251.106 778.808C235.762 772.578 220.162 767.307 204.051 762.994L199.959 746.462L196.379 761.077C185.638 758.442 174.898 756.285 163.645 754.848L160.065 740.711L157.508 751.254L150.347 717.949L141.908 751.493C138.072 751.254 134.492 751.014 130.656 750.775L124.262 725.137L117.869 750.775C110.964 750.775 103.804 751.014 96.6432 751.493L94.853 744.545L93.0629 751.733C83.6008 752.452 74.1386 753.65 64.165 755.327L57.7717 729.211L51.1226 756.285L37.5688 701.417L21.969 764.911C15.0642 766.828 7.9037 769.224 0.998901 771.62V1252.26H1919V1120.96C1913.88 1118.8 1908.51 1116.64 1903.4 1114.73Z" fill="url(#paint8_linear_12_55)"/>
<path d="M1919.25 705.969V1196.91H936.472C939.029 1186.37 943.376 1176.3 949.514 1166.96C953.35 1161.21 957.442 1155.7 962.301 1150.67C965.881 1147.07 969.461 1143.72 973.553 1140.84C980.713 1135.57 988.385 1131.26 997.08 1128.86C1010.63 1125.03 1026.23 1126.47 1037.74 1134.13C1039.79 1120 1052.57 1110.41 1066.9 1107.54C1075.85 1105.86 1100.4 1106.82 1105 1117.36C1105.26 1117.84 1105.26 1118.32 1105.51 1118.8C1105.51 1118.32 1105.26 1117.84 1105.26 1117.36C1101.68 1097.48 1118.3 1076.87 1137.99 1068.24C1157.94 1059.38 1181.46 1060.34 1203.2 1064.41C1210.87 1053.63 1220.34 1045.48 1232.1 1043.81C1235.94 1043.33 1240.03 1043.33 1244.37 1044.28C1251.28 1021.28 1275.57 1005.23 1300.64 1001.64C1325.95 998.042 1352.81 1009.54 1366.62 1029.67C1387.59 1010.98 1422.62 1010.26 1444.1 1027.99C1467.89 984.145 1524.91 963.06 1576.83 970.727C1578.62 970.967 1580.41 971.207 1582.2 971.686C1582.2 970.488 1581.94 969.529 1581.94 968.331C1579.9 944.851 1586.8 919.213 1603.68 901.723C1604.96 900.285 1606.24 899.087 1607.77 897.889C1628.49 879.919 1658.41 871.773 1686.03 876.565C1689.35 860.272 1704.18 848.052 1720.81 842.302C1733.34 837.749 1747.91 838.468 1760.19 843.5C1764.02 844.937 1767.35 847.094 1770.67 849.49C1771.19 848.292 1771.44 847.333 1772.21 846.135C1781.16 827.447 1806.73 813.071 1826.42 821.217C1826.94 816.665 1827.19 812.352 1827.7 807.799C1828.47 799.893 1829.49 792.225 1830.77 784.319C1833.33 769.703 1837.42 755.567 1845.6 742.149C1860.44 718.189 1890.1 699.74 1919.25 705.969Z" fill="url(#paint9_linear_12_55)"/>
<path d="M1919 764.636V1226.82H0.998901V980.036C65.188 941.7 131.679 906.719 204.563 886.832C213.002 884.436 221.441 882.519 229.88 881.081L244.201 822.619L257.755 877.487C261.847 877.248 265.939 876.769 270.03 876.529L277.191 848.017L283.073 871.497L293.558 828.609L305.322 877.008C331.662 878.925 357.747 883.957 383.065 891.624L386.901 875.81L391.504 894.259C423.726 905.041 455.181 919.897 485.102 937.627C524.485 960.868 565.147 988.662 604.274 1014.78C641.611 1039.46 679.459 1070.37 727.793 1069.17C736.232 1068.93 744.671 1067.97 752.855 1066.53C758.481 1065.57 763.852 1064.38 769.478 1063.18C794.539 1057.67 819.601 1050.48 844.919 1053.59C863.332 1055.75 879.954 1062.94 895.81 1071.8L898.111 1062.7L901.18 1074.68C905.784 1077.31 910.387 1080.19 914.734 1083.06L925.986 1037.3L941.33 1099.6C949.258 1104.15 957.186 1108.46 965.369 1112.06C967.927 1113.25 970.74 1114.21 973.553 1115.41C1038.25 1139.61 1112.93 1122.12 1179.93 1101.75C1214.45 1091.21 1248.47 1080.19 1282.48 1068.21L1297.06 1009.27L1309.33 1058.62C1311.89 1057.67 1314.7 1056.71 1317.26 1055.75L1322.88 1032.99L1327.49 1051.92C1412.65 1020.53 1496.02 985.068 1577.34 945.294C1579.13 944.575 1580.66 943.617 1582.45 942.898C1617.75 925.647 1652.78 907.437 1687.3 888.749L1690.63 875.091L1692.68 867.185L1694.72 875.091L1696.77 883.717C1702.65 880.602 1708.27 877.248 1714.16 874.133C1720.04 870.779 1725.92 867.424 1731.8 864.07C1736.92 861.195 1742.29 858.08 1747.4 855.205C1749.19 854.246 1750.73 853.288 1752.52 852.329L1760.96 818.306L1766.58 795.305L1772.98 820.942L1777.32 838.433C1784.74 834.359 1792.41 830.047 1799.83 826.213L1804.17 808.722L1807.5 822.14C1833.33 808.722 1859.67 796.982 1886.78 788.356L1888.57 780.929L1893.94 758.646L1894.19 758.167L1894.45 758.646L1898.54 775.178L1902.63 758.406L1910.56 725.821L1920.28 758.406V764.636H1919Z" fill="url(#paint10_linear_12_55)"/>
<path d="M1007.2 382.6C1007.2 380.56 1006.57 378.569 1005.4 376.9C1004.3 375.4 1002.5 374.7 1000 374.6H995.9V392.4H1001C1005.3 392.5 1007.4 389.2 1007.2 382.6ZM1104.8 471.8C1101.8 448.9 1078.1 449.3 1050.3 455.1C1051.6 437.9 1054 410.7 1056.3 398.9C1060.2 378.7 1071.1 318.2 1071.1 318.2H1070.7C1070.7 307.6 1030.8 299 981.7 299C932.6 299 892.7 307.6 892.7 318.2C892.693 318.683 892.796 319.162 893 319.6C893 319.6 904 379.1 907.9 398.9C910.2 410.7 912.6 437.9 913.9 455.1C886.1 449.3 862.4 448.9 859.4 471.8C857.2 488.9 871.9 515.1 982.1 515.1C1092.3 515.1 1107 488.9 1104.8 471.8ZM975.3 381.8C975.295 380.898 975.501 380.008 975.9 379.2C976.922 377.145 978.567 375.465 980.6 374.4C982.6 373.3 985.5 372.7 989.3 372.7H1003.5C1006.29 372.645 1009.01 373.564 1011.2 375.3C1013.4 377.1 1014.5 379.7 1014.5 383.2C1014.49 385.539 1013.91 387.841 1012.8 389.9C1011.69 391.826 1010.01 393.362 1008 394.3L1017.8 409.8C1023.6 418.5 1028.6 423.2 1032.8 424C1028.7 424.3 1025.8 424.4 1024.1 424C1020.4 423.3 1016.8 420.9 1013.3 416.6C1011.82 414.772 1010.48 412.833 1009.3 410.8C1008.1 408.8 1006.2 405.8 1003.6 401.8L999.4 395.3H995.9V405.3C995.892 405.922 996.033 406.538 996.311 407.094C996.59 407.651 996.997 408.133 997.5 408.5C998.284 409.219 999.254 409.704 1000.3 409.9V411.6H983.7V409.9C984.746 409.704 985.716 409.219 986.5 408.5C986.997 408.127 987.4 407.644 987.678 407.089C987.955 406.533 988.1 405.921 988.1 405.3V375.5L987.8 374.7C987.721 374.595 987.61 374.518 987.484 374.482C987.357 374.446 987.222 374.452 987.1 374.5C985.535 374.698 984.105 375.485 983.1 376.7C982.198 377.915 981.707 379.387 981.7 380.9C981.681 382.331 981.918 383.753 982.4 385.1C982.536 385.648 982.785 386.161 983.129 386.609C983.473 387.056 983.906 387.428 984.4 387.7C982.994 388.215 981.486 388.386 980 388.2C978.957 388.06 977.98 387.607 977.2 386.9C976.44 386.318 975.881 385.514 975.6 384.6C975.303 383.698 975.201 382.744 975.3 381.8ZM933.3 405.4L934.2 389.8C934.5 390.7 934.9 391.6 935.3 392.5C935.698 393.612 936.2 394.683 936.8 395.7C937 396.2 937.6 397.3 938.4 398.8C939.014 400.03 939.787 401.173 940.7 402.2L943.4 405C944.349 406.059 945.506 406.91 946.8 407.5C947.9 408 949.3 408.4 950.8 408.9C952.44 409.269 954.119 409.437 955.8 409.4C957.335 409.367 958.837 408.947 960.166 408.177C961.495 407.408 962.607 406.315 963.4 405C964.291 403.699 964.872 402.212 965.097 400.651C965.322 399.091 965.187 397.5 964.7 396C964.233 394.2 962.633 392.5 959.9 390.9C956.671 389.002 953.332 387.299 949.9 385.8C946.805 384.528 943.827 382.989 941 381.2C938.388 379.51 936.226 377.211 934.7 374.5C933.297 372.266 932.697 369.621 933 367C933.317 364.495 934.282 362.117 935.8 360.1C937.3 357.9 939.8 356.2 943.2 354.9C946.972 353.495 950.976 352.816 955 352.9C964.2 352.9 970.8 354.9 975 358.9L974.3 371.1L971.8 367.3L967.9 362.5C966.2 360.584 964.168 358.991 961.9 357.8C959.754 356.623 957.347 356.004 954.9 356C953.769 355.995 952.648 356.213 951.601 356.642C950.554 357.071 949.602 357.703 948.8 358.5C947.942 359.207 947.248 360.092 946.764 361.093C946.281 362.094 946.02 363.188 946 364.3C945.995 365.624 946.29 366.933 946.861 368.127C947.433 369.322 948.266 370.372 949.3 371.2C951.507 373.217 954.09 374.78 956.9 375.8C959.7 376.9 962.9 378.3 966.4 379.9C969.301 381.217 972.023 382.897 974.5 384.9C976.512 386.609 977.916 388.925 978.5 391.5C979.101 393.828 979.101 396.272 978.5 398.6C977.94 400.785 976.992 402.851 975.7 404.7C971.9 410 965.2 412.6 955.5 412.6C950.929 412.67 946.374 412.029 942 410.7C938.693 409.71 935.697 407.884 933.3 405.4ZM1047 488.9C1047 488.9 1019.6 492 1008.4 491.2C995.2 490.3 983.2 483.6 970.9 478.8C963.5 476 945.2 466.4 945.2 466.4L1048.3 463.1L1047 488.9ZM859 515H873.9L887.3 578.9L900.2 528.4H914.8V531.1C913.8 531.1 912.7 531.7 911.4 533.1C910.226 534.5 909.588 536.273 909.6 538.1V587.9C909.54 589.735 910.184 591.524 911.4 592.9C912.7 594.3 913.8 595 914.8 595V597.6H895V595C896 595 897.1 594.3 898.4 592.9C899.616 591.524 900.26 589.735 900.2 587.9V550.7C898.6 555.9 896.1 563.7 892.9 574.1L885.6 597.6H883.2L875.6 574C872.3 563.5 869.7 535.1 868 529.9V587.9C867.978 589.747 868.657 591.534 869.9 592.9C871.1 594.3 872.3 595 873.3 595V597.6H859V595C860 595 861.1 594.3 862.3 592.9C862.948 592.245 863.452 591.462 863.779 590.601C864.106 589.74 864.25 588.82 864.2 587.9V526.4C864.25 525.48 864.106 524.56 863.779 523.699C863.452 522.838 862.948 522.055 862.3 521.4C861.1 520.1 860 519.4 859 519.4V515ZM919.7 535.6H939.5V538.3C938.5 538.3 937.3 539 936.1 540.4C934.835 541.833 934.157 543.689 934.2 545.6V587.7C934.2 589.573 934.875 591.383 936.1 592.8C937.3 594.2 938.5 594.9 939.5 594.9V597.6H919.7V594.9C920.7 594.9 921.8 594.2 923 592.8C923.646 592.123 924.147 591.322 924.474 590.445C924.801 589.569 924.946 588.634 924.9 587.7V545.6C924.942 544.651 924.796 543.703 924.47 542.81C924.144 541.918 923.644 541.098 923 540.4C921.8 539 920.7 538.3 919.7 538.3V535.6ZM942.7 535.6H962.4V538.3C961.4 538.3 960.3 539 959.1 540.4C958.456 541.098 957.956 541.918 957.63 542.81C957.304 543.703 957.158 544.651 957.2 545.6V594.4H968.7C969.942 594.385 971.168 594.112 972.3 593.6C973.484 593.063 974.516 592.238 975.3 591.2L977.4 588.5C978.064 587.488 978.633 586.417 979.1 585.3L980.2 583.1L979.7 597.6H942.7V594.9C943.7 594.9 944.8 594.2 946 592.8C946.646 592.123 947.147 591.322 947.474 590.445C947.801 589.569 947.946 588.634 947.9 587.7V545.6C947.942 544.651 947.796 543.703 947.47 542.81C947.144 541.918 946.644 541.098 946 540.4C944.8 539 943.7 538.3 942.7 538.3V535.6ZM972.1 535.6H1013.9L1014.9 550.1C1013.9 548.1 1011.9 545.9 1009 543.5C1006.1 541.1 1000.8 539.9 997.7 539.9V587.7C997.654 588.634 997.799 589.569 998.126 590.445C998.453 591.322 998.954 592.123 999.6 592.8C1000.8 594.2 1002 594.9 1003 594.9V597.6H983.2V594.9C984.2 594.9 985.4 594.2 986.6 592.8C987.246 592.123 987.747 591.322 988.074 590.445C988.401 589.569 988.546 588.634 988.5 587.7V540H986.1C982.785 540.088 979.603 541.325 977.1 543.5C974.2 545.8 972.2 547.9 971.2 549.9L972.1 535.6ZM1021.9 544.7C1026.4 538.7 1031.7 535.6 1038 535.6C1044.3 535.6 1049.6 538.7 1054 544.7C1058.4 550.7 1060.7 558 1060.7 566.6C1060.7 575.2 1058.5 582.4 1054 588.5C1049.5 594.6 1044.3 597.6 1038 597.6C1031.7 597.6 1026.4 594.6 1021.9 588.5C1017.4 582.4 1015.2 575.1 1015.2 566.6C1015.2 558.1 1017.4 550.7 1021.9 544.7ZM1046.5 546.5C1044.3 541.8 1041.4 539.5 1038 539.5C1034.6 539.5 1031.7 541.8 1029.5 546.5C1027.3 551.2 1026.1 557.9 1026.1 566.6C1026.1 575.3 1027.2 581.9 1029.5 586.7C1031.8 591.5 1034.5 593.8 1038 593.8C1041.5 593.8 1044.3 591.4 1046.5 586.7C1048.7 582 1049.8 575.2 1049.8 566.6C1049.8 558 1048.7 551.2 1046.5 546.5ZM1074 528.2L1097.7 577.7V526.2C1097.7 524.387 1097.02 522.641 1095.8 521.3C1094.5 520 1093.4 519.3 1092.4 519.3V515H1106.6V519.3C1105.93 519.385 1105.28 519.607 1104.69 519.951C1104.11 520.294 1103.6 520.753 1103.2 521.3C1102.56 521.939 1102.06 522.706 1101.73 523.549C1101.41 524.393 1101.26 525.296 1101.3 526.2V597.6H1097.4L1069.5 549.5V588.1C1069.46 588.995 1069.6 589.889 1069.91 590.73C1070.22 591.571 1070.69 592.342 1071.3 593C1072.6 594.3 1073.7 595 1074.7 595V597.6H1060.6V595C1061.6 595 1062.7 594.3 1064 593C1064.61 592.342 1065.08 591.571 1065.39 590.73C1065.7 589.889 1065.84 588.995 1065.8 588.1V546.4C1065.8 544.4 1065.3 534.1 1064.1 532.8C1063.27 531.713 1062.05 530.994 1060.7 530.8V528.2H1074Z" fill="white"/>
</g>
<defs>
<linearGradient id="paint0_linear_12_55" x1="972.128" y1="-77.9286" x2="964.193" y2="334.95" gradientUnits="userSpaceOnUse">
<stop stop-color="#FFC875"/>
<stop offset="1" stop-color="#FFE6C1"/>
</linearGradient>
<linearGradient id="paint1_linear_12_55" x1="1414.27" y1="480.563" x2="1466.25" y2="743.017" gradientUnits="userSpaceOnUse">
<stop stop-color="#FFFAF2"/>
<stop offset="0.3727" stop-color="#FFF0D9" stop-opacity="0.6264"/>
<stop offset="0.7332" stop-color="#FFE9C7" stop-opacity="0.265"/>
<stop offset="0.9975" stop-color="#FFE6C1" stop-opacity="0"/>
</linearGradient>
<linearGradient id="paint2_linear_12_55" x1="304.768" y1="489.527" x2="227.645" y2="679.487" gradientUnits="userSpaceOnUse">
<stop stop-color="#FFFAF2"/>
<stop offset="0.3727" stop-color="#FFF0D9" stop-opacity="0.6264"/>
<stop offset="0.7332" stop-color="#FFE9C7" stop-opacity="0.265"/>
<stop offset="0.9975" stop-color="#FFE6C1" stop-opacity="0"/>
</linearGradient>
<linearGradient id="paint3_linear_12_55" x1="985.946" y1="659.342" x2="976.518" y2="836.441" gradientUnits="userSpaceOnUse">
<stop stop-color="#FFB05C"/>
<stop offset="1" stop-color="#FFC875"/>
</linearGradient>
<linearGradient id="paint4_linear_12_55" x1="1533.67" y1="722.137" x2="1545.62" y2="851.819" gradientUnits="userSpaceOnUse">
<stop stop-color="#FFFAF2"/>
<stop offset="0.9975" stop-color="#FFE6C1" stop-opacity="0"/>
</linearGradient>
<linearGradient id="paint5_linear_12_55" x1="1011.25" y1="855.645" x2="999.784" y2="1039.15" gradientUnits="userSpaceOnUse">
<stop stop-color="#E8924D"/>
<stop offset="1" stop-color="#FFB05C"/>
</linearGradient>
<linearGradient id="paint6_linear_12_55" x1="660.947" y1="756.345" x2="614.831" y2="955.823" gradientUnits="userSpaceOnUse">
<stop stop-color="#FFFAF2"/>
<stop offset="0.5655" stop-color="#FFEED4" stop-opacity="0.4331"/>
<stop offset="0.9975" stop-color="#FFE6C1" stop-opacity="0"/>
</linearGradient>
<linearGradient id="paint7_linear_12_55" x1="1228.32" y1="978.674" x2="1370.12" y2="1246.18" gradientUnits="userSpaceOnUse">
<stop stop-color="#BF5047"/>
<stop offset="0.879" stop-color="#DE7E42"/>
</linearGradient>
<linearGradient id="paint8_linear_12_55" x1="962.465" y1="707.649" x2="959.944" y2="1103.12" gradientUnits="userSpaceOnUse">
<stop stop-color="#912838"/>
<stop offset="1" stop-color="#BF5047"/>
</linearGradient>
<linearGradient id="paint9_linear_12_55" x1="1398.85" y1="882.775" x2="1474.15" y2="1085.08" gradientUnits="userSpaceOnUse">
<stop stop-color="#FFFAF2"/>
<stop offset="0.0405511" stop-color="#FFF7EB" stop-opacity="0.9593"/>
<stop offset="0.1865" stop-color="#FFF0D8" stop-opacity="0.8131"/>
<stop offset="0.3576" stop-color="#FFEACB" stop-opacity="0.6415"/>
<stop offset="0.5753" stop-color="#FFE7C3" stop-opacity="0.4232"/>
<stop offset="0.9975" stop-color="#FFE6C1" stop-opacity="0"/>
</linearGradient>
<linearGradient id="paint10_linear_12_55" x1="959.525" y1="969.198" x2="965.583" y2="1308.7" gradientUnits="userSpaceOnUse">
<stop stop-color="#4A1623"/>
<stop offset="0.2084" stop-color="#511825"/>
<stop offset="0.5016" stop-color="#631C2A"/>
<stop offset="0.8435" stop-color="#812433"/>
<stop offset="1" stop-color="#912838"/>
</linearGradient>
<clipPath id="clip0_12_55">
<rect width="1918" height="1080" fill="white"/>
</clipPath>
</defs>
</svg>
