<?xml version="1.0" encoding="utf-8"?>
<!-- Generator: Adobe Illustrator 24.0.2, SVG Export Plug-In . SVG Version: 6.00 Build 0)  -->
<svg version="1.0" id="Capa_1" xmlns="http://www.w3.org/2000/svg" xmlns:xlink="http://www.w3.org/1999/xlink" x="0px" y="0px"
	 viewBox="0 0 600 600" style="enable-background:new 0 0 600 600;" xml:space="preserve">
<style type="text/css">
	.st0{fill:#D9E021;}
	.st1{fill:#A67C52;}
	.st2{fill:#FFFFFF;}
	.st3{fill:#39B54A;}
	.st4{fill:#C1272D;}
	.st5{fill:none;}
</style>
<g>
	<rect x="300" class="st0" width="300" height="300"/>
	<g>
		<g>
			<path d="M461.86,110.06c-0.04-0.86-0.27-1.58-0.68-2.14c-0.41-0.56-1.09-0.85-2.03-0.86h-0.62c-0.47,0-0.79,0.01-0.95,0.02v6.75
				h1.93C461.14,113.82,461.93,112.57,461.86,110.06z"/>
			<path d="M498.68,143.72c-1.12-8.64-10.06-8.46-20.58-6.27c0.52-6.49,1.42-16.79,2.28-21.22c1.48-7.62,5.57-30.47,5.57-30.47
				h-0.15c0-4-15.04-7.23-33.58-7.23c-18.54,0-33.58,3.24-33.58,7.23c0,0.19,0.04,0.37,0.11,0.55c0,0,4.17,22.43,5.62,29.91
				c0.86,4.44,1.77,14.74,2.28,21.23c-10.52-2.19-19.46-2.37-20.58,6.27c-0.84,6.49,4.7,16.35,46.3,16.35
				C493.98,160.06,499.51,150.2,498.68,143.72z M449.8,109.76c0.03-0.36,0.11-0.69,0.25-0.98c0.4-0.8,0.99-1.4,1.76-1.81
				c0.77-0.41,1.87-0.63,3.27-0.66l0.02-0.02h5.37c1.12,0,2.09,0.33,2.9,1c0.82,0.67,1.22,1.66,1.22,2.97
				c0,0.95-0.21,1.79-0.64,2.54c-0.43,0.75-1.03,1.29-1.8,1.64c1.95,3.08,3.18,5.03,3.71,5.84c2.2,3.29,4.08,5.08,5.66,5.37
				c-1.55,0.14-2.65,0.14-3.3,0.02c-1.41-0.26-2.76-1.2-4.06-2.82c-0.48-0.6-0.99-1.32-1.51-2.16c-0.47-0.75-1.19-1.89-2.17-3.4
				c-0.97-1.52-1.5-2.34-1.59-2.48h-1.33v3.78c0,0.48,0.2,0.88,0.6,1.21c0.4,0.33,0.76,0.5,1.08,0.51v0.64h-6.28v-0.64
				c0.32-0.01,0.67-0.19,1.07-0.51c0.39-0.33,0.59-0.73,0.59-1.21v-11.21c-0.01-0.14-0.05-0.24-0.1-0.31
				c-0.06-0.07-0.15-0.1-0.27-0.08c-0.64,0.1-1.13,0.38-1.48,0.86c-0.35,0.48-0.54,1-0.55,1.56c-0.01,0.56,0.07,1.1,0.26,1.6
				c0.19,0.51,0.45,0.84,0.78,0.99c-0.65,0.19-1.2,0.25-1.66,0.17c-0.46-0.08-0.82-0.24-1.09-0.48c-0.27-0.25-0.46-0.54-0.58-0.88
				C449.82,110.48,449.77,110.12,449.8,109.76z M433.98,118.66l0.31-5.86c0,0.02,0.14,0.35,0.42,0.99c0.28,0.64,0.47,1.05,0.56,1.23
				c0.09,0.19,0.31,0.58,0.64,1.17c0.33,0.6,0.62,1.02,0.85,1.28c0.24,0.26,0.58,0.61,1.01,1.05c0.44,0.44,0.87,0.76,1.29,0.94
				c0.42,0.19,0.93,0.35,1.52,0.51c0.59,0.15,1.22,0.22,1.88,0.2c1.2-0.04,2.15-0.59,2.84-1.65c0.69-1.06,0.87-2.2,0.51-3.41
				c-0.21-0.68-0.81-1.32-1.82-1.93c-1.01-0.61-2.26-1.24-3.78-1.91c-1.51-0.67-2.63-1.25-3.36-1.74c-1.06-0.72-1.85-1.56-2.39-2.51
				c-0.54-0.96-0.75-1.9-0.64-2.84c0.11-0.94,0.47-1.81,1.06-2.62c0.59-0.81,1.52-1.47,2.8-1.96c1.27-0.49,2.76-0.74,4.46-0.74
				c3.46,0,5.98,0.76,7.55,2.28l-0.28,4.6c-0.29-0.49-0.6-0.97-0.93-1.43c-0.33-0.46-0.82-1.06-1.48-1.8
				c-0.65-0.74-1.41-1.34-2.27-1.79c-0.86-0.45-1.74-0.68-2.63-0.68c-0.83,0-1.6,0.31-2.3,0.93c-0.7,0.62-1.06,1.36-1.06,2.22
				c0,0.97,0.41,1.83,1.24,2.58c0.83,0.75,1.78,1.33,2.84,1.74c1.07,0.41,2.27,0.93,3.61,1.56c1.34,0.63,2.36,1.26,3.06,1.9
				c0.79,0.7,1.29,1.53,1.51,2.48c0.22,0.96,0.22,1.85,0,2.68c-0.22,0.83-0.58,1.6-1.07,2.3c-1.41,1.97-3.95,2.96-7.62,2.96
				c-1.95,0-3.65-0.24-5.11-0.73C435.76,120.17,434.68,119.51,433.98,118.66z M476.87,150.19c0,0-10.34,1.15-14.56,0.85
				c-5-0.35-9.54-2.87-14.15-4.66c-2.79-1.08-9.71-4.71-9.71-4.71l38.92-1.24L476.87,150.19z"/>
		</g>
		<g id="Milton_2_">
			<path d="M405.9,160.05h5.64l5.05,24.09l4.88-19.03h5.49v0.99c-0.38,0-0.8,0.26-1.27,0.77c-0.47,0.51-0.7,1.14-0.7,1.89v18.81
				c0,0.75,0.23,1.37,0.7,1.89c0.47,0.51,0.89,0.77,1.27,0.77v0.99h-7.47v-0.99c0.38,0,0.8-0.26,1.27-0.77
				c0.47-0.51,0.7-1.14,0.7-1.89v-14.07c-0.62,1.96-1.55,4.91-2.77,8.86c-1.22,3.94-2.14,6.9-2.75,8.86h-0.91
				c-0.62-1.98-1.57-4.95-2.85-8.9c-1.27-3.95-2.23-14.66-2.87-16.64v21.9c0,0.75,0.23,1.37,0.7,1.89c0.47,0.51,0.89,0.77,1.27,0.77
				v0.99h-5.4v-0.99c0.38,0,0.8-0.26,1.27-0.77c0.47-0.51,0.7-1.14,0.7-1.89v-23.21c0-0.75-0.23-1.37-0.7-1.89
				c-0.47-0.51-0.89-0.77-1.27-0.77V160.05z"/>
			<path d="M428.82,167.83h7.47v1.02c-0.38,0-0.8,0.26-1.27,0.79c-0.47,0.53-0.7,1.17-0.7,1.94v15.89c0,0.77,0.23,1.41,0.7,1.94
				c0.47,0.53,0.89,0.79,1.27,0.79v1.02h-7.47v-1.02c0.38,0,0.8-0.26,1.27-0.79c0.47-0.53,0.7-1.17,0.7-1.94v-15.89
				c0-0.77-0.23-1.41-0.7-1.94c-0.47-0.53-0.89-0.79-1.27-0.79V167.83z"/>
			<path d="M437.49,167.83h7.47v1.02c-0.38,0-0.8,0.26-1.27,0.79c-0.47,0.53-0.7,1.17-0.7,1.94v18.42h4.31c0.49,0,0.95-0.1,1.38-0.3
				c0.43-0.2,0.81-0.5,1.15-0.92c0.34-0.42,0.6-0.76,0.78-1.02c0.18-0.26,0.4-0.66,0.65-1.18c0.25-0.53,0.39-0.8,0.41-0.82
				l-0.17,5.45h-14v-1.02c0.38,0,0.8-0.26,1.27-0.79c0.47-0.53,0.7-1.17,0.7-1.94v-15.89c0-0.77-0.23-1.41-0.7-1.94
				c-0.47-0.53-0.89-0.79-1.27-0.79V167.83z"/>
			<path d="M448.6,167.83h15.79l0.37,5.45c-0.39-0.77-1.14-1.59-2.24-2.48c-1.1-0.89-3.1-1.36-4.26-1.36v18.03
				c0,0.77,0.24,1.41,0.71,1.94c0.48,0.53,0.9,0.79,1.28,0.79l-0.02,1.02h-7.44l-0.02-1.02c0.38,0,0.8-0.26,1.28-0.79
				c0.48-0.53,0.71-1.17,0.71-1.94v-18h-0.86c-1.17,0-2.3,0.44-3.4,1.31c-1.1,0.88-1.85,1.69-2.24,2.43L448.6,167.83z"/>
			<path d="M467.4,171.24c1.68-2.28,3.71-3.42,6.07-3.42c2.37,0,4.39,1.14,6.06,3.42c1.68,2.28,2.51,5.03,2.51,8.26
				c0,3.23-0.84,5.99-2.51,8.27c-1.68,2.29-3.7,3.43-6.06,3.43c-2.37,0-4.39-1.14-6.07-3.43c-1.68-2.29-2.53-5.05-2.53-8.27
				C464.87,176.27,465.71,173.52,467.4,171.24z M476.67,171.93c-0.84-1.77-1.91-2.66-3.2-2.66c-1.3,0-2.37,0.89-3.22,2.66
				c-0.85,1.78-1.27,4.3-1.27,7.57c0,3.27,0.42,5.8,1.27,7.59c0.85,1.78,1.92,2.68,3.22,2.68c1.3,0,2.37-0.89,3.2-2.68
				c0.84-1.79,1.26-4.31,1.26-7.59C477.93,176.23,477.51,173.71,476.67,171.93z"/>
			<path d="M487.05,165.02L496,183.7v-19.43c0-0.73-0.24-1.35-0.71-1.85c-0.48-0.5-0.9-0.75-1.28-0.75l0.02-1.61h5.37l0.02,1.61
				c-0.38,0-0.81,0.25-1.28,0.75c-0.48,0.5-0.71,1.12-0.71,1.85v26.94h-1.45l-10.55-18.15v14.57c0,0.73,0.23,1.35,0.7,1.85
				c0.47,0.5,0.89,0.75,1.27,0.75v0.97H482v-0.97c0.38,0,0.8-0.25,1.27-0.75c0.47-0.5,0.7-1.12,0.7-1.85v-15.76
				c0-0.73-0.19-4.62-0.66-5.13c-0.47-0.5-0.89-0.75-1.27-0.75v-0.97H487.05z"/>
		</g>
		<g id="_x31_970_2_">
			<path d="M380,135.49c-0.07-0.04-0.14-0.1-0.21-0.2c-0.07-0.1-0.11-0.18-0.11-0.24c0-0.05,0.01-0.08,0.04-0.11
				c2-1.36,3.02-2.04,3.07-2.04h0.04c0.09,0,0.17,0.11,0.21,0.34c-0.12,0.39-0.18,0.95-0.18,1.67v6.98c0,0.69,0.05,1.21,0.14,1.58
				c0.02,0.08,0.2,0.16,0.52,0.24c0.32,0.08,0.55,0.12,0.66,0.12c0.05,0,0.07,0.11,0.07,0.32c0,0.11-0.01,0.17-0.02,0.19
				c-1.18-0.06-1.9-0.09-2.14-0.09c-0.19,0-0.87,0.03-2.06,0.09c-0.05-0.05-0.07-0.14-0.07-0.29c0-0.15,0.02-0.22,0.07-0.22
				c0.15,0,0.39-0.04,0.72-0.12c0.32-0.08,0.5-0.16,0.52-0.24c0.07-0.28,0.11-0.62,0.11-1.01v-6.38c0-0.34-0.01-0.6-0.04-0.78
				c-0.02-0.18-0.05-0.29-0.08-0.33c-0.03-0.04-0.07-0.06-0.13-0.06c-0.07,0-0.17,0.04-0.31,0.11c-0.14,0.07-0.29,0.16-0.47,0.27
				C380.18,135.39,380.06,135.46,380,135.49z"/>
			<path d="M390.67,132.82c0.97,0,1.77,0.38,2.41,1.14s0.96,1.65,0.96,2.65c0,0.92-0.19,1.82-0.57,2.7
				c-0.38,0.88-0.87,1.65-1.46,2.3c-0.6,0.66-1.23,1.22-1.9,1.7c-0.67,0.48-1.33,0.84-1.99,1.07c-0.07,0-0.15-0.07-0.25-0.21
				c-0.09-0.14-0.14-0.24-0.14-0.3c0.91-0.35,1.78-0.94,2.62-1.75c0.84-0.81,1.42-1.8,1.74-2.97c0.02-0.12,0.02-0.18-0.02-0.18
				c-0.02,0.01-0.04,0.02-0.05,0.04c-0.13,0.15-0.4,0.3-0.82,0.43c-0.41,0.13-0.78,0.19-1.1,0.19c-0.85,0-1.57-0.32-2.16-0.96
				c-0.59-0.64-0.89-1.4-0.89-2.29c0-0.98,0.36-1.82,1.09-2.53C388.87,133.17,389.71,132.82,390.67,132.82z M392.51,136.64
				c0-0.84-0.2-1.57-0.59-2.2c-0.4-0.63-0.91-0.94-1.53-0.94c-0.51,0-0.95,0.24-1.31,0.71c-0.37,0.47-0.55,1.09-0.55,1.86
				c0,0.77,0.19,1.41,0.58,1.92c0.39,0.51,0.95,0.77,1.67,0.77c0.32,0,0.63-0.09,0.92-0.26c0.3-0.17,0.48-0.35,0.57-0.54
				C392.42,137.62,392.5,137.18,392.51,136.64z"/>
			<path d="M512.24,134.38c-0.2,0-0.38,0.08-0.54,0.25c-0.16,0.17-0.27,0.33-0.35,0.5c-0.07,0.17-0.15,0.38-0.23,0.66
				c-0.01,0.05-0.09,0.08-0.25,0.09c-0.15,0.01-0.27,0-0.35-0.04c0.02-0.11,0.11-0.5,0.26-1.18c0.15-0.68,0.25-1.17,0.29-1.48
				c0.01-0.14,0.11-0.21,0.28-0.21h5.12c0.19,0,0.43-0.01,0.73-0.03c0.3-0.02,0.45-0.03,0.46-0.03c0.08,0,0.12,0.05,0.12,0.16
				c0,0.07-0.02,0.16-0.07,0.27c-0.05,0.11-0.12,0.27-0.22,0.47c-0.1,0.2-0.17,0.35-0.22,0.44l-4.66,9.98
				c-0.04,0.04-0.1,0.05-0.19,0.05c-0.13,0-0.27-0.06-0.41-0.19c-0.14-0.12-0.21-0.23-0.21-0.31l4.71-9.41H512.24z"/>
			<path d="M518.87,138.58c0-1.61,0.35-2.96,1.05-4.06c0.7-1.1,1.64-1.65,2.82-1.65c1.19,0,2.14,0.55,2.83,1.64
				c0.69,1.09,1.04,2.45,1.04,4.07c0,1.61-0.35,2.96-1.05,4.06c-0.7,1.1-1.64,1.65-2.82,1.65c-1.17,0-2.11-0.55-2.81-1.66
				C519.22,141.53,518.87,140.18,518.87,138.58z M520.43,138.57c0,1.42,0.21,2.61,0.62,3.59c0.41,0.97,0.95,1.46,1.59,1.46
				c0.76,0,1.34-0.49,1.76-1.47c0.42-0.98,0.63-2.2,0.63-3.67c0-1.41-0.21-2.58-0.62-3.52c-0.41-0.94-0.95-1.41-1.59-1.41
				c-0.72,0-1.3,0.48-1.74,1.44C520.65,135.94,520.43,137.14,520.43,138.57z"/>
		</g>
		<path id="Aro_2_" d="M450.32,214.59c-48.35,0-87.68-34.09-87.68-75.99c0-41.9,39.33-75.99,87.68-75.99
			c48.34,0,87.68,34.09,87.68,75.99C538,180.5,498.67,214.59,450.32,214.59z M450.32,65.14c-46.96,0-85.16,32.96-85.16,73.47
			c0,40.51,38.2,73.47,85.16,73.47s85.16-32.96,85.16-73.47C535.49,98.09,497.28,65.14,450.32,65.14z"/>
		<g id="CongresosyEventos_1_">
			<path d="M363.49,228.93c0.52-0.9,1.22-1.59,2.11-2.09c0.89-0.49,1.84-0.74,2.86-0.74c0.31,0,0.57,0.02,0.78,0.05
				c0.21,0.04,0.46,0.1,0.75,0.19l-0.17,0.71c-0.65-0.17-1.16-0.26-1.56-0.26c-1.43,0-2.59,0.46-3.48,1.37
				c-0.89,0.91-1.34,2.11-1.34,3.6c0,1.69,0.46,2.96,1.37,3.81c0.91,0.85,2.2,1.28,3.85,1.28c0.55,0,1.22-0.12,2.02-0.36l-0.05,0.62
				c-0.62,0.23-1.34,0.35-2.17,0.35c-1.77,0-3.17-0.48-4.2-1.45c-1.03-0.97-1.54-2.31-1.54-4.02
				C362.72,230.84,362.97,229.83,363.49,228.93z"/>
			<path d="M373.57,236.1c-0.99-0.98-1.48-2.38-1.48-4.21c0-1.75,0.51-3.16,1.52-4.23c1.01-1.07,2.19-1.6,3.55-1.6
				c1.32,0,2.47,0.5,3.43,1.5c0.96,1,1.44,2.34,1.44,4.03c0,1.84-0.5,3.3-1.51,4.36c-1.01,1.07-2.2,1.6-3.57,1.6
				C375.69,237.57,374.56,237.08,373.57,236.1z M374.84,227.35c-0.66,0.47-1.16,1.11-1.51,1.9c-0.35,0.79-0.52,1.67-0.52,2.64
				c0,1.64,0.44,2.9,1.31,3.78c0.87,0.88,1.9,1.32,3.09,1.32c1.06,0,2-0.48,2.84-1.45c0.84-0.96,1.26-2.23,1.26-3.79
				c0-1.67-0.43-2.94-1.28-3.81c-0.85-0.87-1.89-1.31-3.11-1.31C376.19,226.64,375.5,226.88,374.84,227.35z"/>
			<path d="M386.43,227.38c2.27,3.24,3.76,5.43,4.49,6.58c0.72,1.15,1.1,1.78,1.14,1.88h0.03c-0.06-1.25-0.08-2.49-0.08-3.7v-2.28
				c0-1.53-0.02-2.73-0.05-3.6h0.74c-0.07,1.29-0.1,3.13-0.1,5.52c0,1.08,0.01,2.04,0.02,2.87c0.01,0.83,0.04,1.69,0.08,2.57h-0.48
				c-0.01,0-0.39-0.59-1.14-1.76c-0.75-1.17-1.42-2.19-2.01-3.05l-1.93-2.81l-0.63-0.93c-0.28-0.4-0.49-0.71-0.64-0.93
				c-0.15-0.22-0.25-0.38-0.3-0.49h-0.03c0.05,1.33,0.07,2.54,0.07,3.64c0,0.51-0.01,1.24-0.02,2.18l-0.01,1.9
				c0,0.92,0.01,1.66,0.04,2.25h-0.74c0.1-2.17,0.14-4.09,0.14-5.77c0-1.7-0.05-3.43-0.14-5.19h0.79c0,0.02,0.1,0.17,0.31,0.46
				L386.43,227.38z"/>
			<path d="M397.23,227.73c1.14-1.08,2.58-1.62,4.32-1.62c0.59,0,1.18,0.09,1.75,0.26l-0.15,0.77c-0.95-0.23-1.65-0.35-2.1-0.35
				c-1.45,0-2.61,0.46-3.49,1.39c-0.88,0.92-1.32,2.08-1.32,3.47c0,1.73,0.45,3.04,1.35,3.91c0.9,0.87,2.2,1.3,3.91,1.3
				c0.33,0,0.61-0.01,0.85-0.04c0.24-0.03,0.52-0.08,0.86-0.15c-0.05-0.45-0.07-1.19-0.07-2.21c0-0.29-0.01-0.66-0.04-1.11
				l-0.03-0.7h0.86c-0.02,0.24-0.05,0.8-0.07,1.7c-0.03,0.9-0.04,1.63-0.04,2.2c0,0.27,0,0.44,0.01,0.52
				c-0.58,0.25-1.39,0.38-2.43,0.38c-1.86,0-3.3-0.49-4.33-1.46c-1.03-0.97-1.54-2.33-1.54-4.08
				C395.52,230.2,396.09,228.81,397.23,227.73z"/>
			<path d="M409.31,226.21c0.33,0,0.59,0,0.79-0.01c1.17,0,2.04,0.22,2.63,0.66c0.59,0.44,0.88,1.1,0.88,1.98
				c0,0.7-0.19,1.3-0.56,1.8s-0.88,0.9-1.54,1.18v0.05c0.66,0.18,1.22,0.69,1.7,1.53c0.48,0.84,1.03,2.11,1.65,3.81h-0.76
				c-0.39-1.03-0.78-1.95-1.19-2.77c-0.41-0.82-0.76-1.35-1.04-1.6c-0.29-0.24-0.56-0.41-0.8-0.5s-0.77-0.13-1.58-0.13
				c-0.79,0-1.33,0.01-1.62,0.02c0,2.32,0.04,3.98,0.11,4.98h-0.92c0.06-1.14,0.1-2.15,0.13-3.01c0.03-0.86,0.05-1.78,0.05-2.76
				c0-1.86-0.05-3.59-0.14-5.19h0.98L409.31,226.21z M409.71,231.6c0.95,0,1.71-0.24,2.29-0.71c0.58-0.47,0.87-1.1,0.87-1.87
				c0-0.79-0.25-1.35-0.75-1.68c-0.5-0.34-1.33-0.51-2.49-0.51c-0.69,0-1.29,0.02-1.79,0.05c0.02,0.4,0.03,0.94,0.03,1.62
				c0,0.58,0,1.03-0.01,1.35l-0.01,1.73c0.12,0.01,0.33,0.02,0.62,0.02H409.71z"/>
			<path d="M417.63,237.22l0.06-1.76c0.07-1.7,0.1-3.03,0.1-4.02c0-1.02-0.03-2.12-0.08-3.31c-0.05-1.18-0.08-1.81-0.08-1.89h5.97
				l-0.03,0.69c-1.24-0.05-2.97-0.07-5.18-0.07c0.02,1.25,0.03,2.67,0.03,4.28c1.76,0,3.14-0.03,4.14-0.1v0.76
				c-1.34-0.06-2.72-0.08-4.14-0.08v1.86c0,1.21,0.01,2.22,0.04,3.03c2.07,0,3.96-0.04,5.66-0.13l-0.03,0.74H417.63z"/>
			<path d="M426.59,229.61c0.13,0.24,0.37,0.49,0.72,0.74s0.83,0.49,1.46,0.72c0.62,0.23,1.17,0.47,1.64,0.71
				c0.47,0.24,0.84,0.51,1.1,0.78c0.26,0.28,0.45,0.57,0.55,0.88c0.11,0.31,0.16,0.66,0.16,1.06c0,0.98-0.34,1.72-1.02,2.21
				c-0.68,0.49-1.67,0.74-2.96,0.74c-1.02,0-1.89-0.11-2.63-0.33l0.17-0.79c0.48,0.18,0.92,0.3,1.34,0.37
				c0.42,0.07,0.86,0.1,1.33,0.1c1.06,0,1.83-0.17,2.33-0.52c0.5-0.35,0.75-0.92,0.75-1.72c0-0.62-0.19-1.14-0.58-1.54
				c-0.39-0.4-1.14-0.81-2.26-1.21s-1.89-0.83-2.33-1.28c-0.44-0.45-0.66-1.01-0.66-1.7c0-0.83,0.31-1.5,0.93-2
				c0.62-0.51,1.38-0.76,2.28-0.76c1,0,1.86,0.1,2.57,0.29l-0.17,0.71c-0.52-0.12-0.96-0.21-1.33-0.27
				c-0.36-0.05-0.74-0.08-1.12-0.08c-0.79,0-1.39,0.18-1.82,0.53c-0.43,0.36-0.64,0.8-0.64,1.34
				C426.4,229.05,426.46,229.37,426.59,229.61z"/>
			<path d="M435.64,236.1c-0.99-0.98-1.48-2.38-1.48-4.21c0-1.75,0.51-3.16,1.52-4.23c1.01-1.07,2.19-1.6,3.55-1.6
				c1.32,0,2.47,0.5,3.43,1.5c0.96,1,1.44,2.34,1.44,4.03c0,1.84-0.5,3.3-1.51,4.36c-1.01,1.07-2.2,1.6-3.57,1.6
				C437.75,237.57,436.63,237.08,435.64,236.1z M436.91,227.35c-0.66,0.47-1.16,1.11-1.51,1.9c-0.35,0.79-0.52,1.67-0.52,2.64
				c0,1.64,0.44,2.9,1.31,3.78c0.87,0.88,1.9,1.32,3.09,1.32c1.06,0,2-0.48,2.84-1.45c0.84-0.96,1.26-2.23,1.26-3.79
				c0-1.67-0.43-2.94-1.28-3.81c-0.85-0.87-1.89-1.31-3.11-1.31C438.26,226.64,437.56,226.88,436.91,227.35z"/>
			<path d="M447.04,229.61c0.13,0.24,0.37,0.49,0.72,0.74s0.83,0.49,1.46,0.72c0.62,0.23,1.17,0.47,1.64,0.71
				c0.47,0.24,0.84,0.51,1.1,0.78c0.26,0.28,0.45,0.57,0.55,0.88c0.11,0.31,0.16,0.66,0.16,1.06c0,0.98-0.34,1.72-1.02,2.21
				c-0.68,0.49-1.67,0.74-2.96,0.74c-1.02,0-1.89-0.11-2.63-0.33l0.17-0.79c0.48,0.18,0.92,0.3,1.34,0.37
				c0.42,0.07,0.86,0.1,1.33,0.1c1.06,0,1.83-0.17,2.33-0.52c0.5-0.35,0.75-0.92,0.75-1.72c0-0.62-0.19-1.14-0.58-1.54
				c-0.39-0.4-1.14-0.81-2.26-1.21c-1.12-0.41-1.89-0.83-2.33-1.28c-0.44-0.45-0.66-1.01-0.66-1.7c0-0.83,0.31-1.5,0.93-2
				c0.62-0.51,1.38-0.76,2.28-0.76c1,0,1.86,0.1,2.57,0.29l-0.17,0.71c-0.52-0.12-0.96-0.21-1.33-0.27
				c-0.36-0.05-0.74-0.08-1.12-0.08c-0.79,0-1.39,0.18-1.82,0.53c-0.43,0.36-0.64,0.8-0.64,1.34
				C446.84,229.05,446.91,229.37,447.04,229.61z"/>
			<path d="M462.4,237.22h-0.88l0.01-0.2c0.06-1.7,0.09-2.79,0.09-3.27c0-0.92-0.34-1.92-1.01-2.99c-0.67-1.07-1.34-2.07-2.01-2.98
				c-0.67-0.92-1-1.43-1-1.53h0.93c0,0.15,0.54,1.01,1.63,2.58s1.71,2.84,1.87,3.8h0.07c0.01-0.39,0.18-0.9,0.5-1.53
				c0.32-0.63,0.72-1.28,1.19-1.97c0.47-0.69,0.9-1.32,1.3-1.91c0.4-0.59,0.6-0.91,0.6-0.97h0.83c0,0.17-0.42,0.82-1.27,1.96
				c-0.85,1.14-1.55,2.16-2.1,3.06c-0.55,0.9-0.82,1.74-0.82,2.5C462.33,234.85,462.36,236,462.4,237.22z"/>
			<path d="M472.36,237.22l0.06-1.76c0.07-1.7,0.1-3.03,0.1-4.02c0-1.02-0.03-2.12-0.08-3.31c-0.05-1.18-0.08-1.81-0.08-1.89h5.97
				l-0.03,0.69c-1.24-0.05-2.97-0.07-5.18-0.07c0.02,1.25,0.03,2.67,0.03,4.28c1.76,0,3.14-0.03,4.14-0.1v0.76
				c-1.34-0.06-2.72-0.08-4.14-0.08v1.86c0,1.21,0.01,2.22,0.04,3.03c2.07,0,3.96-0.04,5.66-0.13l-0.03,0.74H472.36z"/>
			<path d="M486.12,231.73c-0.52,1.16-0.97,2.29-1.36,3.41c-0.39,1.12-0.59,1.81-0.59,2.08h-0.74c0-0.48-0.33-1.58-0.98-3.32
				c-0.65-1.73-1.32-3.37-2.01-4.92c-0.68-1.54-1.03-2.45-1.03-2.74h0.88c0,0.41,0.57,2,1.72,4.78c1.14,2.77,1.75,4.51,1.82,5.21
				h0.03c0-0.27,0.13-0.75,0.38-1.45c0.25-0.7,0.75-1.91,1.48-3.64l0.55-1.29c0.53-1.26,0.9-2.13,1.09-2.63
				c0.19-0.49,0.29-0.82,0.29-0.99h0.79c0,0.15-0.09,0.45-0.28,0.9c-0.19,0.45-0.53,1.23-1.04,2.34L486.12,231.73z"/>
			<path d="M490.39,237.22l0.06-1.76c0.07-1.7,0.1-3.03,0.1-4.02c0-1.02-0.03-2.12-0.08-3.31c-0.05-1.18-0.08-1.81-0.08-1.89h5.97
				l-0.03,0.69c-1.24-0.05-2.97-0.07-5.18-0.07c0.02,1.25,0.03,2.67,0.03,4.28c1.76,0,3.14-0.03,4.14-0.1v0.76
				c-1.34-0.06-2.72-0.08-4.14-0.08v1.86c0,1.21,0.01,2.22,0.04,3.03c2.07,0,3.96-0.04,5.66-0.13l-0.03,0.74H490.39z"/>
			<path d="M500.81,227.38c2.27,3.24,3.76,5.43,4.49,6.58c0.72,1.15,1.1,1.78,1.14,1.88h0.03c-0.06-1.25-0.08-2.49-0.08-3.7v-2.28
				c0-1.53-0.02-2.73-0.05-3.6h0.74c-0.07,1.29-0.1,3.13-0.1,5.52c0,1.08,0.01,2.04,0.02,2.87c0.01,0.83,0.04,1.69,0.08,2.57h-0.48
				c-0.01,0-0.39-0.59-1.14-1.76c-0.75-1.17-1.42-2.19-2.01-3.05l-1.93-2.81l-0.63-0.93c-0.28-0.4-0.49-0.71-0.64-0.93
				c-0.15-0.22-0.25-0.38-0.3-0.49h-0.03c0.05,1.33,0.07,2.54,0.07,3.64c0,0.51-0.01,1.24-0.02,2.18l-0.01,1.9
				c0,0.92,0.01,1.66,0.04,2.25h-0.74c0.1-2.17,0.14-4.09,0.14-5.77c0-1.7-0.05-3.43-0.14-5.19h0.79c0,0.02,0.1,0.17,0.31,0.46
				L500.81,227.38z"/>
			<path d="M516.02,226.92c-1.23-0.03-2.04-0.04-2.42-0.04c-0.06,1.31-0.08,2.83-0.08,4.55c0,1.83,0.03,3.76,0.08,5.79h-0.88
				c0.09-2.35,0.13-4.28,0.13-5.77c0-0.79-0.01-1.52-0.03-2.17c-0.02-0.66-0.05-1.46-0.09-2.4c-0.44,0-1.1,0.01-1.97,0.04
				l-1.67,0.04v-0.71h8.13l-0.03,0.69L516.02,226.92z"/>
			<path d="M519.83,236.1c-0.99-0.98-1.48-2.38-1.48-4.21c0-1.75,0.51-3.16,1.52-4.23c1.01-1.07,2.19-1.6,3.55-1.6
				c1.32,0,2.47,0.5,3.43,1.5c0.96,1,1.44,2.34,1.44,4.03c0,1.84-0.5,3.3-1.51,4.36c-1.01,1.07-2.2,1.6-3.57,1.6
				C521.94,237.57,520.81,237.08,519.83,236.1z M521.1,227.35c-0.66,0.47-1.16,1.11-1.51,1.9c-0.35,0.79-0.52,1.67-0.52,2.64
				c0,1.64,0.44,2.9,1.31,3.78c0.87,0.88,1.9,1.32,3.09,1.32c1.06,0,2-0.48,2.84-1.45c0.84-0.96,1.26-2.23,1.26-3.79
				c0-1.67-0.43-2.94-1.28-3.81c-0.85-0.87-1.89-1.31-3.11-1.31C522.44,226.64,521.75,226.88,521.1,227.35z"/>
			<path d="M531.23,229.61c0.13,0.24,0.37,0.49,0.72,0.74s0.83,0.49,1.46,0.72s1.17,0.47,1.64,0.71c0.47,0.24,0.84,0.51,1.1,0.78
				c0.26,0.28,0.45,0.57,0.55,0.88c0.11,0.31,0.16,0.66,0.16,1.06c0,0.98-0.34,1.72-1.02,2.21c-0.68,0.49-1.67,0.74-2.96,0.74
				c-1.02,0-1.89-0.11-2.63-0.33l0.17-0.79c0.48,0.18,0.92,0.3,1.34,0.37c0.42,0.07,0.86,0.1,1.33,0.1c1.06,0,1.83-0.17,2.33-0.52
				c0.5-0.35,0.75-0.92,0.75-1.72c0-0.62-0.19-1.14-0.58-1.54c-0.39-0.4-1.14-0.81-2.26-1.21c-1.12-0.41-1.89-0.83-2.33-1.28
				c-0.44-0.45-0.66-1.01-0.66-1.7c0-0.83,0.31-1.5,0.93-2c0.62-0.51,1.38-0.76,2.28-0.76c1,0,1.86,0.1,2.57,0.29l-0.17,0.71
				c-0.52-0.12-0.96-0.21-1.33-0.27c-0.36-0.05-0.74-0.08-1.12-0.08c-0.79,0-1.39,0.18-1.82,0.53c-0.43,0.36-0.64,0.8-0.64,1.34
				C531.03,229.05,531.1,229.37,531.23,229.61z"/>
		</g>
	</g>
</g>
<g>
	<rect x="300" y="300" class="st1" width="300" height="300"/>
	<g>
		<g>
			<path class="st2" d="M461.86,410.06c-0.04-0.86-0.27-1.58-0.68-2.14c-0.41-0.56-1.09-0.85-2.03-0.86h-0.62
				c-0.47,0-0.79,0.01-0.95,0.02v6.75h1.93C461.14,413.82,461.93,412.57,461.86,410.06z"/>
			<path class="st2" d="M498.68,443.72c-1.12-8.64-10.06-8.46-20.58-6.27c0.52-6.49,1.42-16.79,2.28-21.22
				c1.48-7.62,5.57-30.47,5.57-30.47h-0.15c0-4-15.04-7.23-33.58-7.23c-18.54,0-33.58,3.24-33.58,7.23c0,0.19,0.04,0.37,0.11,0.55
				c0,0,4.17,22.43,5.62,29.91c0.86,4.44,1.77,14.74,2.28,21.23c-10.52-2.19-19.46-2.37-20.58,6.27c-0.84,6.49,4.7,16.35,46.3,16.35
				C493.98,460.06,499.51,450.2,498.68,443.72z M449.8,409.76c0.03-0.36,0.11-0.69,0.25-0.98c0.4-0.8,0.99-1.4,1.76-1.81
				c0.77-0.41,1.87-0.63,3.27-0.66l0.02-0.02h5.37c1.12,0,2.09,0.33,2.9,1c0.82,0.67,1.22,1.66,1.22,2.97
				c0,0.95-0.21,1.79-0.64,2.54c-0.43,0.75-1.03,1.29-1.8,1.64c1.95,3.08,3.18,5.03,3.71,5.84c2.2,3.29,4.08,5.08,5.66,5.37
				c-1.55,0.14-2.65,0.14-3.3,0.02c-1.41-0.26-2.76-1.2-4.06-2.82c-0.48-0.6-0.99-1.32-1.51-2.16c-0.47-0.75-1.19-1.89-2.17-3.4
				c-0.97-1.52-1.5-2.34-1.59-2.48h-1.33v3.78c0,0.48,0.2,0.88,0.6,1.21c0.4,0.33,0.76,0.5,1.08,0.51v0.64h-6.28v-0.64
				c0.32-0.01,0.67-0.19,1.07-0.51c0.39-0.33,0.59-0.73,0.59-1.21v-11.21c-0.01-0.14-0.05-0.24-0.1-0.31
				c-0.06-0.07-0.15-0.1-0.27-0.08c-0.64,0.1-1.13,0.38-1.48,0.86c-0.35,0.48-0.54,1-0.55,1.56c-0.01,0.56,0.07,1.1,0.26,1.6
				c0.19,0.51,0.45,0.84,0.78,0.99c-0.65,0.19-1.2,0.25-1.66,0.17c-0.46-0.08-0.82-0.24-1.09-0.48s-0.46-0.54-0.58-0.88
				C449.82,410.48,449.77,410.12,449.8,409.76z M433.98,418.66l0.31-5.86c0,0.02,0.14,0.35,0.42,0.99c0.28,0.64,0.47,1.05,0.56,1.23
				c0.09,0.19,0.31,0.58,0.64,1.17c0.33,0.6,0.62,1.02,0.85,1.28c0.24,0.26,0.58,0.61,1.01,1.05c0.44,0.44,0.87,0.76,1.29,0.94
				c0.42,0.19,0.93,0.35,1.52,0.51c0.59,0.15,1.22,0.22,1.88,0.2c1.2-0.04,2.15-0.59,2.84-1.65c0.69-1.06,0.87-2.2,0.51-3.41
				c-0.21-0.68-0.81-1.32-1.82-1.93c-1.01-0.61-2.26-1.24-3.78-1.91c-1.51-0.67-2.63-1.25-3.36-1.74c-1.06-0.72-1.85-1.56-2.39-2.51
				c-0.54-0.96-0.75-1.9-0.64-2.84c0.11-0.94,0.47-1.81,1.06-2.62c0.59-0.81,1.52-1.47,2.8-1.96c1.27-0.49,2.76-0.74,4.46-0.74
				c3.46,0,5.98,0.76,7.55,2.28l-0.28,4.6c-0.29-0.49-0.6-0.97-0.93-1.43c-0.33-0.46-0.82-1.06-1.48-1.8
				c-0.65-0.74-1.41-1.34-2.27-1.79c-0.86-0.45-1.74-0.68-2.63-0.68c-0.83,0-1.6,0.31-2.3,0.93c-0.7,0.62-1.06,1.36-1.06,2.22
				c0,0.97,0.41,1.83,1.24,2.58c0.83,0.75,1.78,1.33,2.84,1.74c1.07,0.41,2.27,0.93,3.61,1.56c1.34,0.63,2.36,1.26,3.06,1.9
				c0.79,0.7,1.29,1.53,1.51,2.48c0.22,0.96,0.22,1.85,0,2.68c-0.22,0.83-0.58,1.6-1.07,2.3c-1.41,1.97-3.95,2.96-7.62,2.96
				c-1.95,0-3.65-0.24-5.11-0.73C435.76,420.17,434.68,419.51,433.98,418.66z M476.87,450.19c0,0-10.34,1.15-14.56,0.85
				c-5-0.35-9.54-2.87-14.15-4.66c-2.79-1.08-9.71-4.71-9.71-4.71l38.92-1.24L476.87,450.19z"/>
		</g>
		<g id="Milton_4_">
			<path class="st2" d="M405.9,460.05h5.64l5.05,24.09l4.88-19.03h5.49v0.99c-0.38,0-0.8,0.26-1.27,0.77
				c-0.47,0.51-0.7,1.14-0.7,1.89v18.81c0,0.75,0.23,1.37,0.7,1.89c0.47,0.51,0.89,0.77,1.27,0.77v0.99h-7.47v-0.99
				c0.38,0,0.8-0.26,1.27-0.77c0.47-0.51,0.7-1.14,0.7-1.89v-14.07c-0.62,1.96-1.55,4.91-2.77,8.86c-1.22,3.94-2.14,6.9-2.75,8.86
				h-0.91c-0.62-1.98-1.57-4.95-2.85-8.9c-1.27-3.95-2.23-14.66-2.87-16.64v21.9c0,0.75,0.23,1.37,0.7,1.89s0.89,0.77,1.27,0.77
				v0.99h-5.4v-0.99c0.38,0,0.8-0.26,1.27-0.77c0.47-0.51,0.7-1.14,0.7-1.89v-23.21c0-0.75-0.23-1.37-0.7-1.89
				c-0.47-0.51-0.89-0.77-1.27-0.77V460.05z"/>
			<path class="st2" d="M428.82,467.83h7.47v1.02c-0.38,0-0.8,0.26-1.27,0.79c-0.47,0.53-0.7,1.17-0.7,1.94v15.89
				c0,0.77,0.23,1.41,0.7,1.94s0.89,0.79,1.27,0.79v1.02h-7.47v-1.02c0.38,0,0.8-0.26,1.27-0.79c0.47-0.53,0.7-1.17,0.7-1.94v-15.89
				c0-0.77-0.23-1.41-0.7-1.94c-0.47-0.53-0.89-0.79-1.27-0.79V467.83z"/>
			<path class="st2" d="M437.49,467.83h7.47v1.02c-0.38,0-0.8,0.26-1.27,0.79c-0.47,0.53-0.7,1.17-0.7,1.94v18.42h4.31
				c0.49,0,0.95-0.1,1.38-0.3c0.43-0.2,0.81-0.5,1.15-0.92c0.34-0.42,0.6-0.76,0.78-1.02c0.18-0.26,0.4-0.66,0.65-1.18
				c0.25-0.53,0.39-0.8,0.41-0.82l-0.17,5.45h-14v-1.02c0.38,0,0.8-0.26,1.27-0.79c0.47-0.53,0.7-1.17,0.7-1.94v-15.89
				c0-0.77-0.23-1.41-0.7-1.94c-0.47-0.53-0.89-0.79-1.27-0.79V467.83z"/>
			<path class="st2" d="M448.6,467.83h15.79l0.37,5.45c-0.39-0.77-1.14-1.59-2.24-2.48c-1.1-0.89-3.1-1.36-4.26-1.36v18.03
				c0,0.77,0.24,1.41,0.71,1.94c0.48,0.53,0.9,0.79,1.28,0.79l-0.02,1.02h-7.44l-0.02-1.02c0.38,0,0.8-0.26,1.28-0.79
				c0.48-0.53,0.71-1.17,0.71-1.94v-18h-0.86c-1.17,0-2.3,0.44-3.4,1.31c-1.1,0.88-1.85,1.69-2.24,2.43L448.6,467.83z"/>
			<path class="st2" d="M467.4,471.24c1.68-2.28,3.71-3.42,6.07-3.42c2.37,0,4.39,1.14,6.06,3.42c1.68,2.28,2.51,5.03,2.51,8.26
				c0,3.23-0.84,5.99-2.51,8.27c-1.68,2.29-3.7,3.43-6.06,3.43c-2.37,0-4.39-1.14-6.07-3.43c-1.68-2.29-2.53-5.05-2.53-8.27
				C464.87,476.27,465.71,473.52,467.4,471.24z M476.67,471.93c-0.84-1.77-1.91-2.66-3.2-2.66c-1.3,0-2.37,0.89-3.22,2.66
				c-0.85,1.78-1.27,4.3-1.27,7.57c0,3.27,0.42,5.8,1.27,7.59c0.85,1.78,1.92,2.68,3.22,2.68c1.3,0,2.37-0.89,3.2-2.68
				c0.84-1.79,1.26-4.31,1.26-7.59C477.93,476.23,477.51,473.71,476.67,471.93z"/>
			<path class="st2" d="M487.05,465.02L496,483.7v-19.43c0-0.73-0.24-1.35-0.71-1.85c-0.48-0.5-0.9-0.75-1.28-0.75l0.02-1.61h5.37
				l0.02,1.61c-0.38,0-0.81,0.25-1.28,0.75c-0.48,0.5-0.71,1.12-0.71,1.85v26.94h-1.45l-10.55-18.15v14.57
				c0,0.73,0.23,1.35,0.7,1.85c0.47,0.5,0.89,0.75,1.27,0.75v0.97H482v-0.97c0.38,0,0.8-0.25,1.27-0.75c0.47-0.5,0.7-1.12,0.7-1.85
				v-15.76c0-0.73-0.19-4.62-0.66-5.13c-0.47-0.5-0.89-0.75-1.27-0.75v-0.97H487.05z"/>
		</g>
		<g id="_x31_970_4_">
			<path class="st2" d="M380,435.49c-0.07-0.04-0.14-0.1-0.21-0.2c-0.07-0.1-0.11-0.18-0.11-0.24c0-0.05,0.01-0.08,0.04-0.11
				c2-1.36,3.02-2.04,3.07-2.04h0.04c0.09,0,0.17,0.11,0.21,0.34c-0.12,0.39-0.18,0.95-0.18,1.67v6.98c0,0.69,0.05,1.21,0.14,1.58
				c0.02,0.08,0.2,0.16,0.52,0.24c0.32,0.08,0.55,0.12,0.66,0.12c0.05,0,0.07,0.11,0.07,0.32c0,0.11-0.01,0.17-0.02,0.19
				c-1.18-0.06-1.9-0.09-2.14-0.09c-0.19,0-0.87,0.03-2.06,0.09c-0.05-0.05-0.07-0.14-0.07-0.29c0-0.15,0.02-0.22,0.07-0.22
				c0.15,0,0.39-0.04,0.72-0.12c0.32-0.08,0.5-0.16,0.52-0.24c0.07-0.28,0.11-0.62,0.11-1.01v-6.38c0-0.34-0.01-0.6-0.04-0.78
				c-0.02-0.18-0.05-0.29-0.08-0.33c-0.03-0.04-0.07-0.06-0.13-0.06c-0.07,0-0.17,0.04-0.31,0.11c-0.14,0.07-0.29,0.16-0.47,0.27
				C380.18,435.39,380.06,435.46,380,435.49z"/>
			<path class="st2" d="M390.67,432.82c0.97,0,1.77,0.38,2.41,1.14s0.96,1.65,0.96,2.65c0,0.92-0.19,1.82-0.57,2.7
				c-0.38,0.88-0.87,1.65-1.46,2.3c-0.6,0.66-1.23,1.22-1.9,1.7c-0.67,0.48-1.33,0.84-1.99,1.07c-0.07,0-0.15-0.07-0.25-0.21
				c-0.09-0.14-0.14-0.24-0.14-0.3c0.91-0.35,1.78-0.94,2.62-1.75c0.84-0.81,1.42-1.8,1.74-2.97c0.02-0.12,0.02-0.18-0.02-0.18
				c-0.02,0.01-0.04,0.02-0.05,0.04c-0.13,0.15-0.4,0.3-0.82,0.43c-0.41,0.13-0.78,0.19-1.1,0.19c-0.85,0-1.57-0.32-2.16-0.96
				c-0.59-0.64-0.89-1.4-0.89-2.29c0-0.98,0.36-1.82,1.09-2.53C388.87,433.17,389.71,432.82,390.67,432.82z M392.51,436.64
				c0-0.84-0.2-1.57-0.59-2.2c-0.4-0.63-0.91-0.94-1.53-0.94c-0.51,0-0.95,0.24-1.31,0.71c-0.37,0.47-0.55,1.09-0.55,1.86
				c0,0.77,0.19,1.41,0.58,1.92c0.39,0.51,0.95,0.77,1.67,0.77c0.32,0,0.63-0.09,0.92-0.26c0.3-0.17,0.48-0.35,0.57-0.54
				C392.42,437.62,392.5,437.18,392.51,436.64z"/>
			<path class="st2" d="M512.24,434.38c-0.2,0-0.38,0.08-0.54,0.25c-0.16,0.17-0.27,0.33-0.35,0.5c-0.07,0.17-0.15,0.38-0.23,0.66
				c-0.01,0.05-0.09,0.08-0.25,0.09c-0.15,0.01-0.27,0-0.35-0.04c0.02-0.11,0.11-0.5,0.26-1.18c0.15-0.68,0.25-1.17,0.29-1.48
				c0.01-0.14,0.11-0.21,0.28-0.21h5.12c0.19,0,0.43-0.01,0.73-0.03c0.3-0.02,0.45-0.03,0.46-0.03c0.08,0,0.12,0.05,0.12,0.16
				c0,0.07-0.02,0.16-0.07,0.27c-0.05,0.11-0.12,0.27-0.22,0.47c-0.1,0.2-0.17,0.35-0.22,0.44l-4.66,9.98
				c-0.04,0.04-0.1,0.05-0.19,0.05c-0.13,0-0.27-0.06-0.41-0.19c-0.14-0.12-0.21-0.23-0.21-0.31l4.71-9.41H512.24z"/>
			<path class="st2" d="M518.87,438.58c0-1.61,0.35-2.96,1.05-4.06c0.7-1.1,1.64-1.65,2.82-1.65c1.19,0,2.14,0.55,2.83,1.64
				c0.69,1.09,1.04,2.45,1.04,4.07c0,1.61-0.35,2.96-1.05,4.06c-0.7,1.1-1.64,1.65-2.82,1.65c-1.17,0-2.11-0.55-2.81-1.66
				C519.22,441.53,518.87,440.18,518.87,438.58z M520.43,438.57c0,1.42,0.21,2.61,0.62,3.59c0.41,0.97,0.95,1.46,1.59,1.46
				c0.76,0,1.34-0.49,1.76-1.47c0.42-0.98,0.63-2.2,0.63-3.67c0-1.41-0.21-2.58-0.62-3.52c-0.41-0.94-0.95-1.41-1.59-1.41
				c-0.72,0-1.3,0.48-1.74,1.44C520.65,435.94,520.43,437.14,520.43,438.57z"/>
		</g>
		<path id="Aro_4_" class="st2" d="M450.32,514.59c-48.35,0-87.68-34.09-87.68-75.99c0-41.9,39.33-75.99,87.68-75.99
			c48.34,0,87.68,34.09,87.68,75.99C538,480.5,498.67,514.59,450.32,514.59z M450.32,365.14c-46.96,0-85.16,32.96-85.16,73.47
			c0,40.51,38.2,73.47,85.16,73.47s85.16-32.96,85.16-73.47C535.49,398.09,497.28,365.14,450.32,365.14z"/>
		<g id="CongresosyEventos_4_">
			<path class="st2" d="M363.49,528.93c0.52-0.9,1.22-1.59,2.11-2.09c0.89-0.49,1.84-0.74,2.86-0.74c0.31,0,0.57,0.02,0.78,0.05
				c0.21,0.04,0.46,0.1,0.75,0.19l-0.17,0.71c-0.65-0.17-1.16-0.26-1.56-0.26c-1.43,0-2.59,0.46-3.48,1.37
				c-0.89,0.91-1.34,2.11-1.34,3.6c0,1.69,0.46,2.96,1.37,3.81c0.91,0.85,2.2,1.28,3.85,1.28c0.55,0,1.22-0.12,2.02-0.36l-0.05,0.62
				c-0.62,0.23-1.34,0.35-2.17,0.35c-1.77,0-3.17-0.48-4.2-1.45c-1.03-0.97-1.54-2.31-1.54-4.02
				C362.72,530.84,362.97,529.83,363.49,528.93z"/>
			<path class="st2" d="M373.57,536.1c-0.99-0.98-1.48-2.38-1.48-4.21c0-1.75,0.51-3.16,1.52-4.23c1.01-1.07,2.19-1.6,3.55-1.6
				c1.32,0,2.47,0.5,3.43,1.5c0.96,1,1.44,2.34,1.44,4.03c0,1.84-0.5,3.3-1.51,4.36c-1.01,1.07-2.2,1.6-3.57,1.6
				C375.69,537.57,374.56,537.08,373.57,536.1z M374.84,527.35c-0.66,0.47-1.16,1.11-1.51,1.9s-0.52,1.67-0.52,2.64
				c0,1.64,0.44,2.9,1.31,3.78c0.87,0.88,1.9,1.32,3.09,1.32c1.06,0,2-0.48,2.84-1.45c0.84-0.96,1.26-2.23,1.26-3.79
				c0-1.67-0.43-2.94-1.28-3.81c-0.85-0.87-1.89-1.31-3.11-1.31C376.19,526.64,375.5,526.88,374.84,527.35z"/>
			<path class="st2" d="M386.43,527.38c2.27,3.24,3.76,5.43,4.49,6.58c0.72,1.15,1.1,1.78,1.14,1.88h0.03
				c-0.06-1.25-0.08-2.49-0.08-3.7v-2.28c0-1.53-0.02-2.73-0.05-3.6h0.74c-0.07,1.29-0.1,3.13-0.1,5.52c0,1.08,0.01,2.04,0.02,2.87
				c0.01,0.83,0.04,1.69,0.08,2.57h-0.48c-0.01,0-0.39-0.59-1.14-1.76c-0.75-1.17-1.42-2.19-2.01-3.05l-1.93-2.81l-0.63-0.93
				c-0.28-0.4-0.49-0.71-0.64-0.93c-0.15-0.22-0.25-0.38-0.3-0.49h-0.03c0.05,1.33,0.07,2.54,0.07,3.64c0,0.51-0.01,1.24-0.02,2.18
				l-0.01,1.9c0,0.92,0.01,1.66,0.04,2.25h-0.74c0.1-2.17,0.14-4.09,0.14-5.77c0-1.7-0.05-3.43-0.14-5.19h0.79
				c0,0.02,0.1,0.17,0.31,0.46L386.43,527.38z"/>
			<path class="st2" d="M397.23,527.73c1.14-1.08,2.58-1.62,4.32-1.62c0.59,0,1.18,0.09,1.75,0.26l-0.15,0.77
				c-0.95-0.23-1.65-0.35-2.1-0.35c-1.45,0-2.61,0.46-3.49,1.39c-0.88,0.92-1.32,2.08-1.32,3.47c0,1.73,0.45,3.04,1.35,3.91
				c0.9,0.87,2.2,1.3,3.91,1.3c0.33,0,0.61-0.01,0.85-0.04c0.24-0.03,0.52-0.08,0.86-0.15c-0.05-0.45-0.07-1.19-0.07-2.21
				c0-0.29-0.01-0.66-0.04-1.11l-0.03-0.7h0.86c-0.02,0.24-0.05,0.8-0.07,1.7c-0.03,0.9-0.04,1.63-0.04,2.2c0,0.27,0,0.44,0.01,0.52
				c-0.58,0.25-1.39,0.38-2.43,0.38c-1.86,0-3.3-0.49-4.33-1.46c-1.03-0.97-1.54-2.33-1.54-4.08
				C395.52,530.2,396.09,528.81,397.23,527.73z"/>
			<path class="st2" d="M409.31,526.21c0.33,0,0.59,0,0.79-0.01c1.17,0,2.04,0.22,2.63,0.66c0.59,0.44,0.88,1.1,0.88,1.98
				c0,0.7-0.19,1.3-0.56,1.8c-0.37,0.51-0.88,0.9-1.54,1.18v0.05c0.66,0.18,1.22,0.69,1.7,1.53c0.48,0.84,1.03,2.11,1.65,3.81h-0.76
				c-0.39-1.03-0.78-1.95-1.19-2.77c-0.41-0.82-0.76-1.35-1.04-1.6c-0.29-0.24-0.56-0.41-0.8-0.5s-0.77-0.13-1.58-0.13
				c-0.79,0-1.33,0.01-1.62,0.02c0,2.32,0.04,3.98,0.11,4.98h-0.92c0.06-1.14,0.1-2.15,0.13-3.01c0.03-0.86,0.05-1.78,0.05-2.76
				c0-1.86-0.05-3.59-0.14-5.19h0.98L409.31,526.21z M409.71,531.6c0.95,0,1.71-0.24,2.29-0.71c0.58-0.47,0.87-1.1,0.87-1.87
				c0-0.79-0.25-1.35-0.75-1.68s-1.33-0.51-2.49-0.51c-0.69,0-1.29,0.02-1.79,0.05c0.02,0.4,0.03,0.94,0.03,1.62
				c0,0.58,0,1.03-0.01,1.35l-0.01,1.73c0.12,0.01,0.33,0.02,0.62,0.02H409.71z"/>
			<path class="st2" d="M417.63,537.22l0.06-1.76c0.07-1.7,0.1-3.03,0.1-4.02c0-1.02-0.03-2.12-0.08-3.31
				c-0.05-1.18-0.08-1.81-0.08-1.89h5.97l-0.03,0.69c-1.24-0.05-2.97-0.07-5.18-0.07c0.02,1.25,0.03,2.67,0.03,4.28
				c1.76,0,3.14-0.03,4.14-0.1v0.76c-1.34-0.06-2.72-0.08-4.14-0.08v1.86c0,1.21,0.01,2.22,0.04,3.03c2.07,0,3.96-0.04,5.66-0.13
				l-0.03,0.74H417.63z"/>
			<path class="st2" d="M426.59,529.61c0.13,0.24,0.37,0.49,0.72,0.74c0.35,0.25,0.83,0.49,1.46,0.72c0.62,0.23,1.17,0.47,1.64,0.71
				c0.47,0.24,0.84,0.51,1.1,0.78c0.26,0.28,0.45,0.57,0.55,0.88s0.16,0.66,0.16,1.06c0,0.98-0.34,1.72-1.02,2.21
				c-0.68,0.49-1.67,0.74-2.96,0.74c-1.02,0-1.89-0.11-2.63-0.33l0.17-0.79c0.48,0.18,0.92,0.3,1.34,0.37
				c0.42,0.07,0.86,0.1,1.33,0.1c1.06,0,1.83-0.17,2.33-0.52c0.5-0.35,0.75-0.92,0.75-1.72c0-0.62-0.19-1.14-0.58-1.54
				s-1.14-0.81-2.26-1.21c-1.12-0.41-1.89-0.83-2.33-1.28c-0.44-0.45-0.66-1.01-0.66-1.7c0-0.83,0.31-1.5,0.93-2
				c0.62-0.51,1.38-0.76,2.28-0.76c1,0,1.86,0.1,2.57,0.29l-0.17,0.71c-0.52-0.12-0.96-0.21-1.33-0.27
				c-0.36-0.05-0.74-0.08-1.12-0.08c-0.79,0-1.39,0.18-1.82,0.53c-0.43,0.36-0.64,0.8-0.64,1.34
				C426.4,529.05,426.46,529.37,426.59,529.61z"/>
			<path class="st2" d="M435.64,536.1c-0.99-0.98-1.48-2.38-1.48-4.21c0-1.75,0.51-3.16,1.52-4.23c1.01-1.07,2.19-1.6,3.55-1.6
				c1.32,0,2.47,0.5,3.43,1.5c0.96,1,1.44,2.34,1.44,4.03c0,1.84-0.5,3.3-1.51,4.36c-1.01,1.07-2.2,1.6-3.57,1.6
				C437.75,537.57,436.63,537.08,435.64,536.1z M436.91,527.35c-0.66,0.47-1.16,1.11-1.51,1.9s-0.52,1.67-0.52,2.64
				c0,1.64,0.44,2.9,1.31,3.78c0.87,0.88,1.9,1.32,3.09,1.32c1.06,0,2-0.48,2.84-1.45c0.84-0.96,1.26-2.23,1.26-3.79
				c0-1.67-0.43-2.94-1.28-3.81c-0.85-0.87-1.89-1.31-3.11-1.31C438.26,526.64,437.56,526.88,436.91,527.35z"/>
			<path class="st2" d="M447.04,529.61c0.13,0.24,0.37,0.49,0.72,0.74c0.35,0.25,0.83,0.49,1.46,0.72c0.62,0.23,1.17,0.47,1.64,0.71
				c0.47,0.24,0.84,0.51,1.1,0.78c0.26,0.28,0.45,0.57,0.55,0.88s0.16,0.66,0.16,1.06c0,0.98-0.34,1.72-1.02,2.21
				c-0.68,0.49-1.67,0.74-2.96,0.74c-1.02,0-1.89-0.11-2.63-0.33l0.17-0.79c0.48,0.18,0.92,0.3,1.34,0.37
				c0.42,0.07,0.86,0.1,1.33,0.1c1.06,0,1.83-0.17,2.33-0.52c0.5-0.35,0.75-0.92,0.75-1.72c0-0.62-0.19-1.14-0.58-1.54
				c-0.39-0.4-1.14-0.81-2.26-1.21c-1.12-0.41-1.89-0.83-2.33-1.28c-0.44-0.45-0.66-1.01-0.66-1.7c0-0.83,0.31-1.5,0.93-2
				c0.62-0.51,1.38-0.76,2.28-0.76c1,0,1.86,0.1,2.57,0.29l-0.17,0.71c-0.52-0.12-0.96-0.21-1.33-0.27
				c-0.36-0.05-0.74-0.08-1.12-0.08c-0.79,0-1.39,0.18-1.82,0.53c-0.43,0.36-0.64,0.8-0.64,1.34
				C446.84,529.05,446.91,529.37,447.04,529.61z"/>
			<path class="st2" d="M462.4,537.22h-0.88l0.01-0.2c0.06-1.7,0.09-2.79,0.09-3.27c0-0.92-0.34-1.92-1.01-2.99
				c-0.67-1.07-1.34-2.07-2.01-2.98c-0.67-0.92-1-1.43-1-1.53h0.93c0,0.15,0.54,1.01,1.63,2.58c1.09,1.58,1.71,2.84,1.87,3.8h0.07
				c0.01-0.39,0.18-0.9,0.5-1.53c0.32-0.63,0.72-1.28,1.19-1.97c0.47-0.69,0.9-1.33,1.3-1.91c0.4-0.59,0.6-0.91,0.6-0.97h0.83
				c0,0.17-0.42,0.82-1.27,1.96c-0.85,1.14-1.55,2.16-2.1,3.06c-0.55,0.9-0.82,1.74-0.82,2.5C462.33,534.85,462.36,536,462.4,537.22
				z"/>
			<path class="st2" d="M472.36,537.22l0.06-1.76c0.07-1.7,0.1-3.03,0.1-4.02c0-1.02-0.03-2.12-0.08-3.31
				c-0.05-1.18-0.08-1.81-0.08-1.89h5.97l-0.03,0.69c-1.24-0.05-2.97-0.07-5.18-0.07c0.02,1.25,0.03,2.67,0.03,4.28
				c1.76,0,3.14-0.03,4.14-0.1v0.76c-1.34-0.06-2.72-0.08-4.14-0.08v1.86c0,1.21,0.01,2.22,0.04,3.03c2.07,0,3.96-0.04,5.66-0.13
				l-0.03,0.74H472.36z"/>
			<path class="st2" d="M486.12,531.73c-0.52,1.16-0.97,2.29-1.36,3.41c-0.39,1.12-0.59,1.81-0.59,2.08h-0.74
				c0-0.48-0.33-1.58-0.98-3.32c-0.65-1.73-1.32-3.37-2.01-4.92c-0.68-1.54-1.03-2.45-1.03-2.74h0.88c0,0.41,0.57,2,1.72,4.78
				c1.14,2.77,1.75,4.51,1.82,5.21h0.03c0-0.27,0.13-0.75,0.38-1.45c0.25-0.7,0.75-1.91,1.48-3.64l0.55-1.29
				c0.53-1.26,0.9-2.13,1.09-2.63c0.19-0.49,0.29-0.82,0.29-0.99h0.79c0,0.15-0.09,0.45-0.28,0.9c-0.19,0.45-0.53,1.23-1.04,2.34
				L486.12,531.73z"/>
			<path class="st2" d="M490.39,537.22l0.06-1.76c0.07-1.7,0.1-3.03,0.1-4.02c0-1.02-0.03-2.12-0.08-3.31
				c-0.05-1.18-0.08-1.81-0.08-1.89h5.97l-0.03,0.69c-1.24-0.05-2.97-0.07-5.18-0.07c0.02,1.25,0.03,2.67,0.03,4.28
				c1.76,0,3.14-0.03,4.14-0.1v0.76c-1.34-0.06-2.72-0.08-4.14-0.08v1.86c0,1.21,0.01,2.22,0.04,3.03c2.07,0,3.96-0.04,5.66-0.13
				l-0.03,0.74H490.39z"/>
			<path class="st2" d="M500.81,527.38c2.27,3.24,3.76,5.43,4.49,6.58c0.72,1.15,1.1,1.78,1.14,1.88h0.03
				c-0.06-1.25-0.08-2.49-0.08-3.7v-2.28c0-1.53-0.02-2.73-0.05-3.6h0.74c-0.07,1.29-0.1,3.13-0.1,5.52c0,1.08,0.01,2.04,0.02,2.87
				c0.01,0.83,0.04,1.69,0.08,2.57h-0.48c-0.01,0-0.39-0.59-1.14-1.76c-0.75-1.17-1.42-2.19-2.01-3.05l-1.93-2.81l-0.63-0.93
				c-0.28-0.4-0.49-0.71-0.64-0.93c-0.15-0.22-0.25-0.38-0.3-0.49h-0.03c0.05,1.33,0.07,2.54,0.07,3.64c0,0.51-0.01,1.24-0.02,2.18
				l-0.01,1.9c0,0.92,0.01,1.66,0.04,2.25h-0.74c0.1-2.17,0.14-4.09,0.14-5.77c0-1.7-0.05-3.43-0.14-5.19h0.79
				c0,0.02,0.1,0.17,0.31,0.46L500.81,527.38z"/>
			<path class="st2" d="M516.02,526.92c-1.23-0.03-2.04-0.04-2.42-0.04c-0.06,1.31-0.08,2.83-0.08,4.55c0,1.83,0.03,3.76,0.08,5.79
				h-0.88c0.09-2.35,0.13-4.28,0.13-5.77c0-0.79-0.01-1.52-0.03-2.17c-0.02-0.66-0.05-1.46-0.09-2.4c-0.44,0-1.1,0.01-1.97,0.04
				l-1.67,0.04v-0.71h8.13l-0.03,0.69L516.02,526.92z"/>
			<path class="st2" d="M519.83,536.1c-0.99-0.98-1.48-2.38-1.48-4.21c0-1.75,0.51-3.16,1.52-4.23c1.01-1.07,2.19-1.6,3.55-1.6
				c1.32,0,2.47,0.5,3.43,1.5c0.96,1,1.44,2.34,1.44,4.03c0,1.84-0.5,3.3-1.51,4.36c-1.01,1.07-2.2,1.6-3.57,1.6
				C521.94,537.57,520.81,537.08,519.83,536.1z M521.1,527.35c-0.66,0.47-1.16,1.11-1.51,1.9s-0.52,1.67-0.52,2.64
				c0,1.64,0.44,2.9,1.31,3.78c0.87,0.88,1.9,1.32,3.09,1.32c1.06,0,2-0.48,2.84-1.45c0.84-0.96,1.26-2.23,1.26-3.79
				c0-1.67-0.43-2.94-1.28-3.81c-0.85-0.87-1.89-1.31-3.11-1.31C522.44,526.64,521.75,526.88,521.1,527.35z"/>
			<path class="st2" d="M531.23,529.61c0.13,0.24,0.37,0.49,0.72,0.74c0.35,0.25,0.83,0.49,1.46,0.72c0.62,0.23,1.17,0.47,1.64,0.71
				c0.47,0.24,0.84,0.51,1.1,0.78c0.26,0.28,0.45,0.57,0.55,0.88s0.16,0.66,0.16,1.06c0,0.98-0.34,1.72-1.02,2.21
				c-0.68,0.49-1.67,0.74-2.96,0.74c-1.02,0-1.89-0.11-2.63-0.33l0.17-0.79c0.48,0.18,0.92,0.3,1.34,0.37
				c0.42,0.07,0.86,0.1,1.33,0.1c1.06,0,1.83-0.17,2.33-0.52c0.5-0.35,0.75-0.92,0.75-1.72c0-0.62-0.19-1.14-0.58-1.54
				s-1.14-0.81-2.26-1.21c-1.12-0.41-1.89-0.83-2.33-1.28c-0.44-0.45-0.66-1.01-0.66-1.7c0-0.83,0.31-1.5,0.93-2
				c0.62-0.51,1.38-0.76,2.28-0.76c1,0,1.86,0.1,2.57,0.29l-0.17,0.71c-0.52-0.12-0.96-0.21-1.33-0.27
				c-0.36-0.05-0.74-0.08-1.12-0.08c-0.79,0-1.39,0.18-1.82,0.53c-0.43,0.36-0.64,0.8-0.64,1.34
				C531.03,529.05,531.1,529.37,531.23,529.61z"/>
		</g>
	</g>
</g>
<g>
	<rect x="-0.03" y="300.05" class="st3" width="300" height="300"/>
	<g>
		<g>
			<path class="st2" d="M161.5,410.01c-0.04-0.86-0.27-1.58-0.68-2.14c-0.41-0.56-1.09-0.85-2.03-0.86h-0.62
				c-0.47,0-0.79,0.01-0.95,0.02v6.75h1.93C160.78,413.78,161.57,412.52,161.5,410.01z"/>
			<path class="st2" d="M198.32,443.67c-1.12-8.64-10.06-8.46-20.58-6.27c0.52-6.49,1.42-16.79,2.28-21.22
				c1.48-7.62,5.57-30.47,5.57-30.47h-0.15c0-4-15.04-7.23-33.58-7.23c-18.54,0-33.58,3.24-33.58,7.23c0,0.19,0.04,0.37,0.11,0.55
				c0,0,4.17,22.43,5.62,29.91c0.86,4.44,1.77,14.74,2.28,21.23c-10.52-2.19-19.46-2.37-20.58,6.27c-0.84,6.49,4.7,16.35,46.3,16.35
				C193.62,460.02,199.16,450.16,198.32,443.67z M149.44,409.71c0.03-0.36,0.11-0.69,0.25-0.98c0.4-0.8,0.99-1.4,1.76-1.81
				c0.77-0.41,1.87-0.63,3.27-0.66l0.02-0.02h5.37c1.12,0,2.09,0.33,2.9,1c0.82,0.67,1.22,1.66,1.22,2.97
				c0,0.95-0.21,1.79-0.64,2.54c-0.43,0.75-1.03,1.29-1.8,1.64c1.95,3.08,3.18,5.03,3.71,5.84c2.2,3.29,4.08,5.08,5.66,5.37
				c-1.55,0.14-2.65,0.14-3.3,0.02c-1.41-0.26-2.76-1.2-4.06-2.82c-0.48-0.6-0.99-1.32-1.51-2.16c-0.47-0.75-1.19-1.89-2.17-3.4
				c-0.97-1.52-1.5-2.34-1.59-2.48h-1.33v3.78c0,0.48,0.2,0.88,0.6,1.21c0.4,0.33,0.76,0.5,1.08,0.51v0.64h-6.28v-0.64
				c0.32-0.01,0.67-0.19,1.07-0.51c0.39-0.33,0.59-0.73,0.59-1.21v-11.21c-0.01-0.14-0.05-0.24-0.1-0.31
				c-0.06-0.07-0.15-0.1-0.27-0.08c-0.64,0.1-1.13,0.38-1.48,0.86c-0.35,0.48-0.54,1-0.55,1.56c-0.01,0.56,0.07,1.1,0.26,1.6
				c0.19,0.51,0.45,0.84,0.78,0.99c-0.65,0.19-1.2,0.25-1.66,0.17c-0.46-0.08-0.82-0.24-1.09-0.48s-0.46-0.54-0.58-0.88
				C149.46,410.43,149.41,410.08,149.44,409.71z M133.62,418.62l0.31-5.86c0,0.02,0.14,0.35,0.42,0.99
				c0.28,0.64,0.47,1.05,0.56,1.23c0.09,0.19,0.31,0.58,0.64,1.17c0.33,0.6,0.62,1.02,0.85,1.28c0.24,0.26,0.58,0.61,1.01,1.05
				c0.44,0.44,0.87,0.76,1.29,0.94c0.42,0.19,0.93,0.35,1.52,0.51c0.59,0.15,1.22,0.22,1.88,0.2c1.2-0.04,2.15-0.59,2.84-1.65
				c0.69-1.06,0.87-2.2,0.51-3.41c-0.21-0.68-0.81-1.32-1.82-1.93c-1.01-0.61-2.26-1.24-3.78-1.91c-1.51-0.67-2.63-1.25-3.36-1.74
				c-1.06-0.72-1.85-1.56-2.39-2.51c-0.54-0.96-0.75-1.9-0.64-2.84c0.11-0.94,0.47-1.81,1.06-2.62c0.59-0.81,1.52-1.47,2.8-1.96
				c1.27-0.49,2.76-0.74,4.46-0.74c3.46,0,5.98,0.76,7.55,2.28l-0.28,4.6c-0.29-0.49-0.6-0.97-0.93-1.43
				c-0.33-0.46-0.82-1.06-1.48-1.8c-0.65-0.74-1.41-1.34-2.27-1.79c-0.86-0.45-1.74-0.68-2.63-0.68c-0.83,0-1.6,0.31-2.3,0.93
				c-0.7,0.62-1.06,1.36-1.06,2.22c0,0.97,0.41,1.83,1.24,2.58c0.83,0.75,1.78,1.33,2.84,1.74c1.07,0.41,2.27,0.93,3.61,1.56
				c1.34,0.63,2.36,1.26,3.06,1.9c0.79,0.7,1.29,1.53,1.51,2.48c0.22,0.96,0.22,1.85,0,2.68c-0.22,0.83-0.58,1.6-1.07,2.3
				c-1.41,1.97-3.95,2.96-7.62,2.96c-1.95,0-3.65-0.24-5.11-0.73C135.41,420.13,134.32,419.46,133.62,418.62z M176.51,450.15
				c0,0-10.34,1.15-14.56,0.85c-5-0.35-9.54-2.87-14.15-4.66c-2.79-1.08-9.71-4.71-9.71-4.71l38.92-1.24L176.51,450.15z"/>
		</g>
		<g id="Milton_3_">
			<path class="st2" d="M105.54,460.01h5.64l5.05,24.09l4.88-19.03h5.49v0.99c-0.38,0-0.8,0.26-1.27,0.77
				c-0.47,0.51-0.7,1.14-0.7,1.89v18.81c0,0.75,0.23,1.37,0.7,1.89c0.47,0.51,0.89,0.77,1.27,0.77v0.99h-7.47v-0.99
				c0.38,0,0.8-0.26,1.27-0.77s0.7-1.14,0.7-1.89v-14.07c-0.62,1.96-1.55,4.91-2.77,8.86c-1.22,3.94-2.14,6.9-2.75,8.86h-0.91
				c-0.62-1.98-1.57-4.95-2.85-8.9c-1.27-3.95-2.23-14.66-2.87-16.64v21.9c0,0.75,0.23,1.37,0.7,1.89s0.89,0.77,1.27,0.77v0.99h-5.4
				v-0.99c0.38,0,0.8-0.26,1.27-0.77c0.47-0.51,0.7-1.14,0.7-1.89V464.3c0-0.75-0.23-1.37-0.7-1.89c-0.47-0.51-0.89-0.77-1.27-0.77
				V460.01z"/>
			<path class="st2" d="M128.46,467.78h7.47v1.02c-0.38,0-0.8,0.26-1.27,0.79c-0.47,0.53-0.7,1.17-0.7,1.94v15.89
				c0,0.77,0.23,1.41,0.7,1.94c0.47,0.53,0.89,0.79,1.27,0.79v1.02h-7.47v-1.02c0.38,0,0.8-0.26,1.27-0.79
				c0.47-0.53,0.7-1.17,0.7-1.94v-15.89c0-0.77-0.23-1.41-0.7-1.94c-0.47-0.53-0.89-0.79-1.27-0.79V467.78z"/>
			<path class="st2" d="M137.14,467.78h7.47v1.02c-0.38,0-0.8,0.26-1.27,0.79c-0.47,0.53-0.7,1.17-0.7,1.94v18.42h4.31
				c0.49,0,0.95-0.1,1.38-0.3c0.43-0.2,0.81-0.5,1.15-0.92c0.34-0.42,0.6-0.76,0.78-1.02c0.18-0.26,0.4-0.66,0.65-1.18
				c0.25-0.53,0.39-0.8,0.41-0.82l-0.17,5.45h-14v-1.02c0.38,0,0.8-0.26,1.27-0.79c0.47-0.53,0.7-1.17,0.7-1.94v-15.89
				c0-0.77-0.23-1.41-0.7-1.94c-0.47-0.53-0.89-0.79-1.27-0.79V467.78z"/>
			<path class="st2" d="M148.24,467.78h15.79l0.37,5.45c-0.39-0.77-1.14-1.59-2.24-2.48c-1.1-0.89-3.1-1.36-4.26-1.36v18.03
				c0,0.77,0.24,1.41,0.71,1.94c0.48,0.53,0.9,0.79,1.28,0.79l-0.02,1.02h-7.44l-0.02-1.02c0.38,0,0.8-0.26,1.28-0.79
				c0.48-0.53,0.71-1.17,0.71-1.94v-18h-0.86c-1.17,0-2.3,0.44-3.4,1.31c-1.1,0.88-1.85,1.69-2.24,2.43L148.24,467.78z"/>
			<path class="st2" d="M167.04,471.2c1.68-2.28,3.71-3.42,6.07-3.42c2.37,0,4.39,1.14,6.06,3.42c1.68,2.28,2.51,5.03,2.51,8.26
				c0,3.23-0.84,5.99-2.51,8.27c-1.68,2.29-3.7,3.43-6.06,3.43c-2.37,0-4.39-1.14-6.07-3.43c-1.68-2.29-2.53-5.05-2.53-8.27
				C164.51,476.23,165.35,473.47,167.04,471.2z M176.31,471.89c-0.84-1.77-1.91-2.66-3.2-2.66c-1.3,0-2.37,0.89-3.22,2.66
				c-0.85,1.78-1.27,4.3-1.27,7.57c0,3.27,0.42,5.8,1.27,7.59c0.85,1.78,1.92,2.68,3.22,2.68c1.3,0,2.37-0.89,3.2-2.68
				c0.84-1.79,1.26-4.31,1.26-7.59C177.57,476.19,177.15,473.66,176.31,471.89z"/>
			<path class="st2" d="M186.69,464.97l8.95,18.69v-19.43c0-0.73-0.24-1.35-0.71-1.85c-0.48-0.5-0.9-0.75-1.28-0.75l0.02-1.61h5.37
				l0.02,1.61c-0.38,0-0.81,0.25-1.28,0.75c-0.48,0.5-0.71,1.12-0.71,1.85v26.94h-1.45l-10.55-18.15v14.57
				c0,0.73,0.23,1.35,0.7,1.85s0.89,0.75,1.27,0.75v0.97h-5.4v-0.97c0.38,0,0.8-0.25,1.27-0.75s0.7-1.12,0.7-1.85v-15.76
				c0-0.73-0.19-4.62-0.66-5.13c-0.47-0.5-0.89-0.75-1.27-0.75v-0.97H186.69z"/>
		</g>
		<g id="_x31_970_3_">
			<path class="st2" d="M79.64,435.45c-0.07-0.04-0.14-0.1-0.21-0.2c-0.07-0.1-0.11-0.18-0.11-0.24c0-0.05,0.01-0.08,0.04-0.11
				c2-1.36,3.02-2.04,3.07-2.04h0.04c0.09,0,0.17,0.11,0.21,0.34c-0.12,0.39-0.18,0.95-0.18,1.67v6.98c0,0.69,0.05,1.21,0.14,1.58
				c0.02,0.08,0.2,0.16,0.52,0.24c0.32,0.08,0.55,0.12,0.66,0.12c0.05,0,0.07,0.11,0.07,0.32c0,0.11-0.01,0.17-0.02,0.19
				c-1.18-0.06-1.9-0.09-2.14-0.09c-0.19,0-0.87,0.03-2.06,0.09c-0.05-0.05-0.07-0.14-0.07-0.29c0-0.15,0.02-0.22,0.07-0.22
				c0.15,0,0.39-0.04,0.72-0.12c0.32-0.08,0.5-0.16,0.52-0.24c0.07-0.28,0.11-0.62,0.11-1.01v-6.38c0-0.34-0.01-0.6-0.04-0.78
				c-0.02-0.18-0.05-0.29-0.08-0.33c-0.03-0.04-0.07-0.06-0.13-0.06c-0.07,0-0.17,0.04-0.31,0.11c-0.14,0.07-0.29,0.16-0.47,0.27
				C79.82,435.34,79.7,435.41,79.64,435.45z"/>
			<path class="st2" d="M90.31,432.77c0.97,0,1.77,0.38,2.41,1.14c0.64,0.76,0.96,1.65,0.96,2.65c0,0.92-0.19,1.82-0.57,2.7
				c-0.38,0.88-0.87,1.65-1.46,2.3c-0.6,0.66-1.23,1.22-1.9,1.7c-0.67,0.48-1.33,0.84-1.99,1.07c-0.07,0-0.15-0.07-0.25-0.21
				c-0.09-0.14-0.14-0.24-0.14-0.3c0.91-0.35,1.78-0.94,2.62-1.75c0.84-0.81,1.42-1.8,1.74-2.97c0.02-0.12,0.02-0.18-0.02-0.18
				c-0.02,0.01-0.04,0.02-0.05,0.04c-0.13,0.15-0.4,0.3-0.82,0.43c-0.41,0.13-0.78,0.19-1.1,0.19c-0.85,0-1.57-0.32-2.16-0.96
				c-0.59-0.64-0.89-1.4-0.89-2.29c0-0.98,0.36-1.82,1.09-2.53C88.51,433.12,89.35,432.77,90.31,432.77z M92.15,436.6
				c0-0.84-0.2-1.57-0.59-2.2c-0.4-0.63-0.91-0.94-1.53-0.94c-0.51,0-0.95,0.24-1.31,0.71c-0.37,0.47-0.55,1.09-0.55,1.86
				c0,0.77,0.19,1.41,0.58,1.92c0.39,0.51,0.95,0.77,1.67,0.77c0.32,0,0.63-0.09,0.92-0.26c0.3-0.17,0.48-0.35,0.57-0.54
				C92.06,437.57,92.14,437.13,92.15,436.6z"/>
			<path class="st2" d="M211.89,434.34c-0.2,0-0.38,0.08-0.54,0.25c-0.16,0.17-0.27,0.33-0.35,0.5c-0.07,0.17-0.15,0.38-0.23,0.66
				c-0.01,0.05-0.09,0.08-0.25,0.09c-0.15,0.01-0.27,0-0.35-0.04c0.02-0.11,0.11-0.5,0.26-1.18c0.15-0.68,0.25-1.17,0.29-1.48
				c0.01-0.14,0.11-0.21,0.28-0.21h5.12c0.19,0,0.43-0.01,0.73-0.03c0.3-0.02,0.45-0.03,0.46-0.03c0.08,0,0.12,0.05,0.12,0.16
				c0,0.07-0.02,0.16-0.07,0.27c-0.05,0.11-0.12,0.27-0.22,0.47c-0.1,0.2-0.17,0.35-0.22,0.44l-4.66,9.98
				c-0.04,0.04-0.1,0.05-0.19,0.05c-0.13,0-0.27-0.06-0.41-0.19c-0.14-0.12-0.21-0.23-0.21-0.31l4.71-9.41H211.89z"/>
			<path class="st2" d="M218.51,438.54c0-1.61,0.35-2.96,1.05-4.06c0.7-1.1,1.64-1.65,2.82-1.65c1.19,0,2.14,0.55,2.83,1.64
				c0.69,1.09,1.04,2.45,1.04,4.07c0,1.61-0.35,2.96-1.05,4.06c-0.7,1.1-1.64,1.65-2.82,1.65c-1.17,0-2.11-0.55-2.81-1.66
				C218.87,441.48,218.51,440.13,218.51,438.54z M220.07,438.52c0,1.42,0.21,2.61,0.62,3.59c0.41,0.97,0.95,1.46,1.59,1.46
				c0.76,0,1.34-0.49,1.76-1.47c0.42-0.98,0.63-2.2,0.63-3.67c0-1.41-0.21-2.58-0.62-3.52c-0.41-0.94-0.95-1.41-1.59-1.41
				c-0.72,0-1.3,0.48-1.74,1.44C220.29,435.9,220.07,437.09,220.07,438.52z"/>
		</g>
		<path id="Aro_3_" class="st2" d="M149.97,514.54c-48.35,0-87.68-34.09-87.68-75.99c0-41.9,39.33-75.99,87.68-75.99
			c48.34,0,87.68,34.09,87.68,75.99C237.64,480.46,198.31,514.54,149.97,514.54z M149.97,365.09c-46.96,0-85.16,32.96-85.16,73.47
			c0,40.51,38.2,73.47,85.16,73.47s85.16-32.96,85.16-73.47C235.13,398.05,196.93,365.09,149.97,365.09z"/>
		<g id="CongresosyEventos_3_">
			<path class="st2" d="M63.13,528.89c0.52-0.9,1.22-1.59,2.11-2.09c0.89-0.49,1.84-0.74,2.86-0.74c0.31,0,0.57,0.02,0.78,0.05
				c0.21,0.04,0.46,0.1,0.75,0.19l-0.17,0.71c-0.65-0.17-1.16-0.26-1.56-0.26c-1.43,0-2.59,0.46-3.48,1.37
				c-0.89,0.91-1.34,2.11-1.34,3.6c0,1.69,0.46,2.96,1.37,3.81c0.91,0.85,2.2,1.28,3.85,1.28c0.55,0,1.22-0.12,2.02-0.36l-0.05,0.62
				c-0.62,0.23-1.34,0.35-2.17,0.35c-1.77,0-3.17-0.48-4.2-1.45c-1.03-0.97-1.54-2.31-1.54-4.02
				C62.36,530.8,62.62,529.78,63.13,528.89z"/>
			<path class="st2" d="M73.22,536.06c-0.99-0.98-1.48-2.38-1.48-4.21c0-1.75,0.51-3.16,1.52-4.23c1.01-1.07,2.19-1.6,3.55-1.6
				c1.32,0,2.47,0.5,3.43,1.5c0.96,1,1.44,2.34,1.44,4.03c0,1.84-0.5,3.3-1.51,4.36c-1.01,1.07-2.2,1.6-3.57,1.6
				C75.33,537.52,74.2,537.03,73.22,536.06z M74.49,527.31c-0.66,0.47-1.16,1.11-1.51,1.9c-0.35,0.79-0.52,1.67-0.52,2.64
				c0,1.64,0.44,2.9,1.31,3.78c0.87,0.88,1.9,1.32,3.09,1.32c1.06,0,2-0.48,2.84-1.45c0.84-0.96,1.26-2.23,1.26-3.79
				c0-1.67-0.43-2.94-1.28-3.81s-1.89-1.31-3.11-1.31C75.83,526.6,75.14,526.83,74.49,527.31z"/>
			<path class="st2" d="M86.07,527.34c2.27,3.24,3.76,5.43,4.49,6.58c0.72,1.15,1.1,1.78,1.14,1.88h0.03
				c-0.06-1.25-0.08-2.49-0.08-3.7v-2.28c0-1.53-0.02-2.73-0.05-3.6h0.74c-0.07,1.29-0.1,3.13-0.1,5.52c0,1.08,0.01,2.04,0.02,2.87
				c0.01,0.83,0.04,1.69,0.08,2.57h-0.48c-0.01,0-0.39-0.59-1.14-1.76c-0.75-1.17-1.42-2.19-2.01-3.05l-1.93-2.81l-0.63-0.93
				c-0.28-0.4-0.49-0.71-0.64-0.93c-0.15-0.22-0.25-0.38-0.3-0.49h-0.03c0.05,1.33,0.07,2.54,0.07,3.64c0,0.51-0.01,1.24-0.02,2.18
				l-0.01,1.9c0,0.91,0.01,1.66,0.04,2.25H84.5c0.1-2.17,0.14-4.09,0.14-5.77c0-1.7-0.05-3.43-0.14-5.19h0.79
				c0,0.02,0.1,0.17,0.31,0.46L86.07,527.34z"/>
			<path class="st2" d="M96.87,527.68c1.14-1.08,2.58-1.62,4.32-1.62c0.59,0,1.18,0.09,1.75,0.26l-0.15,0.77
				c-0.95-0.23-1.65-0.35-2.1-0.35c-1.45,0-2.61,0.46-3.49,1.39c-0.88,0.92-1.32,2.08-1.32,3.47c0,1.73,0.45,3.04,1.35,3.91
				c0.9,0.87,2.2,1.3,3.91,1.3c0.33,0,0.61-0.01,0.85-0.04c0.24-0.03,0.52-0.08,0.86-0.15c-0.05-0.45-0.07-1.19-0.07-2.21
				c0-0.29-0.01-0.66-0.04-1.11l-0.03-0.7h0.86c-0.02,0.24-0.05,0.8-0.07,1.7c-0.03,0.9-0.04,1.63-0.04,2.2c0,0.27,0,0.44,0.01,0.52
				c-0.58,0.25-1.39,0.38-2.43,0.38c-1.86,0-3.3-0.49-4.33-1.46c-1.03-0.97-1.54-2.33-1.54-4.08
				C95.16,530.16,95.73,528.76,96.87,527.68z"/>
			<path class="st2" d="M108.95,526.17c0.33,0,0.59,0,0.79-0.01c1.17,0,2.04,0.22,2.63,0.66c0.59,0.44,0.88,1.1,0.88,1.98
				c0,0.7-0.19,1.3-0.56,1.8c-0.37,0.51-0.88,0.9-1.54,1.18v0.05c0.66,0.18,1.22,0.69,1.7,1.53c0.48,0.84,1.03,2.11,1.65,3.81h-0.76
				c-0.39-1.03-0.78-1.95-1.19-2.77c-0.41-0.82-0.76-1.35-1.04-1.6c-0.29-0.24-0.56-0.41-0.8-0.5c-0.25-0.09-0.77-0.13-1.58-0.13
				c-0.79,0-1.33,0.01-1.62,0.02c0,2.32,0.04,3.98,0.11,4.98h-0.92c0.06-1.14,0.1-2.15,0.13-3.01c0.03-0.86,0.05-1.78,0.05-2.76
				c0-1.86-0.05-3.59-0.14-5.19h0.98L108.95,526.17z M109.35,531.55c0.95,0,1.71-0.24,2.29-0.71c0.58-0.47,0.87-1.1,0.87-1.87
				c0-0.79-0.25-1.35-0.75-1.68c-0.5-0.34-1.33-0.51-2.49-0.51c-0.69,0-1.29,0.02-1.79,0.05c0.02,0.4,0.03,0.94,0.03,1.62
				c0,0.58,0,1.03-0.01,1.35l-0.01,1.73c0.12,0.01,0.33,0.02,0.62,0.02H109.35z"/>
			<path class="st2" d="M117.28,537.18l0.06-1.76c0.07-1.7,0.1-3.03,0.1-4.02c0-1.02-0.03-2.12-0.08-3.31
				c-0.05-1.18-0.08-1.81-0.08-1.89h5.97l-0.03,0.69c-1.24-0.05-2.97-0.07-5.18-0.07c0.02,1.25,0.03,2.67,0.03,4.28
				c1.76,0,3.14-0.03,4.14-0.1v0.76c-1.34-0.06-2.72-0.08-4.14-0.08v1.86c0,1.21,0.01,2.22,0.04,3.03c2.07,0,3.96-0.04,5.66-0.13
				l-0.03,0.74H117.28z"/>
			<path class="st2" d="M126.24,529.57c0.13,0.24,0.37,0.49,0.72,0.74c0.35,0.25,0.83,0.49,1.46,0.72c0.62,0.23,1.17,0.47,1.64,0.72
				c0.47,0.24,0.84,0.51,1.1,0.78c0.26,0.28,0.45,0.57,0.55,0.88c0.11,0.31,0.16,0.66,0.16,1.06c0,0.98-0.34,1.72-1.02,2.21
				c-0.68,0.49-1.67,0.74-2.96,0.74c-1.02,0-1.89-0.11-2.63-0.33l0.17-0.79c0.48,0.18,0.92,0.3,1.34,0.37
				c0.42,0.07,0.86,0.1,1.33,0.1c1.06,0,1.83-0.17,2.33-0.52c0.5-0.35,0.75-0.92,0.75-1.72c0-0.62-0.19-1.14-0.58-1.54
				s-1.14-0.81-2.26-1.21s-1.89-0.83-2.33-1.28c-0.44-0.45-0.66-1.01-0.66-1.7c0-0.83,0.31-1.5,0.93-2
				c0.62-0.51,1.38-0.76,2.28-0.76c1,0,1.86,0.1,2.57,0.29l-0.17,0.71c-0.52-0.12-0.96-0.21-1.33-0.27
				c-0.36-0.05-0.74-0.08-1.12-0.08c-0.79,0-1.39,0.18-1.82,0.53c-0.43,0.36-0.64,0.8-0.64,1.34
				C126.04,529,126.1,529.32,126.24,529.57z"/>
			<path class="st2" d="M135.28,536.06c-0.99-0.98-1.48-2.38-1.48-4.21c0-1.75,0.51-3.16,1.52-4.23c1.01-1.07,2.19-1.6,3.55-1.6
				c1.32,0,2.47,0.5,3.43,1.5c0.96,1,1.44,2.34,1.44,4.03c0,1.84-0.5,3.3-1.51,4.36c-1.01,1.07-2.2,1.6-3.57,1.6
				C137.39,537.52,136.27,537.03,135.28,536.06z M136.55,527.31c-0.66,0.47-1.16,1.11-1.51,1.9c-0.35,0.79-0.52,1.67-0.52,2.64
				c0,1.64,0.44,2.9,1.31,3.78c0.87,0.88,1.9,1.32,3.09,1.32c1.06,0,2-0.48,2.84-1.45c0.84-0.96,1.26-2.23,1.26-3.79
				c0-1.67-0.43-2.94-1.28-3.81c-0.85-0.87-1.89-1.31-3.11-1.31C137.9,526.6,137.21,526.83,136.55,527.31z"/>
			<path class="st2" d="M146.68,529.57c0.13,0.24,0.37,0.49,0.72,0.74c0.35,0.25,0.83,0.49,1.46,0.72c0.62,0.23,1.17,0.47,1.64,0.72
				c0.47,0.24,0.84,0.51,1.1,0.78c0.26,0.28,0.45,0.57,0.55,0.88c0.11,0.31,0.16,0.66,0.16,1.06c0,0.98-0.34,1.72-1.02,2.21
				c-0.68,0.49-1.67,0.74-2.96,0.74c-1.02,0-1.89-0.11-2.63-0.33l0.17-0.79c0.48,0.18,0.92,0.3,1.34,0.37
				c0.42,0.07,0.86,0.1,1.33,0.1c1.06,0,1.83-0.17,2.33-0.52c0.5-0.35,0.75-0.92,0.75-1.72c0-0.62-0.19-1.14-0.58-1.54
				c-0.39-0.4-1.14-0.81-2.26-1.21s-1.89-0.83-2.33-1.28c-0.44-0.45-0.66-1.01-0.66-1.7c0-0.83,0.31-1.5,0.93-2
				c0.62-0.51,1.38-0.76,2.28-0.76c1,0,1.86,0.1,2.57,0.29l-0.17,0.71c-0.52-0.12-0.96-0.21-1.33-0.27
				c-0.36-0.05-0.74-0.08-1.12-0.08c-0.79,0-1.39,0.18-1.82,0.53c-0.43,0.36-0.64,0.8-0.64,1.34
				C146.48,529,146.55,529.32,146.68,529.57z"/>
			<path class="st2" d="M162.04,537.18h-0.88l0.01-0.2c0.06-1.7,0.09-2.79,0.09-3.27c0-0.92-0.34-1.92-1.01-2.99
				c-0.67-1.07-1.34-2.07-2.01-2.98c-0.67-0.92-1-1.43-1-1.53h0.93c0,0.15,0.54,1.01,1.63,2.58c1.09,1.58,1.71,2.84,1.87,3.8h0.07
				c0.01-0.39,0.18-0.9,0.5-1.53c0.32-0.63,0.72-1.28,1.19-1.97c0.47-0.69,0.9-1.32,1.3-1.91c0.4-0.59,0.6-0.91,0.6-0.97h0.83
				c0,0.17-0.42,0.82-1.27,1.96c-0.85,1.14-1.55,2.16-2.1,3.06c-0.55,0.9-0.82,1.74-0.82,2.5C161.98,534.8,162,535.95,162.04,537.18
				z"/>
			<path class="st2" d="M172,537.18l0.06-1.76c0.07-1.7,0.1-3.03,0.1-4.02c0-1.02-0.03-2.12-0.08-3.31
				c-0.05-1.18-0.08-1.81-0.08-1.89h5.97l-0.03,0.69c-1.24-0.05-2.97-0.07-5.18-0.07c0.02,1.25,0.03,2.67,0.03,4.28
				c1.76,0,3.14-0.03,4.14-0.1v0.76c-1.34-0.06-2.72-0.08-4.14-0.08v1.86c0,1.21,0.01,2.22,0.04,3.03c2.07,0,3.96-0.04,5.66-0.13
				l-0.03,0.74H172z"/>
			<path class="st2" d="M185.76,531.68c-0.52,1.16-0.97,2.29-1.36,3.41c-0.39,1.12-0.59,1.81-0.59,2.08h-0.74
				c0-0.48-0.33-1.58-0.98-3.32c-0.65-1.73-1.32-3.37-2.01-4.92s-1.03-2.45-1.03-2.74h0.88c0,0.41,0.57,2,1.72,4.78
				s1.75,4.51,1.82,5.21h0.03c0-0.27,0.13-0.75,0.38-1.45c0.25-0.7,0.75-1.91,1.48-3.64l0.55-1.29c0.53-1.26,0.9-2.13,1.09-2.63
				c0.19-0.49,0.29-0.82,0.29-0.99h0.79c0,0.15-0.09,0.45-0.28,0.9c-0.19,0.45-0.53,1.23-1.04,2.34L185.76,531.68z"/>
			<path class="st2" d="M190.04,537.18l0.06-1.76c0.07-1.7,0.1-3.03,0.1-4.02c0-1.02-0.03-2.12-0.08-3.31
				c-0.05-1.18-0.08-1.81-0.08-1.89H196l-0.03,0.69c-1.24-0.05-2.97-0.07-5.18-0.07c0.02,1.25,0.03,2.67,0.03,4.28
				c1.76,0,3.14-0.03,4.14-0.1v0.76c-1.34-0.06-2.72-0.08-4.14-0.08v1.86c0,1.21,0.01,2.22,0.04,3.03c2.07,0,3.96-0.04,5.66-0.13
				l-0.03,0.74H190.04z"/>
			<path class="st2" d="M200.45,527.34c2.27,3.24,3.76,5.43,4.49,6.58c0.72,1.15,1.1,1.78,1.14,1.88h0.03
				c-0.06-1.25-0.08-2.49-0.08-3.7v-2.28c0-1.53-0.02-2.73-0.05-3.6h0.74c-0.07,1.29-0.1,3.13-0.1,5.52c0,1.08,0.01,2.04,0.02,2.87
				c0.01,0.83,0.04,1.69,0.08,2.57h-0.48c-0.01,0-0.39-0.59-1.14-1.76c-0.75-1.17-1.42-2.19-2.01-3.05l-1.93-2.81l-0.63-0.93
				c-0.28-0.4-0.49-0.71-0.64-0.93c-0.15-0.22-0.25-0.38-0.3-0.49h-0.03c0.05,1.33,0.07,2.54,0.07,3.64c0,0.51-0.01,1.24-0.02,2.18
				l-0.01,1.9c0,0.91,0.01,1.66,0.04,2.25h-0.74c0.1-2.17,0.14-4.09,0.14-5.77c0-1.7-0.05-3.43-0.14-5.19h0.79
				c0,0.02,0.1,0.17,0.31,0.46L200.45,527.34z"/>
			<path class="st2" d="M215.67,526.87c-1.23-0.03-2.04-0.04-2.42-0.04c-0.06,1.31-0.08,2.83-0.08,4.55c0,1.84,0.03,3.77,0.08,5.79
				h-0.88c0.09-2.35,0.13-4.28,0.13-5.77c0-0.79-0.01-1.52-0.03-2.17c-0.02-0.66-0.05-1.46-0.09-2.4c-0.44,0-1.1,0.01-1.97,0.04
				l-1.67,0.04v-0.71h8.13l-0.03,0.69L215.67,526.87z"/>
			<path class="st2" d="M219.47,536.06c-0.99-0.98-1.48-2.38-1.48-4.21c0-1.75,0.51-3.16,1.52-4.23c1.01-1.07,2.19-1.6,3.55-1.6
				c1.32,0,2.47,0.5,3.43,1.5c0.96,1,1.44,2.34,1.44,4.03c0,1.84-0.5,3.3-1.51,4.36c-1.01,1.07-2.2,1.6-3.57,1.6
				C221.58,537.52,220.46,537.03,219.47,536.06z M220.74,527.31c-0.66,0.47-1.16,1.11-1.51,1.9c-0.35,0.79-0.52,1.67-0.52,2.64
				c0,1.64,0.44,2.9,1.31,3.78c0.87,0.88,1.9,1.32,3.09,1.32c1.06,0,2-0.48,2.84-1.45c0.84-0.96,1.26-2.23,1.26-3.79
				c0-1.67-0.43-2.94-1.28-3.81s-1.89-1.31-3.11-1.31C222.09,526.6,221.4,526.83,220.74,527.31z"/>
			<path class="st2" d="M230.87,529.57c0.13,0.24,0.37,0.49,0.72,0.74c0.35,0.25,0.83,0.49,1.46,0.72c0.62,0.23,1.17,0.47,1.64,0.72
				c0.47,0.24,0.84,0.51,1.1,0.78c0.26,0.28,0.45,0.57,0.55,0.88c0.11,0.31,0.16,0.66,0.16,1.06c0,0.98-0.34,1.72-1.02,2.21
				c-0.68,0.49-1.67,0.74-2.96,0.74c-1.02,0-1.89-0.11-2.63-0.33l0.17-0.79c0.48,0.18,0.92,0.3,1.34,0.37
				c0.42,0.07,0.86,0.1,1.33,0.1c1.06,0,1.83-0.17,2.33-0.52c0.5-0.35,0.75-0.92,0.75-1.72c0-0.62-0.19-1.14-0.58-1.54
				c-0.39-0.4-1.14-0.81-2.26-1.21c-1.12-0.41-1.89-0.83-2.33-1.28c-0.44-0.45-0.66-1.01-0.66-1.7c0-0.83,0.31-1.5,0.93-2
				c0.62-0.51,1.38-0.76,2.28-0.76c1,0,1.86,0.1,2.57,0.29l-0.17,0.71c-0.52-0.12-0.96-0.21-1.33-0.27
				c-0.36-0.05-0.74-0.08-1.12-0.08c-0.79,0-1.39,0.18-1.82,0.53c-0.43,0.36-0.64,0.8-0.64,1.34
				C230.67,529,230.74,529.32,230.87,529.57z"/>
		</g>
	</g>
</g>
<g>
	<rect class="st4" width="300" height="300"/>
	<g>
		<g>
			<path class="st2" d="M161.86,108.06c-0.04-0.86-0.27-1.58-0.68-2.14c-0.41-0.56-1.09-0.85-2.03-0.86h-0.62
				c-0.47,0-0.79,0.01-0.95,0.02v6.75h1.93C161.14,111.82,161.93,110.57,161.86,108.06z"/>
			<path class="st2" d="M198.68,141.72c-1.12-8.64-10.06-8.46-20.58-6.27c0.52-6.49,1.42-16.79,2.28-21.22
				c1.48-7.62,5.57-30.47,5.57-30.47h-0.15c0-4-15.04-7.23-33.58-7.23c-18.54,0-33.58,3.24-33.58,7.23c0,0.19,0.04,0.37,0.11,0.55
				c0,0,4.17,22.43,5.62,29.91c0.86,4.44,1.77,14.74,2.28,21.23c-10.52-2.19-19.46-2.37-20.58,6.27c-0.84,6.49,4.7,16.35,46.3,16.35
				C193.98,158.06,199.51,148.2,198.68,141.72z M149.8,107.76c0.03-0.36,0.11-0.69,0.25-0.98c0.4-0.8,0.99-1.4,1.76-1.81
				c0.77-0.41,1.87-0.63,3.27-0.66l0.02-0.02h5.37c1.12,0,2.09,0.33,2.9,1c0.82,0.67,1.22,1.66,1.22,2.97
				c0,0.95-0.21,1.79-0.64,2.54c-0.43,0.75-1.03,1.29-1.8,1.64c1.95,3.08,3.18,5.03,3.71,5.84c2.2,3.29,4.08,5.08,5.66,5.37
				c-1.55,0.14-2.65,0.14-3.3,0.02c-1.41-0.26-2.76-1.2-4.06-2.82c-0.48-0.6-0.99-1.32-1.51-2.16c-0.47-0.75-1.19-1.89-2.17-3.4
				c-0.97-1.52-1.5-2.34-1.59-2.48h-1.33v3.78c0,0.48,0.2,0.88,0.6,1.21c0.4,0.33,0.76,0.5,1.08,0.51v0.64h-6.28v-0.64
				c0.32-0.01,0.67-0.19,1.07-0.51c0.39-0.33,0.59-0.73,0.59-1.21v-11.21c-0.01-0.14-0.05-0.24-0.1-0.31
				c-0.06-0.07-0.15-0.1-0.27-0.08c-0.64,0.1-1.13,0.38-1.48,0.86c-0.35,0.48-0.54,1-0.55,1.56c-0.01,0.56,0.07,1.1,0.26,1.6
				c0.19,0.51,0.45,0.84,0.78,0.99c-0.65,0.19-1.2,0.25-1.66,0.17c-0.46-0.08-0.82-0.24-1.09-0.48c-0.27-0.25-0.46-0.54-0.58-0.88
				C149.82,108.48,149.77,108.12,149.8,107.76z M133.98,116.66l0.31-5.86c0,0.02,0.14,0.35,0.42,0.99c0.28,0.64,0.47,1.05,0.56,1.23
				c0.09,0.19,0.31,0.58,0.64,1.17c0.33,0.6,0.62,1.02,0.85,1.28c0.24,0.26,0.58,0.61,1.01,1.05c0.44,0.44,0.87,0.76,1.29,0.94
				c0.42,0.19,0.93,0.35,1.52,0.51c0.59,0.15,1.22,0.22,1.88,0.2c1.2-0.04,2.15-0.59,2.84-1.65c0.69-1.06,0.87-2.2,0.51-3.41
				c-0.21-0.68-0.81-1.32-1.82-1.93c-1.01-0.61-2.26-1.24-3.78-1.91c-1.51-0.67-2.63-1.25-3.36-1.74c-1.06-0.72-1.85-1.56-2.39-2.51
				c-0.54-0.96-0.75-1.9-0.64-2.84c0.11-0.94,0.47-1.81,1.06-2.62c0.59-0.81,1.52-1.47,2.8-1.96c1.27-0.49,2.76-0.74,4.46-0.74
				c3.46,0,5.98,0.76,7.55,2.28l-0.28,4.6c-0.29-0.49-0.6-0.97-0.93-1.43c-0.33-0.46-0.82-1.06-1.48-1.8
				c-0.65-0.74-1.41-1.34-2.27-1.79c-0.86-0.45-1.74-0.68-2.63-0.68c-0.83,0-1.6,0.31-2.3,0.93c-0.7,0.62-1.06,1.36-1.06,2.22
				c0,0.97,0.41,1.83,1.24,2.58c0.83,0.75,1.78,1.33,2.84,1.74c1.07,0.41,2.27,0.93,3.61,1.56c1.34,0.63,2.36,1.26,3.06,1.9
				c0.79,0.7,1.29,1.53,1.51,2.48c0.22,0.96,0.22,1.85,0,2.68c-0.22,0.83-0.58,1.6-1.07,2.3c-1.41,1.97-3.95,2.96-7.62,2.96
				c-1.95,0-3.65-0.24-5.11-0.73C135.76,118.17,134.68,117.51,133.98,116.66z M176.87,148.19c0,0-10.34,1.15-14.56,0.85
				c-5-0.35-9.54-2.87-14.15-4.66c-2.79-1.08-9.71-4.71-9.71-4.71l38.92-1.24L176.87,148.19z"/>
		</g>
		<g id="Milton_1_">
			<path class="st2" d="M105.9,158.05h5.64l5.05,24.09l4.88-19.03h5.49v0.99c-0.38,0-0.8,0.26-1.27,0.77
				c-0.47,0.51-0.7,1.14-0.7,1.89v18.81c0,0.75,0.23,1.37,0.7,1.89c0.47,0.51,0.89,0.77,1.27,0.77v0.99h-7.47v-0.99
				c0.38,0,0.8-0.26,1.27-0.77c0.47-0.51,0.7-1.14,0.7-1.89v-14.07c-0.62,1.96-1.55,4.91-2.77,8.86c-1.22,3.94-2.14,6.9-2.75,8.86
				h-0.91c-0.62-1.98-1.57-4.95-2.85-8.9c-1.27-3.95-2.23-14.66-2.87-16.64v21.9c0,0.75,0.23,1.37,0.7,1.89
				c0.47,0.51,0.89,0.77,1.27,0.77v0.99h-5.4v-0.99c0.38,0,0.8-0.26,1.27-0.77c0.47-0.51,0.7-1.14,0.7-1.89v-23.21
				c0-0.75-0.23-1.37-0.7-1.89c-0.47-0.51-0.89-0.77-1.27-0.77V158.05z"/>
			<path class="st2" d="M128.82,165.83h7.47v1.02c-0.38,0-0.8,0.26-1.27,0.79c-0.47,0.53-0.7,1.17-0.7,1.94v15.89
				c0,0.77,0.23,1.41,0.7,1.94c0.47,0.53,0.89,0.79,1.27,0.79v1.02h-7.47v-1.02c0.38,0,0.8-0.26,1.27-0.79
				c0.47-0.53,0.7-1.17,0.7-1.94v-15.89c0-0.77-0.23-1.41-0.7-1.94c-0.47-0.53-0.89-0.79-1.27-0.79V165.83z"/>
			<path class="st2" d="M137.49,165.83h7.47v1.02c-0.38,0-0.8,0.26-1.27,0.79c-0.47,0.53-0.7,1.17-0.7,1.94v18.42h4.31
				c0.49,0,0.95-0.1,1.38-0.3c0.43-0.2,0.81-0.5,1.15-0.92c0.34-0.42,0.6-0.76,0.78-1.02c0.18-0.26,0.4-0.66,0.65-1.18
				c0.25-0.53,0.39-0.8,0.41-0.82l-0.17,5.45h-14v-1.02c0.38,0,0.8-0.26,1.27-0.79c0.47-0.53,0.7-1.17,0.7-1.94v-15.89
				c0-0.77-0.23-1.41-0.7-1.94c-0.47-0.53-0.89-0.79-1.27-0.79V165.83z"/>
			<path class="st2" d="M148.6,165.83h15.79l0.37,5.45c-0.39-0.77-1.14-1.59-2.24-2.48c-1.1-0.89-3.1-1.36-4.26-1.36v18.03
				c0,0.77,0.24,1.41,0.71,1.94c0.48,0.53,0.9,0.79,1.28,0.79l-0.02,1.02h-7.44l-0.02-1.02c0.38,0,0.8-0.26,1.28-0.79
				c0.48-0.53,0.71-1.17,0.71-1.94v-18h-0.86c-1.17,0-2.3,0.44-3.4,1.31c-1.1,0.88-1.85,1.69-2.24,2.43L148.6,165.83z"/>
			<path class="st2" d="M167.4,169.24c1.68-2.28,3.71-3.42,6.07-3.42c2.37,0,4.39,1.14,6.06,3.42c1.68,2.28,2.51,5.03,2.51,8.26
				c0,3.23-0.84,5.99-2.51,8.27c-1.68,2.29-3.7,3.43-6.06,3.43c-2.37,0-4.39-1.14-6.07-3.43c-1.68-2.29-2.53-5.05-2.53-8.27
				C164.87,174.27,165.71,171.52,167.4,169.24z M176.67,169.93c-0.84-1.77-1.91-2.66-3.2-2.66c-1.3,0-2.37,0.89-3.22,2.66
				c-0.85,1.78-1.27,4.3-1.27,7.57c0,3.27,0.42,5.8,1.27,7.59c0.85,1.78,1.92,2.68,3.22,2.68c1.3,0,2.37-0.89,3.2-2.68
				c0.84-1.79,1.26-4.31,1.26-7.59C177.93,174.23,177.51,171.71,176.67,169.93z"/>
			<path class="st2" d="M187.05,163.02L196,181.7v-19.43c0-0.73-0.24-1.35-0.71-1.85c-0.48-0.5-0.9-0.75-1.28-0.75l0.02-1.61h5.37
				l0.02,1.61c-0.38,0-0.81,0.25-1.28,0.75c-0.48,0.5-0.71,1.12-0.71,1.85v26.94h-1.45l-10.55-18.15v14.57
				c0,0.73,0.23,1.35,0.7,1.85c0.47,0.5,0.89,0.75,1.27,0.75v0.97H182v-0.97c0.38,0,0.8-0.25,1.27-0.75c0.47-0.5,0.7-1.12,0.7-1.85
				v-15.76c0-0.73-0.19-4.62-0.66-5.13c-0.47-0.5-0.89-0.75-1.27-0.75v-0.97H187.05z"/>
		</g>
		<g id="_x31_970_1_">
			<path class="st2" d="M80,133.49c-0.07-0.04-0.14-0.1-0.21-0.2c-0.07-0.1-0.11-0.18-0.11-0.24c0-0.05,0.01-0.08,0.04-0.11
				c2-1.36,3.02-2.04,3.07-2.04h0.04c0.09,0,0.17,0.11,0.21,0.34c-0.12,0.39-0.18,0.95-0.18,1.67v6.98c0,0.69,0.05,1.21,0.14,1.58
				c0.02,0.08,0.2,0.16,0.52,0.24c0.32,0.08,0.55,0.12,0.66,0.12c0.05,0,0.07,0.11,0.07,0.32c0,0.11-0.01,0.17-0.02,0.19
				c-1.18-0.06-1.9-0.09-2.14-0.09c-0.19,0-0.87,0.03-2.06,0.09c-0.05-0.05-0.07-0.14-0.07-0.29c0-0.15,0.02-0.22,0.07-0.22
				c0.15,0,0.39-0.04,0.72-0.12c0.32-0.08,0.5-0.16,0.52-0.24c0.07-0.28,0.11-0.62,0.11-1.01v-6.38c0-0.34-0.01-0.6-0.04-0.78
				c-0.02-0.18-0.05-0.29-0.08-0.33c-0.03-0.04-0.07-0.06-0.13-0.06c-0.07,0-0.17,0.04-0.31,0.11c-0.14,0.07-0.29,0.16-0.47,0.27
				C80.18,133.39,80.06,133.46,80,133.49z"/>
			<path class="st2" d="M90.67,130.82c0.97,0,1.77,0.38,2.41,1.14c0.64,0.76,0.96,1.65,0.96,2.65c0,0.92-0.19,1.82-0.57,2.7
				c-0.38,0.88-0.87,1.65-1.46,2.3c-0.6,0.66-1.23,1.22-1.9,1.7c-0.67,0.48-1.33,0.84-1.99,1.07c-0.07,0-0.15-0.07-0.25-0.21
				c-0.09-0.14-0.14-0.24-0.14-0.3c0.91-0.35,1.78-0.94,2.62-1.75c0.84-0.81,1.42-1.8,1.74-2.97c0.02-0.12,0.02-0.18-0.02-0.18
				c-0.02,0.01-0.04,0.02-0.05,0.04c-0.13,0.15-0.4,0.3-0.82,0.43c-0.41,0.13-0.78,0.19-1.1,0.19c-0.85,0-1.57-0.32-2.16-0.96
				c-0.59-0.64-0.89-1.4-0.89-2.29c0-0.98,0.36-1.82,1.09-2.53C88.87,131.17,89.71,130.82,90.67,130.82z M92.51,134.64
				c0-0.84-0.2-1.57-0.59-2.2c-0.4-0.63-0.91-0.94-1.53-0.94c-0.51,0-0.95,0.24-1.31,0.71c-0.37,0.47-0.55,1.09-0.55,1.86
				c0,0.77,0.19,1.41,0.58,1.92c0.39,0.51,0.95,0.77,1.67,0.77c0.32,0,0.63-0.09,0.92-0.26c0.3-0.17,0.48-0.35,0.57-0.54
				C92.42,135.62,92.5,135.18,92.51,134.64z"/>
			<path class="st2" d="M212.24,132.38c-0.2,0-0.38,0.08-0.54,0.25c-0.16,0.17-0.27,0.33-0.35,0.5c-0.07,0.17-0.15,0.38-0.23,0.66
				c-0.01,0.05-0.09,0.08-0.25,0.09c-0.15,0.01-0.27,0-0.35-0.04c0.02-0.11,0.11-0.5,0.26-1.18c0.15-0.68,0.25-1.17,0.29-1.48
				c0.01-0.14,0.11-0.21,0.28-0.21h5.12c0.19,0,0.43-0.01,0.73-0.03c0.3-0.02,0.45-0.03,0.46-0.03c0.08,0,0.12,0.05,0.12,0.16
				c0,0.07-0.02,0.16-0.07,0.27c-0.05,0.11-0.12,0.27-0.22,0.47c-0.1,0.2-0.17,0.35-0.22,0.44l-4.66,9.98
				c-0.04,0.04-0.1,0.05-0.19,0.05c-0.13,0-0.27-0.06-0.41-0.19c-0.14-0.12-0.21-0.23-0.21-0.31l4.71-9.41H212.24z"/>
			<path class="st2" d="M218.87,136.58c0-1.61,0.35-2.96,1.05-4.06c0.7-1.1,1.64-1.65,2.82-1.65c1.19,0,2.14,0.55,2.83,1.64
				c0.69,1.09,1.04,2.45,1.04,4.07c0,1.61-0.35,2.96-1.05,4.06c-0.7,1.1-1.64,1.65-2.82,1.65c-1.17,0-2.11-0.55-2.81-1.66
				C219.22,139.53,218.87,138.18,218.87,136.58z M220.43,136.57c0,1.42,0.21,2.61,0.62,3.59c0.41,0.97,0.95,1.46,1.59,1.46
				c0.76,0,1.34-0.49,1.76-1.47c0.42-0.98,0.63-2.2,0.63-3.67c0-1.41-0.21-2.58-0.62-3.52c-0.41-0.94-0.95-1.41-1.59-1.41
				c-0.72,0-1.3,0.48-1.74,1.44C220.65,133.94,220.43,135.14,220.43,136.57z"/>
		</g>
		<path id="Aro_1_" class="st2" d="M150.32,212.59c-48.35,0-87.68-34.09-87.68-75.99c0-41.9,39.33-75.99,87.68-75.99
			c48.34,0,87.68,34.09,87.68,75.99C238,178.5,198.67,212.59,150.32,212.59z M150.32,63.14c-46.96,0-85.16,32.96-85.16,73.47
			c0,40.51,38.2,73.47,85.16,73.47s85.16-32.96,85.16-73.47C235.49,96.09,197.28,63.14,150.32,63.14z"/>
		<g id="CongresosyEventos_2_">
			<path class="st2" d="M63.49,226.93c0.52-0.9,1.22-1.59,2.11-2.09c0.89-0.49,1.84-0.74,2.86-0.74c0.31,0,0.57,0.02,0.78,0.05
				c0.21,0.04,0.46,0.1,0.75,0.19l-0.17,0.71c-0.65-0.17-1.16-0.26-1.56-0.26c-1.43,0-2.59,0.46-3.48,1.37
				c-0.89,0.91-1.34,2.11-1.34,3.6c0,1.69,0.46,2.96,1.37,3.81c0.91,0.85,2.2,1.28,3.85,1.28c0.55,0,1.22-0.12,2.02-0.36l-0.05,0.62
				c-0.62,0.23-1.34,0.35-2.17,0.35c-1.77,0-3.17-0.48-4.2-1.45c-1.03-0.97-1.54-2.31-1.54-4.02
				C62.72,228.84,62.97,227.83,63.49,226.93z"/>
			<path class="st2" d="M73.57,234.1c-0.99-0.98-1.48-2.38-1.48-4.21c0-1.75,0.51-3.16,1.52-4.23c1.01-1.07,2.19-1.6,3.55-1.6
				c1.32,0,2.47,0.5,3.43,1.5c0.96,1,1.44,2.34,1.44,4.03c0,1.84-0.5,3.3-1.51,4.36c-1.01,1.07-2.2,1.6-3.57,1.6
				C75.69,235.57,74.56,235.08,73.57,234.1z M74.84,225.35c-0.66,0.47-1.16,1.11-1.51,1.9c-0.35,0.79-0.52,1.67-0.52,2.64
				c0,1.64,0.44,2.9,1.31,3.78c0.87,0.88,1.9,1.32,3.09,1.32c1.06,0,2-0.48,2.84-1.45c0.84-0.96,1.26-2.23,1.26-3.79
				c0-1.67-0.43-2.94-1.28-3.81s-1.89-1.31-3.11-1.31C76.19,224.64,75.5,224.88,74.84,225.35z"/>
			<path class="st2" d="M86.43,225.38c2.27,3.24,3.76,5.43,4.49,6.58c0.72,1.15,1.1,1.78,1.14,1.88h0.03
				c-0.06-1.25-0.08-2.49-0.08-3.7v-2.28c0-1.53-0.02-2.73-0.05-3.6h0.74c-0.07,1.29-0.1,3.13-0.1,5.52c0,1.08,0.01,2.04,0.02,2.87
				c0.01,0.83,0.04,1.69,0.08,2.57h-0.48c-0.01,0-0.39-0.59-1.14-1.76c-0.75-1.17-1.42-2.19-2.01-3.05l-1.93-2.81l-0.63-0.93
				c-0.28-0.4-0.49-0.71-0.64-0.93c-0.15-0.22-0.25-0.38-0.3-0.49h-0.03c0.05,1.33,0.07,2.54,0.07,3.64c0,0.51-0.01,1.24-0.02,2.18
				l-0.01,1.9c0,0.92,0.01,1.66,0.04,2.25h-0.74c0.1-2.17,0.14-4.09,0.14-5.77c0-1.7-0.05-3.43-0.14-5.19h0.79
				c0,0.02,0.1,0.17,0.31,0.46L86.43,225.38z"/>
			<path class="st2" d="M97.23,225.73c1.14-1.08,2.58-1.62,4.32-1.62c0.59,0,1.18,0.09,1.75,0.26l-0.15,0.77
				c-0.95-0.23-1.65-0.35-2.1-0.35c-1.45,0-2.61,0.46-3.49,1.39c-0.88,0.92-1.32,2.08-1.32,3.47c0,1.73,0.45,3.04,1.35,3.91
				c0.9,0.87,2.2,1.3,3.91,1.3c0.33,0,0.61-0.01,0.85-0.04c0.24-0.03,0.52-0.08,0.86-0.15c-0.05-0.45-0.07-1.19-0.07-2.21
				c0-0.29-0.01-0.66-0.04-1.11l-0.03-0.7h0.86c-0.02,0.24-0.05,0.8-0.07,1.7c-0.03,0.9-0.04,1.63-0.04,2.2c0,0.27,0,0.44,0.01,0.52
				c-0.58,0.25-1.39,0.38-2.43,0.38c-1.86,0-3.3-0.49-4.33-1.46c-1.03-0.97-1.54-2.33-1.54-4.08
				C95.52,228.2,96.09,226.81,97.23,225.73z"/>
			<path class="st2" d="M109.31,224.21c0.33,0,0.59,0,0.79-0.01c1.17,0,2.04,0.22,2.63,0.66c0.59,0.44,0.88,1.1,0.88,1.98
				c0,0.7-0.19,1.3-0.56,1.8c-0.37,0.51-0.88,0.9-1.54,1.18v0.05c0.66,0.18,1.22,0.69,1.7,1.53c0.48,0.84,1.03,2.11,1.65,3.81h-0.76
				c-0.39-1.03-0.78-1.95-1.19-2.77c-0.41-0.82-0.76-1.35-1.04-1.6c-0.29-0.24-0.56-0.41-0.8-0.5s-0.77-0.13-1.58-0.13
				c-0.79,0-1.33,0.01-1.62,0.02c0,2.32,0.04,3.98,0.11,4.98h-0.92c0.06-1.14,0.1-2.15,0.13-3.01c0.03-0.86,0.05-1.78,0.05-2.76
				c0-1.86-0.05-3.59-0.14-5.19h0.98L109.31,224.21z M109.71,229.6c0.95,0,1.71-0.24,2.29-0.71c0.58-0.47,0.87-1.1,0.87-1.87
				c0-0.79-0.25-1.35-0.75-1.68c-0.5-0.34-1.33-0.51-2.49-0.51c-0.69,0-1.29,0.02-1.79,0.05c0.02,0.4,0.03,0.94,0.03,1.62
				c0,0.58,0,1.03-0.01,1.35l-0.01,1.73c0.12,0.01,0.33,0.02,0.62,0.02H109.71z"/>
			<path class="st2" d="M117.63,235.22l0.06-1.76c0.07-1.7,0.1-3.03,0.1-4.02c0-1.02-0.03-2.12-0.08-3.31
				c-0.05-1.18-0.08-1.81-0.08-1.89h5.97l-0.03,0.69c-1.24-0.05-2.97-0.07-5.18-0.07c0.02,1.25,0.03,2.67,0.03,4.28
				c1.76,0,3.14-0.03,4.14-0.1v0.76c-1.34-0.06-2.72-0.08-4.14-0.08v1.86c0,1.21,0.01,2.22,0.04,3.03c2.07,0,3.96-0.04,5.66-0.13
				l-0.03,0.74H117.63z"/>
			<path class="st2" d="M126.59,227.61c0.13,0.24,0.37,0.49,0.72,0.74c0.35,0.25,0.83,0.49,1.46,0.72s1.17,0.47,1.64,0.71
				c0.47,0.24,0.84,0.51,1.1,0.78c0.26,0.28,0.45,0.57,0.55,0.88c0.11,0.31,0.16,0.66,0.16,1.06c0,0.98-0.34,1.72-1.02,2.21
				c-0.68,0.49-1.67,0.74-2.96,0.74c-1.02,0-1.89-0.11-2.63-0.33l0.17-0.79c0.48,0.18,0.92,0.3,1.34,0.37
				c0.42,0.07,0.86,0.1,1.33,0.1c1.06,0,1.83-0.17,2.33-0.52c0.5-0.35,0.75-0.92,0.75-1.72c0-0.62-0.19-1.14-0.58-1.54
				c-0.39-0.4-1.14-0.81-2.26-1.21c-1.12-0.41-1.89-0.83-2.33-1.28c-0.44-0.45-0.66-1.01-0.66-1.7c0-0.83,0.31-1.5,0.93-2
				c0.62-0.51,1.38-0.76,2.28-0.76c1,0,1.86,0.1,2.57,0.29l-0.17,0.71c-0.52-0.12-0.96-0.21-1.33-0.27
				c-0.36-0.05-0.74-0.08-1.12-0.08c-0.79,0-1.39,0.18-1.82,0.53c-0.43,0.36-0.64,0.8-0.64,1.34
				C126.4,227.05,126.46,227.37,126.59,227.61z"/>
			<path class="st2" d="M135.64,234.1c-0.99-0.98-1.48-2.38-1.48-4.21c0-1.75,0.51-3.16,1.52-4.23c1.01-1.07,2.19-1.6,3.55-1.6
				c1.32,0,2.47,0.5,3.43,1.5c0.96,1,1.44,2.34,1.44,4.03c0,1.84-0.5,3.3-1.51,4.36c-1.01,1.07-2.2,1.6-3.57,1.6
				C137.75,235.57,136.63,235.08,135.64,234.1z M136.91,225.35c-0.66,0.47-1.16,1.11-1.51,1.9c-0.35,0.79-0.52,1.67-0.52,2.64
				c0,1.64,0.44,2.9,1.31,3.78c0.87,0.88,1.9,1.32,3.09,1.32c1.06,0,2-0.48,2.84-1.45c0.84-0.96,1.26-2.23,1.26-3.79
				c0-1.67-0.43-2.94-1.28-3.81s-1.89-1.31-3.11-1.31C138.26,224.64,137.56,224.88,136.91,225.35z"/>
			<path class="st2" d="M147.04,227.61c0.13,0.24,0.37,0.49,0.72,0.74c0.35,0.25,0.83,0.49,1.46,0.72s1.17,0.47,1.64,0.71
				c0.47,0.24,0.84,0.51,1.1,0.78c0.26,0.28,0.45,0.57,0.55,0.88c0.11,0.31,0.16,0.66,0.16,1.06c0,0.98-0.34,1.72-1.02,2.21
				c-0.68,0.49-1.67,0.74-2.96,0.74c-1.02,0-1.89-0.11-2.63-0.33l0.17-0.79c0.48,0.18,0.92,0.3,1.34,0.37
				c0.42,0.07,0.86,0.1,1.33,0.1c1.06,0,1.83-0.17,2.33-0.52c0.5-0.35,0.75-0.92,0.75-1.72c0-0.62-0.19-1.14-0.58-1.54
				c-0.39-0.4-1.14-0.81-2.26-1.21c-1.12-0.41-1.89-0.83-2.33-1.28c-0.44-0.45-0.66-1.01-0.66-1.7c0-0.83,0.31-1.5,0.93-2
				c0.62-0.51,1.38-0.76,2.28-0.76c1,0,1.86,0.1,2.57,0.29l-0.17,0.71c-0.52-0.12-0.96-0.21-1.33-0.27
				c-0.36-0.05-0.74-0.08-1.12-0.08c-0.79,0-1.39,0.18-1.82,0.53c-0.43,0.36-0.64,0.8-0.64,1.34
				C146.84,227.05,146.91,227.37,147.04,227.61z"/>
			<path class="st2" d="M162.4,235.22h-0.88l0.01-0.2c0.06-1.7,0.09-2.79,0.09-3.27c0-0.92-0.34-1.92-1.01-2.99
				c-0.67-1.07-1.34-2.07-2.01-2.98c-0.67-0.92-1-1.43-1-1.53h0.93c0,0.15,0.54,1.01,1.63,2.58c1.09,1.58,1.71,2.84,1.87,3.8h0.07
				c0.01-0.39,0.18-0.9,0.5-1.53c0.32-0.63,0.72-1.28,1.19-1.97c0.47-0.69,0.9-1.32,1.3-1.91c0.4-0.59,0.6-0.91,0.6-0.97h0.83
				c0,0.17-0.42,0.82-1.27,1.96c-0.85,1.14-1.55,2.16-2.1,3.06c-0.55,0.9-0.82,1.74-0.82,2.5C162.33,232.85,162.36,234,162.4,235.22
				z"/>
			<path class="st2" d="M172.36,235.22l0.06-1.76c0.07-1.7,0.1-3.03,0.1-4.02c0-1.02-0.03-2.12-0.08-3.31
				c-0.05-1.18-0.08-1.81-0.08-1.89h5.97l-0.03,0.69c-1.24-0.05-2.97-0.07-5.18-0.07c0.02,1.25,0.03,2.67,0.03,4.28
				c1.76,0,3.14-0.03,4.14-0.1v0.76c-1.34-0.06-2.72-0.08-4.14-0.08v1.86c0,1.21,0.01,2.22,0.04,3.03c2.07,0,3.96-0.04,5.66-0.13
				l-0.03,0.74H172.36z"/>
			<path class="st2" d="M186.12,229.73c-0.52,1.16-0.97,2.29-1.36,3.41c-0.39,1.12-0.59,1.81-0.59,2.08h-0.74
				c0-0.48-0.33-1.58-0.98-3.32c-0.65-1.73-1.32-3.37-2.01-4.92s-1.03-2.45-1.03-2.74h0.88c0,0.41,0.57,2,1.72,4.78
				c1.14,2.77,1.75,4.51,1.82,5.21h0.03c0-0.27,0.13-0.75,0.38-1.45c0.25-0.7,0.75-1.91,1.48-3.64l0.55-1.29
				c0.53-1.26,0.9-2.13,1.09-2.63c0.19-0.49,0.29-0.82,0.29-0.99h0.79c0,0.15-0.09,0.45-0.28,0.9c-0.19,0.45-0.53,1.23-1.04,2.34
				L186.12,229.73z"/>
			<path class="st2" d="M190.39,235.22l0.06-1.76c0.07-1.7,0.1-3.03,0.1-4.02c0-1.02-0.03-2.12-0.08-3.31
				c-0.05-1.18-0.08-1.81-0.08-1.89h5.97l-0.03,0.69c-1.24-0.05-2.97-0.07-5.18-0.07c0.02,1.25,0.03,2.67,0.03,4.28
				c1.76,0,3.14-0.03,4.14-0.1v0.76c-1.34-0.06-2.72-0.08-4.14-0.08v1.86c0,1.21,0.01,2.22,0.04,3.03c2.07,0,3.96-0.04,5.66-0.13
				l-0.03,0.74H190.39z"/>
			<path class="st2" d="M200.81,225.38c2.27,3.24,3.76,5.43,4.49,6.58c0.72,1.15,1.1,1.78,1.14,1.88h0.03
				c-0.06-1.25-0.08-2.49-0.08-3.7v-2.28c0-1.53-0.02-2.73-0.05-3.6h0.74c-0.07,1.29-0.1,3.13-0.1,5.52c0,1.08,0.01,2.04,0.02,2.87
				c0.01,0.83,0.04,1.69,0.08,2.57h-0.48c-0.01,0-0.39-0.59-1.14-1.76c-0.75-1.17-1.42-2.19-2.01-3.05l-1.93-2.81l-0.63-0.93
				c-0.28-0.4-0.49-0.71-0.64-0.93c-0.15-0.22-0.25-0.38-0.3-0.49h-0.03c0.05,1.33,0.07,2.54,0.07,3.64c0,0.51-0.01,1.24-0.02,2.18
				l-0.01,1.9c0,0.92,0.01,1.66,0.04,2.25h-0.74c0.1-2.17,0.14-4.09,0.14-5.77c0-1.7-0.05-3.43-0.14-5.19h0.79
				c0,0.02,0.1,0.17,0.31,0.46L200.81,225.38z"/>
			<path class="st2" d="M216.02,224.92c-1.23-0.03-2.04-0.04-2.42-0.04c-0.06,1.31-0.08,2.83-0.08,4.55c0,1.83,0.03,3.76,0.08,5.79
				h-0.88c0.09-2.35,0.13-4.28,0.13-5.77c0-0.79-0.01-1.52-0.03-2.17c-0.02-0.66-0.05-1.46-0.09-2.4c-0.44,0-1.1,0.01-1.97,0.04
				l-1.67,0.04v-0.71h8.13l-0.03,0.69L216.02,224.92z"/>
			<path class="st2" d="M219.83,234.1c-0.99-0.98-1.48-2.38-1.48-4.21c0-1.75,0.51-3.16,1.52-4.23c1.01-1.07,2.19-1.6,3.55-1.6
				c1.32,0,2.47,0.5,3.43,1.5c0.96,1,1.44,2.34,1.44,4.03c0,1.84-0.5,3.3-1.51,4.36c-1.01,1.07-2.2,1.6-3.57,1.6
				C221.94,235.57,220.81,235.08,219.83,234.1z M221.1,225.35c-0.66,0.47-1.16,1.11-1.51,1.9c-0.35,0.79-0.52,1.67-0.52,2.64
				c0,1.64,0.44,2.9,1.31,3.78c0.87,0.88,1.9,1.32,3.09,1.32c1.06,0,2-0.48,2.84-1.45c0.84-0.96,1.26-2.23,1.26-3.79
				c0-1.67-0.43-2.94-1.28-3.81s-1.89-1.31-3.11-1.31C222.44,224.64,221.75,224.88,221.1,225.35z"/>
			<path class="st2" d="M231.23,227.61c0.13,0.24,0.37,0.49,0.72,0.74c0.35,0.25,0.83,0.49,1.46,0.72s1.17,0.47,1.64,0.71
				c0.47,0.24,0.84,0.51,1.1,0.78c0.26,0.28,0.45,0.57,0.55,0.88c0.11,0.31,0.16,0.66,0.16,1.06c0,0.98-0.34,1.72-1.02,2.21
				c-0.68,0.49-1.67,0.74-2.96,0.74c-1.02,0-1.89-0.11-2.63-0.33l0.17-0.79c0.48,0.18,0.92,0.3,1.34,0.37
				c0.42,0.07,0.86,0.1,1.33,0.1c1.06,0,1.83-0.17,2.33-0.52c0.5-0.35,0.75-0.92,0.75-1.72c0-0.62-0.19-1.14-0.58-1.54
				c-0.39-0.4-1.14-0.81-2.26-1.21s-1.89-0.83-2.33-1.28c-0.44-0.45-0.66-1.01-0.66-1.7c0-0.83,0.31-1.5,0.93-2
				c0.62-0.51,1.38-0.76,2.28-0.76c1,0,1.86,0.1,2.57,0.29l-0.17,0.71c-0.52-0.12-0.96-0.21-1.33-0.27
				c-0.36-0.05-0.74-0.08-1.12-0.08c-0.79,0-1.39,0.18-1.82,0.53c-0.43,0.36-0.64,0.8-0.64,1.34
				C231.03,227.05,231.1,227.37,231.23,227.61z"/>
		</g>
	</g>
</g>
<rect id="_x3C_Sector_x3E_" y="300" class="st5" width="300" height="300"/>
<rect id="_x3C_Sector_x3E__1_" x="300" y="300" class="st5" width="300" height="300"/>
<rect id="_x3C_Sector_x3E__2_" class="st5" width="300" height="300"/>
<rect id="_x3C_Sector_x3E__3_" x="300" class="st5" width="300" height="300"/>
</svg>
