<svg xmlns="http://www.w3.org/2000/svg" xmlns:xlink="http://www.w3.org/1999/xlink" viewBox="0 0 491.8 523.4"><defs><linearGradient id="b04e79fb-45d7-4038-ae20-f8e9f9f2280e" x1="-54.6" y1="683" x2="-54.59" y2="682.29" gradientTransform="matrix(491.77, 0, 0, -491.77, 27094.43, 335876.59)" gradientUnits="userSpaceOnUse"><stop offset="0" stop-color="#152055"/><stop offset="1" stop-color="#0c0b33"/></linearGradient><linearGradient id="e04494cc-5a4a-4e6c-b202-1487769ab223" x1="-54.82" y1="684.21" x2="-54.48" y2="682.82" gradientTransform="translate(26829.8 -95136.9) scale(486.96 139.87)" gradientUnits="userSpaceOnUse"><stop offset="0" stop-color="#2cdafa"/><stop offset="1" stop-color="#002b55"/></linearGradient><linearGradient id="bae1304b-ac7b-4f06-bfbc-ab508e20f5b1" x1="-54.78" y1="682.06" x2="-54.24" y2="682.57" gradientTransform="matrix(381.17, 0, 0, -407.27, 21035.46, 278192.17)" gradientUnits="userSpaceOnUse"><stop offset="0" stop-color="#07103a"/><stop offset="1" stop-color="#7e93ff"/></linearGradient><linearGradient id="fb16eeb5-0d10-4949-9653-5fe112231cad" x1="-53.66" y1="683.25" x2="-54.89" y2="681.81" gradientTransform="matrix(316.48, 0, 0, -154.1, 17470.73, 105464.81)" gradientUnits="userSpaceOnUse"><stop offset="0" stop-color="#7e93ff"/><stop offset="1" stop-color="#2d3a79"/></linearGradient><linearGradient id="bc49f618-ebd0-4d89-aacb-f030c08abe1b" x1="-55.1" y1="682.45" x2="-54.1" y2="682.45" gradientTransform="matrix(410.33, 0, 0, -401.35, 22629.68, 274162.43)" gradientUnits="userSpaceOnUse"><stop offset="0" stop-color="#8fc2ff"/><stop offset="1" stop-color="#fff"/></linearGradient></defs><title>conceptosRecurso 1pato</title><g id="b819e8ec-ac70-4d12-96a2-ab37d24c5c0d" data-name="Capa 2"><g id="ed3dee0b-eab4-49ff-8b94-4a7577bf7222" data-name="e2MpPsexmTL1"><path style="fill:none"/><circle cx="245.9" cy="245.9" r="245.9" style="fill:url(#b04e79fb-45d7-4038-ae20-f8e9f9f2280e)"/><path d="M.2,443.5c0,41.9,146.7,79.9,282.7,79.9,71.2,0,79.3-33.8,112.9-48.9,30.7-13.8,91.4-23,91.4-43,0-41.9-104.2-47.9-240.2-47.9S.2,401.6.2,443.5Z" style="fill:url(#e04494cc-5a4a-4e6c-b202-1487769ab223)"/><path d="M364,142c6,9.3,8.6,13.1,7,14.8s-8.9,5.1-16.8-1c-19.9-13.6-33.3-74-65.6-61.4s16.9,132.4,64.7,179.3c49.5,48.5,71.4,88.2,47.9,134.1s-91.2,56-178.9,34.5S67.2,350.2,29.5,288.9c45.1,12.6,92.1,7.4,132.6,7.4-3.5-4.8-7.1-9.7-10.9-14.7-8.5-11-19.7-20.1-32-27.5,40.7,1.7,86.4,3,123.1,8.7a159.3,159.3,0,0,1,49.1,16.1c-7.1-11-14.1-22.9-20.7-35.4C240.5,186,219.5,101.1,256,65.3s84.2-17.4,102.7,16.5,9.4,48,.7,49.8A58.5,58.5,0,0,0,364,142Z" style="fill:url(#bae1304b-ac7b-4f06-bfbc-ab508e20f5b1)"/><path d="M338.4,114.6c-2.6-25.5-25.1-26.1-18.3-29.3s27,5,36.3,19.6,11.4,24.5,2.9,27.1S341.8,142.9,338.4,114.6Z" style="fill:#0a031b"/><path d="M351.4,156.3c-4.3-7.1-8.6-18.8-6.1-25s14.5-14.3,24.2,9.2,14.6,24.5,14.4,31.6S370.3,183.2,351.4,156.3Z" style="fill:#ff518c"/><path d="M289.6,332.4c18.6,13.6,64.3,44.1,50,75.5s-62.6,47.2-145,16.6S42,311.8,25.9,286.9c139.9,2.2,185.5,2.4,263.7,45.5Z" style="fill:url(#fb16eeb5-0d10-4949-9653-5fe112231cad)"/><path d="M236.5,454c90.2,15.3,161.4,9,184.9-36.9s-10.5-83.2-59.1-128.3S256.7,119.3,288.9,106.7s45.7,47.7,65.7,61.4c7.8,6.1,15.1,2.6,16.7,1s-1-5.5-7-14.8-11.2-25.2-13-33.3-8.5-19.3-11.2-14.4,4.9,22.5,13.7,20.7,18.6-7,5.3-33.2S292.8,41.8,256.3,77.6s-15.4,120.7,14.8,178.2,70.6,102.5,83.5,102.9-31.7-71.3-111.9-83.6-204.2-4.3-222-24.2,89.3-11,130.9,43,58,105.2,134.5,116.4,50-53.6-7.8-85.1S24.5,287.8,24.5,287.8s77.1,142.5,212,166.2Z" style="fill:none;stroke-miterlimit:36;stroke-dashoffset:2659.739990234375px;stroke-width:5px;stroke-dasharray:2659.739990234375;stroke:url(#bc49f618-ebd0-4d89-aacb-f030c08abe1b)"/><path style="fill:none"/></g></g></svg>