<svg xmlns="http://www.w3.org/2000/svg" xmlns:xlink="http://www.w3.org/1999/xlink" viewBox="0 0 1944.8 1569.2"><defs><clipPath id="bf968b8d-987a-4cf3-ab1c-a95272b720c5"><rect width="1920" height="1080" style="fill:none"/></clipPath><clipPath id="bc7c8fdc-72cd-4538-86a2-32a42139a647"><rect x="2" width="1918" height="1198" style="fill:none"/></clipPath><linearGradient id="b016876b-347b-415b-bf49-82e952dc1083" x1="972.53" y1="-159.43" x2="964.59" y2="-572.31" gradientTransform="matrix(1, 0, 0, -1, 0, -160.11)" gradientUnits="userSpaceOnUse"><stop offset="0" stop-color="#ffc875"/><stop offset="1" stop-color="#ffe6c1"/></linearGradient><linearGradient id="fa983792-0125-4553-9694-356a924390a5" x1="1417.89" y1="-717.64" x2="1469.87" y2="-980.09" gradientTransform="matrix(1, 0, 0, -1, 0, -160.11)" gradientUnits="userSpaceOnUse"><stop offset="0" stop-color="#fffaf2"/><stop offset="0.37" stop-color="#fff0d9" stop-opacity="0.63"/><stop offset="0.73" stop-color="#ffe9c7" stop-opacity="0.26"/><stop offset="1" stop-color="#ffe6c1" stop-opacity="0"/></linearGradient><linearGradient id="ac805f55-f9bf-4b0a-8942-55acfddcd2c2" x1="304.44" y1="-725.98" x2="227.32" y2="-915.94" xlink:href="#fa983792-0125-4553-9694-356a924390a5"/><linearGradient id="fa7b055e-1161-4430-b68e-3670d041bf78" x1="984.9" y1="-896.58" x2="975.47" y2="-1073.67" gradientTransform="matrix(1, 0, 0, -1, 0, -160.11)" gradientUnits="userSpaceOnUse"><stop offset="0" stop-color="#ffb05c"/><stop offset="1" stop-color="#ffc875"/></linearGradient><linearGradient id="faa1e558-ed50-4588-9479-5b0ac5de52b5" x1="1536.95" y1="-959.41" x2="1548.9" y2="-1089.09" gradientTransform="matrix(1, 0, 0, -1, 0, -160.11)" gradientUnits="userSpaceOnUse"><stop offset="0" stop-color="#fffaf2"/><stop offset="1" stop-color="#ffe6c1" stop-opacity="0"/></linearGradient><linearGradient id="bc12d1e0-bdb3-4825-920d-1193af58777f" x1="1009.83" y1="-1092.83" x2="998.36" y2="-1276.33" gradientTransform="matrix(1, 0, 0, -1, 0, -160.11)" gradientUnits="userSpaceOnUse"><stop offset="0" stop-color="#e8924d"/><stop offset="1" stop-color="#ffb05c"/></linearGradient><linearGradient id="f460e8a4-f767-4320-a891-f67cfb19324a" x1="659.49" y1="-992.94" x2="613.37" y2="-1192.42" gradientTransform="matrix(1, 0, 0, -1, 0, -160.11)" gradientUnits="userSpaceOnUse"><stop offset="0" stop-color="#fffaf2"/><stop offset="0.57" stop-color="#ffeed4" stop-opacity="0.43"/><stop offset="1" stop-color="#ffe6c1" stop-opacity="0"/></linearGradient><linearGradient id="b395d119-6e9a-4621-a080-215400091a7f" x1="1230.39" y1="-1216.03" x2="1372.19" y2="-1483.53" gradientTransform="matrix(1, 0, 0, -1, 0, -160.11)" gradientUnits="userSpaceOnUse"><stop offset="0" stop-color="#bf5047"/><stop offset="0.88" stop-color="#de7e42"/></linearGradient><linearGradient id="a523a97a-001f-4992-afda-699f6dac6bec" x1="963.94" y1="-944.7" x2="961.42" y2="-1340.17" gradientTransform="matrix(1, 0, 0, -1, 0, -160.11)" gradientUnits="userSpaceOnUse"><stop offset="0" stop-color="#912838"/><stop offset="1" stop-color="#bf5047"/></linearGradient><linearGradient id="b42baf29-62cc-4ac5-bf9a-f7dfde36c837" x1="1403.89" y1="-1119.04" x2="1479.19" y2="-1321.35" gradientTransform="matrix(1, 0, 0, -1, 0, -160.11)" gradientUnits="userSpaceOnUse"><stop offset="0" stop-color="#fffaf2"/><stop offset="0.04" stop-color="#fff7eb" stop-opacity="0.96"/><stop offset="0.19" stop-color="#fff0d8" stop-opacity="0.81"/><stop offset="0.36" stop-color="#ffeacb" stop-opacity="0.64"/><stop offset="0.58" stop-color="#ffe7c3" stop-opacity="0.42"/><stop offset="1" stop-color="#ffe6c1" stop-opacity="0"/></linearGradient><linearGradient id="e79d45ca-0020-4818-8c13-6c71d6fa3170" x1="962.22" y1="-1206.58" x2="968.28" y2="-1546.09" gradientTransform="matrix(1, 0, 0, -1, 0, -160.11)" gradientUnits="userSpaceOnUse"><stop offset="0" stop-color="#4a1623"/><stop offset="0.21" stop-color="#511825"/><stop offset="0.5" stop-color="#631c2a"/><stop offset="0.84" stop-color="#812433"/><stop offset="1" stop-color="#912838"/></linearGradient></defs><title>conceptosRecurso 2frame2</title><g id="ec7cd737-2a4d-4582-89aa-35f235985f64" data-name="Capa 2"><g id="b91e5db4-4320-4f9f-9e44-83a6d6b04893" data-name="Capa 1"><g id="b3a49a03-2805-4c5d-aefd-b30ffd4df8bd" data-name="Frame 2"><g style="clip-path:url(#bf968b8d-987a-4cf3-ab1c-a95272b720c5)"><rect width="1920" height="1080" style="fill:#fff"/><g style="clip-path:url(#bc7c8fdc-72cd-4538-86a2-32a42139a647)"><g id="f25bc806-0c5d-40d8-a9a9-f5b293b341fb" data-name="paisaje 1"><g id="ef7136b6-d35d-4dce-b08f-f339b1eadcde" data-name="BACKGROUND"><g id="aaa9e5c3-5a09-4451-b4a5-87d91e149256" data-name="Group"><path id="b6eacf01-0888-4c5a-94d3-2df5d99b2056" data-name="Vector" d="M1920,0H2V1198H1920Z" style="fill:url(#b016876b-347b-415b-bf49-82e952dc1083)"/><path id="bf687637-7622-4a98-aeaf-e88489960ca4" data-name="Vector 2" d="M1944.8,477V827.8c-25.6.7-51.1,1.6-77.2,2.6-161.1,5.3-327.9,10.5-485.4,4.3-159.1-6.2-321.7-8.1-466.2-70.2,22.5-27.3,69.6-33,99-12.2,5.1-14.4,29.6-21.3,41.9-11.5,7.9-31.6,38.6-60.9,72.4-68.3s71.3,4.3,93.6,29.2c15.3-14.3,42.9-18.2,62.1-8.6,14.1-22,43.2-31.4,64.5-15.1,7.4-35,35.5-65.4,71.6-76.4s78.2-2.2,105.8,22c11.8-7.4,32.8-4,43.5,4.6,26.1-35.2,88.8-48.6,128.9-28.3,5.6-28.3,34.8-52.9,62.9-64.4s62.2-9.1,88.2,6.2c6.4-23,33-40.5,54.8-52.5A104.4,104.4,0,0,1,1944.8,477Z" style="fill:url(#fa983792-0125-4553-9694-356a924390a5)"/><path id="fe1065a3-6f89-4f28-92ba-cc55058aa930" data-name="Vector 3" d="M566.9,725.2C382.3,769.3,191.8,810.3,2,802.1V505c25.8,8.4,48.3,26.6,58.8,50.3,19.7-6.2,40.9,3.1,55.8,16.8,18.1-12.5,45-14.2,66.7-9.8S225,580,236,598.2c11.2-3.1,29.1,6.7,32,17.5,20.7-18.4,53.2-24.7,81-18.7s51.9,25.9,61.7,51a31.8,31.8,0,0,1,28.9,2.9c8.1,5.8,12.7,15.6,11.7,24.9,20.2-8.6,51.2-3.6,71.4,4.8S559.8,705.6,566.9,725.2Z" style="fill:url(#ac805f55-f9bf-4b0a-8942-55acfddcd2c2)"/><g id="b60c69b4-1a41-43bd-a82b-5324eab4738b" data-name="Group 2"><path id="f18553d5-f270-4f2f-9ea9-93cb925991f6" data-name="Vector 4" d="M1922,798.9v747.5H4V749.3c56.5-36.2,112-74.3,179.3-91.1,115.6-28.7,214.8,50.8,326.3,64.7,55.5,7,110.7-15.3,167-14.8,97.9.7,179,69.2,275.1,85.5,102.1,17.2,203.1-25.7,298.2-62.5s172.1-60.9,266.8-22.8c83.1,33.3,171.6,107.8,261.6,121.7C1822,836.7,1874.7,807.3,1922,798.9Z" style="fill:url(#fa7b055e-1161-4430-b68e-3670d041bf78)"/></g><path id="f0e0162e-9a43-439e-91cd-652ecba1eac4" data-name="Vector 5" d="M1922.4,771.3v248.2l-88.5,1-663.9,7.2V906c33.8-29.3,89-33.4,127.4-9.9,9.4-17,37.3-24.7,55.4-15.3,11-30.2,41.7-49.1,75.5-51.5s68.3,15.6,83.9,43.8c17.4-8.3,44.7,2.2,57.8,15.6,26.1-14.4,70.3-4.8,83.8,20.4,7.7-19,26.9-32.1,47.4-38.6a78.4,78.4,0,0,1,62.1,6.9c3.3-18.9,33.3-36.4,51.9-28.5,3.6-18.4,14.9-36.4,29.9-50.5a100.9,100.9,0,0,1,32.3-20.4A102.3,102.3,0,0,1,1922.4,771.3Z" style="fill:url(#faa1e558-ed50-4588-9479-5b0ac5de52b5)"/><path id="e5f1df52-83bc-46df-9c5b-b6b545e5d5a9" data-name="Vector 6" d="M1944,1121.2v448H26V1090.5q216.3-98.1,433-196.4l6.9-3.2c4.3-1.9,8.7-3.8,12.7-5.7,55.3-24.7,113.6-48.4,173.7-50.6l2-8.6,2.1,8.4a217.9,217.9,0,0,1,29.1,1.2,288.6,288.6,0,0,1,44.8,8.8l4.3-17.2,4.9,20.1a8.8,8.8,0,0,0,1.5.5l2.1-8.6,2.5,10.3c32.3,10.8,63.5,25.6,95.2,38.6l2.3-9.2,2.8,11.3c29.1,11.7,58.5,21.3,90.3,24.4a254.1,254.1,0,0,0,37,1l3.4-13.4,3.3,13.2h1.8l3.3-13.2,3.1,12.7c33-2.2,66-7.4,98.2-8.1l2.8-11.1,1.5,6.7,5.9-24.2,5.9,23.7,2.8-11.7,4.1,16.8H1107l5.9.2,2.5-10.5,2.8,10.8a177.9,177.9,0,0,1,35.6,6.9l3-12.2,3.6,14.4c1.1.5,2.3.7,3.4,1.2l1.2-5.5,1.6,6.7c26.3,10.8,47.5,29.2,69.8,46,6.9,5.2,13.8,10.3,21,14.8l.5-2.1.7,3.1,8.2,5,3.1-12.7,2.5,10.8,2.1-7.9,3.8,16a35.7,35.7,0,0,0,4.6,2l2.1-7.9,2.3,9.5c2,.8,4.1,1.5,6.4,2.2l2.8-11.7,3.3,13.6a8.4,8.4,0,0,0,2,.5l1.6-5.8,1.5,6.5c36.3,8.2,73.9.5,112-6.9l3.4-13.5,3,12.3c1.6-.3,3.1-.8,4.6-1l3.6-14.4,3.3,13.2c21.3-3.8,42.5-6.9,63.5-6.7,24.5.5,47.5,5.5,69.8,13.7l1.8-7,1.5,6.7,2.5-10,3.4,13.6c7.6,3.1,15.3,6.5,22.7,10.1l2.1-8.4,2.5,10.8c39.2,19.6,76.2,45.7,115.1,68a442.1,442.1,0,0,0,41.7,21.3c23.5,10.3,47.8,18,73.9,21.1,5.6.7,11.5,1,17.4,1.2,19.7,1,39.9-.5,60.1-1.9C1923,1122.4,1933.5,1121.7,1944,1121.2Z" style="fill:url(#bc12d1e0-bdb3-4825-920d-1193af58777f)"/><path id="b8078d88-abad-441d-8d27-3fad305ed2b9" data-name="Vector 7" d="M1749.9,1140.8c-134.8,11.3-271.3,3.6-403.3-23.5-12.8-2.6-25.3-5.3-37.8-8.1-108.2-25.2-211.5-63.1-313.8-103.8l-1.3-5-1,4.1q-12.3-5.1-24.6-9.9l-2.5-11-2.3,8.9c-.3-.3-.6-.3-1.1-.5l-1-3.8-.8,3.1c-90.5-36.9-180.5-75.2-272.6-109l-1.5-6-1.3,5-2.5-.9-3.1-12.3-2.6,10.3-7.1-2.6-1.8-7.9-1.6,6.5c-1.7-.8-3.3-1.2-5.1-2l-3.5-14.8-2.1,7.9-2.5-10.6-3.4,13.7c-2.3-.7-4.8-1.7-7.1-2.6l-1.6-6.5-1.2,5.5c-30.7-10.5-62.2-20.4-93.9-29.4l-2.6-10.8-2.3,9.3-15.8-4.3-3.9-15.1-2,7.9-2.6-10.5-3.5,14.8c-6.4-1.7-12.8-3.1-19-4.8l-1.2-5.5-1.3,4.8a16.1,16.1,0,0,1-3.6-1l-3.8-15.8-3.6,14.2c-7.7-1.9-15.4-3.6-23.3-5.3l-3.3-13.7L451,812.1l-13.8-2.9c-19.2-3.8-38.6-7.4-58-10.3l-2.6-10.6-2.3,9.9a14.9,14.9,0,0,0-3.6-.5l-2.3-9.1-2,8.6c-4.4-.7-8.5-1.2-12.8-1.7l-2.3-9.3-2.1,8.9c-86.1-11.1-172.8-12.5-256.5.4l-2.3-9.3-2.5,10.1c-2.3.2-4.4.7-6.7,1.1l-2-8.1-2.3,8.9c-3.3.5-6.7,1.2-10,1.6l-.5-2.4-.5,2.7c-4.1.7-8.2,1.7-12.5,2.4L50.5,791l-2.8,11.7L41.8,779l-6.9,27.6Q19.3,810.1,4,814.7v681.4H1922V1115.6A1375,1375,0,0,1,1749.9,1140.8Z" style="fill:#de7e41"/><path id="b4405542-ad1a-4d76-8c63-fb19a6d806b1" data-name="Vector 8" d="M1262.3,1099.4c-7.5-20.4-26.4-36.4-47.9-45-23.7-9.6-48.1-6-73.9-6.3-15.1-24.9-42.2-42.1-71.8-49.1-12.8-16.1-33-26.8-54.2-28.5s-42,7.9-57.8,21.3c-19.5-17.2-46.8-26.1-73.4-24.4s-55.3,11.2-71.6,30.9c-14.9-15.4-38.2-19.9-55-6.5-22-30.7-57.1-52.4-95.7-59.6s-88.5.7-121.2,21c-15.3-23.2-54-28.7-75.7-10.7-12.3-26.1-36.3-47.5-64.7-57.8s-64.2-9.8-92.1,1.9c-7.4-21.8-34.2-39.7-58.3-35.9-32.7-29-84.9-31.1-125.8-13.7C87.9,814,45,802.5,2,803v296.4Z" style="fill:url(#f460e8a4-f767-4320-a891-f67cfb19324a)"/><path id="a6dad83a-2f15-4915-a79e-426582f70f9c" data-name="Vector 9" d="M1919.8,738.4v635.9H541.4c81.1-30.6,143.5-95.8,212.3-150.9,5.4-4.3,11-8.9,16.6-13,39.4-29.9,81.3-55.8,130.2-69.2,85.4-23.5,180.5-5.3,265.4-30.2,60.7-17.7,109.5-55.3,158.1-93.4,6.6-5.3,13.3-10.6,20.2-15.6,2.3-1.7,4.3-3.4,6.6-5,37.4-28.6,76.2-55.4,121.3-71.7,19.1-6.9,39.1-11.7,59.3-15.5,54.2-10.1,111.5-12.5,164.2-23.5,37.6-7.9,72.6-20.2,102-42.7s49.6-52.7,77-76.9A160.8,160.8,0,0,1,1919.8,738.4Z" style="fill:url(#b395d119-6e9a-4621-a080-215400091a7f)"/><path id="fc3f8697-2095-4493-9799-bc60fd4e3c82" data-name="Vector 10" d="M1905.4,1192q-163.1-63.6-326.3-126.7l-53.5-20.9-31.4-12.2-4.6-18.4-3.9,15.3a34.2,34.2,0,0,1-4-1.7l-8.2-33.1-6.7,27.3c-4.8-1.9-9.7-3.5-14.6-5.5l-5.3-22-4.6,18.2-10-3.6-9.5-38.1-4.6,18.2-6.1-24.7-8.4,34.5-16.7-5.7-3-12.2-2.6,10.3c-18.7-6.5-37.3-12.5-56.3-18.2-51.1-15.6-98.2-27.1-144.4-33.6l-2.4-9.8-2.2,9.1c-13.9-1.9-27.7-3.3-41.5-4.1l-7.1-28.5-4.6,18.2-6.2-24.6-8.4,34c-13.8-.3-27.6-.3-41.5.5l-5.8-23.5-5.9,24.2h-1.5l-12.8-52-13.3,54.4c-5.4.5-10.8,1.2-16.1,1.9l-3.4-13.4-3.5,14.3c-14.1,2-28.4,4.6-43,7.5-133.8,27.3-264.2,73.3-399,51.2a7.9,7.9,0,0,1-2-.4L557.2,984l-3.1,13a374.5,374.5,0,0,1-53.7-15.1l-8.9-36.4-6.2,24.6L482,956.2,477.9,973C403,940.9,334.9,889.9,258,858l-2.6-10.8-2.3,8.9a399,399,0,0,0-47-15.8L202,823.7l-3.6,14.7a292.4,292.4,0,0,0-32.8-6.3L162.1,818l-2.6,10.5-7.2-33.3-8.4,33.6-11.2-.7-6.4-25.7-6.4,25.7c-6.9,0-14.1.2-21.3.7l-1.7-7L95.1,829c-9.5.7-19,1.9-28.9,3.6l-6.4-26.1-6.7,27.1L39.6,778.7,24,842.2c-6.9,1.9-14.1,4.3-21,6.7v480.6H1921V1198.2C1915.9,1196.1,1910.5,1193.9,1905.4,1192Z" style="fill:url(#a523a97a-001f-4992-afda-699f6dac6bec)"/><path id="e1d8d685-adb5-4d4e-b86f-915730c7dbcd" data-name="Vector 11" d="M1921.3,783.3v490.9H938.5a95,95,0,0,1,13-30,116.1,116.1,0,0,1,12.8-16.3,95.7,95.7,0,0,1,11.3-9.8c7.1-5.2,14.8-9.6,23.5-12,13.5-3.8,29.1-2.3,40.6,5.3,2.1-14.1,14.9-23.7,29.2-26.6,8.9-1.7,33.5-.7,38.1,9.8a8.8,8.8,0,0,1,.5,1.5c0-.5-.2-1-.2-1.5-3.6-19.8,13-40.5,32.7-49.1s43.5-7.9,65.2-3.8c7.7-10.8,17.1-18.9,28.9-20.6a34.5,34.5,0,0,1,12.3.5c6.9-23,31.2-39.1,56.2-42.7s52.2,7.9,66,28c21-18.6,56-19.4,77.5-1.6,23.8-43.9,80.8-65,132.7-57.3a51.2,51.2,0,0,1,5.4,1c0-1.2-.3-2.2-.3-3.4-2-23.5,4.9-49.1,21.8-66.6a29.8,29.8,0,0,1,4.1-3.8c20.7-18,50.6-26.1,78.2-21.3,3.3-16.3,18.2-28.6,34.8-34.3,12.5-4.6,27.1-3.8,39.4,1.2a45.9,45.9,0,0,1,10.5,6,16.8,16.8,0,0,1,1.5-3.4c9-18.7,34.5-33,54.2-24.9.5-4.6.8-8.9,1.3-13.4.8-7.9,1.8-15.6,3.1-23.5,2.5-14.6,6.6-28.7,14.8-42.2C1862.4,795.5,1892.1,777,1921.3,783.3Z" style="fill:url(#b42baf29-62cc-4ac5-bf9a-f7dfde36c837)"/><path id="afafcd88-68c9-45e3-946d-10d7a4709c3f" data-name="Vector 12" d="M1921,841.9v462.2H3V1057.3C67.2,1019,133.7,984,206.6,964.1a224.9,224.9,0,0,1,25.3-5.7l14.3-58.5,13.6,54.9,12.2-1,7.2-28.5,5.9,23.5,10.5-42.9,11.7,48.4a356,356,0,0,1,77.8,14.6l3.8-15.8,4.6,18.4c32.2,10.8,63.7,25.7,93.6,43.4,39.4,23.2,80,51,119.2,77.2,37.3,24.6,75.2,55.5,123.5,54.3a161.8,161.8,0,0,0,25.1-2.6c5.6-.9,11-2.1,16.6-3.3,25-5.6,50.1-12.7,75.4-9.6,18.4,2.1,35.1,9.3,50.9,18.2l2.3-9.1,3.1,12c4.6,2.6,9.2,5.5,13.5,8.4l11.3-45.8,15.3,62.3c8,4.5,15.9,8.8,24.1,12.4,2.5,1.2,5.3,2.2,8.2,3.4,64.7,24.2,139.3,6.7,206.3-13.7,34.5-10.5,68.6-21.5,102.6-33.5l14.6-58.9,12.2,49.3,8-2.9,5.6-22.7,4.6,18.9a2658,2658,0,0,0,249.8-106.6c1.8-.7,3.4-1.7,5.1-2.4,35.4-17.3,70.4-35.5,104.9-54.2l3.3-13.6,2.1-7.9,2,7.9,2.1,8.6c5.9-3.1,11.5-6.5,17.4-9.6l17.6-10,15.6-8.9,5.1-2.9,8.5-34,5.6-23,6.4,25.6,4.3,17.5c7.4-4.1,15.1-8.4,22.5-12.2l4.4-17.5,3.3,13.4c25.8-13.4,52.2-25.1,79.3-33.8l1.8-7.4,5.3-22.3.3-.5.2.5,4.1,16.6,4.1-16.8,8-32.6,9.7,32.6v6.2Z" style="fill:url(#e79d45ca-0020-4818-8c13-6c71d6fa3170)"/></g></g><g id="be06ddcf-0338-46ea-89d7-af4f6295d9b4" data-name="Capa 2"><g id="b0e319e4-2e15-48be-a315-73fd60d9db75" data-name="Capa 1"><path id="be36ed0d-9e0c-40d9-92d3-2da847d9afb8" data-name="Vector 13" d="M1009.2,441.6a9.9,9.9,0,0,0-1.8-5.7c-1.1-1.5-2.9-2.2-5.4-2.3h-4.1v17.8h5.1C1007.3,451.5,1009.4,448.2,1009.2,441.6Zm97.6,89.2c-3-22.9-26.7-22.5-54.5-16.7,1.3-17.2,3.7-44.4,6-56.2,3.9-20.2,14.8-80.7,14.8-80.7h-.4c0-10.6-39.9-19.2-89-19.2s-89,8.6-89,19.2a3.2,3.2,0,0,0,.3,1.4s11,59.5,14.9,79.3c2.3,11.8,4.7,39,6,56.2-27.8-5.8-51.5-6.2-54.5,16.7-2.2,17.1,12.5,43.3,122.7,43.3S1109,547.9,1106.8,530.8Zm-129.5-90a5.8,5.8,0,0,1,.6-2.6,11.4,11.4,0,0,1,4.7-4.8c2-1.1,4.9-1.7,8.7-1.7h14.2a12,12,0,0,1,7.7,2.6c2.2,1.8,3.3,4.4,3.3,7.9a14.5,14.5,0,0,1-1.7,6.7,10.8,10.8,0,0,1-4.8,4.4l9.8,15.5c5.8,8.7,10.8,13.4,15,14.2-4.1.3-7,.4-8.7,0-3.7-.7-7.3-3.1-10.8-7.4a46,46,0,0,1-4-5.8q-1.8-3-5.7-9l-4.2-6.5h-3.5v10a3.9,3.9,0,0,0,.4,1.8,4.1,4.1,0,0,0,1.2,1.4,6.2,6.2,0,0,0,2.8,1.4v1.7H985.7v-1.7a6.2,6.2,0,0,0,2.8-1.4,5.3,5.3,0,0,0,1.2-1.4,3.9,3.9,0,0,0,.4-1.8V434.5l-.3-.8-.3-.2a.3.3,0,0,0-.4,0,6.2,6.2,0,0,0-4,2.2,7.1,7.1,0,0,0-1.4,4.2,12,12,0,0,0,.7,4.2,3.5,3.5,0,0,0,.7,1.5,4.5,4.5,0,0,0,1.3,1.1,9.4,9.4,0,0,1-4.4.5,5.2,5.2,0,0,1-2.8-1.3,4.6,4.6,0,0,1-1.6-2.3A6.7,6.7,0,0,1,977.3,440.8Zm-42,23.6.9-15.6c.3.9.7,1.8,1.1,2.7a18.7,18.7,0,0,0,1.5,3.2c.2.5.8,1.6,1.6,3.1a15.6,15.6,0,0,0,2.3,3.4l2.7,2.8a9.4,9.4,0,0,0,3.4,2.5c1.1.5,2.5.9,4,1.4a20.7,20.7,0,0,0,5,.5,10,10,0,0,0,4.4-1.2,9.8,9.8,0,0,0,3.2-3.2,10,10,0,0,0,1.7-4.3,10.6,10.6,0,0,0-.4-4.7q-.7-2.7-4.8-5.1a94,94,0,0,0-10-5.1,57.6,57.6,0,0,1-8.9-4.6,19.2,19.2,0,0,1-6.3-6.7A11.6,11.6,0,0,1,935,426a14.5,14.5,0,0,1,2.8-6.9c1.5-2.2,4-3.9,7.4-5.2a31.9,31.9,0,0,1,11.8-2c9.2,0,15.8,2,20,6l-.7,12.2-2.5-3.8-3.9-4.8a21.2,21.2,0,0,0-6-4.7,14.3,14.3,0,0,0-7-1.8,9.2,9.2,0,0,0-3.3.6,10.7,10.7,0,0,0-2.8,1.9,6.3,6.3,0,0,0-2,2.6,7.2,7.2,0,0,0-.8,3.2,8.5,8.5,0,0,0,.9,3.8,8.1,8.1,0,0,0,2.4,3.1,22.8,22.8,0,0,0,7.6,4.6c2.8,1.1,6,2.5,9.5,4.1a37.6,37.6,0,0,1,8.1,5,12.2,12.2,0,0,1,4,6.6,14.2,14.2,0,0,1,0,7.1,19.9,19.9,0,0,1-2.8,6.1c-3.8,5.3-10.5,7.9-20.2,7.9a44.1,44.1,0,0,1-13.5-1.9A20.1,20.1,0,0,1,935.3,464.4ZM1049,547.9s-27.4,3.1-38.6,2.3c-13.2-.9-25.2-7.6-37.5-12.4-7.4-2.8-25.7-12.4-25.7-12.4l103.1-3.3ZM861,574h14.9l13.4,63.9,12.9-50.5h14.6v2.7c-1,0-2.1.6-3.4,2a7.7,7.7,0,0,0-1.8,5v49.8a7.2,7.2,0,0,0,1.8,5c1.3,1.4,2.4,2.1,3.4,2.1v2.6H897V654c1,0,2.1-.7,3.4-2.1a7.2,7.2,0,0,0,1.8-5V609.7c-1.6,5.2-4.1,13-7.3,23.4l-7.3,23.5h-2.4L877.6,633c-3.3-10.5-5.9-38.9-7.6-44.1v58a7.6,7.6,0,0,0,1.9,5c1.2,1.4,2.4,2.1,3.4,2.1v2.6H861V654q1.5,0,3.3-2.1a6.1,6.1,0,0,0,1.5-2.3,6.3,6.3,0,0,0,.4-2.7V585.4a6.3,6.3,0,0,0-.4-2.7,7,7,0,0,0-1.5-2.3c-1.2-1.3-2.3-2-3.3-2Zm60.7,20.6h19.8v2.7c-1,0-2.2.7-3.4,2.1a7.6,7.6,0,0,0-1.9,5.2v42.1a7.8,7.8,0,0,0,1.9,5.1c1.2,1.4,2.4,2.1,3.4,2.1v2.7H921.7v-2.7q1.5,0,3.3-2.1a9.7,9.7,0,0,0,1.5-2.4,8,8,0,0,0,.4-2.7V604.6a9,9,0,0,0-.4-2.8,9.7,9.7,0,0,0-1.5-2.4q-1.8-2.1-3.3-2.1Zm23,0h19.7v2.7q-1.5,0-3.3,2.1a9.7,9.7,0,0,0-1.5,2.4,9,9,0,0,0-.4,2.8v48.8h11.5a9,9,0,0,0,3.6-.8,7.8,7.8,0,0,0,3-2.4l2.1-2.7a19.6,19.6,0,0,0,1.7-3.2l1.1-2.2-.5,14.5h-37v-2.7q1.5,0,3.3-2.1a9.7,9.7,0,0,0,1.5-2.4,8,8,0,0,0,.4-2.7V604.6a9,9,0,0,0-.4-2.8,9.7,9.7,0,0,0-1.5-2.4q-1.8-2.1-3.3-2.1Zm29.4,0h41.8l1,14.5c-1-2-3-4.2-5.9-6.6s-8.2-3.6-11.3-3.6v47.8a8,8,0,0,0,.4,2.7,9.7,9.7,0,0,0,1.5,2.4c1.2,1.4,2.4,2.1,3.4,2.1v2.7H985.2v-2.7c1,0,2.2-.7,3.4-2.1a9.7,9.7,0,0,0,1.5-2.4,8,8,0,0,0,.4-2.7V599h-2.4a14.3,14.3,0,0,0-9,3.5c-2.9,2.3-4.9,4.4-5.9,6.4Zm49.8,9.1c4.5-6,9.8-9.1,16.1-9.1s11.6,3.1,16,9.1,6.7,13.3,6.7,21.9-2.2,15.8-6.7,21.9-9.7,9.1-16,9.1-11.6-3-16.1-9.1-6.7-13.4-6.7-21.9S1019.4,609.7,1023.9,603.7Zm24.6,1.8c-2.2-4.7-5.1-7-8.5-7s-6.3,2.3-8.5,7-3.4,11.4-3.4,20.1,1.1,15.3,3.4,20.1,5,7.1,8.5,7.1,6.3-2.4,8.5-7.1,3.3-11.5,3.3-20.1S1050.7,610.2,1048.5,605.5Zm27.5-18.3,23.7,49.5V585.2a7.3,7.3,0,0,0-1.9-4.9c-1.3-1.3-2.4-2-3.4-2V574h14.2v4.3a6,6,0,0,0-1.9.6,6.7,6.7,0,0,0-1.5,1.4,7.6,7.6,0,0,0-1.5,2.3,7.5,7.5,0,0,0-.4,2.6v71.4h-3.9l-27.9-48.1v38.6a7.5,7.5,0,0,0,.4,2.6,6.8,6.8,0,0,0,1.4,2.3c1.3,1.3,2.4,2,3.4,2v2.6h-14.1V654c1,0,2.1-.7,3.4-2a6.8,6.8,0,0,0,1.4-2.3,7.5,7.5,0,0,0,.4-2.6V605.4c0-2-.5-12.3-1.7-13.6a5,5,0,0,0-3.4-2v-2.6Z" style="fill:#fff"/></g></g></g></g></g><rect x="3" y="3" width="1914" height="1074" style="fill:none;stroke:#ad4242;stroke-width:6px"/></g></g></g></svg>