<svg xmlns="http://www.w3.org/2000/svg" xmlns:xlink="http://www.w3.org/1999/xlink" viewBox="0 0 1921.5 1080"><defs><clipPath id="a801b8e4-c522-4c63-9a58-b6bcdb53d38d" transform="translate(0.3)"><rect width="1920" height="1080" style="fill:none"/></clipPath><linearGradient id="e2de25fa-4814-45a0-bc6d-8ff4b99a38b3" x1="969.36" y1="2316.54" x2="962.91" y2="1944.3" gradientTransform="matrix(1, 0, 0, -1, 0, 2315.89)" gradientUnits="userSpaceOnUse"><stop offset="0" stop-color="#ffc875"/><stop offset="1" stop-color="#ffe6c1"/></linearGradient><linearGradient id="fa675de1-7997-4cc8-98d8-954a10bdd20c" x1="1394.82" y1="2104.17" x2="1437.32" y2="1865.86" gradientTransform="matrix(1, 0, 0, -1, 0, 2315.89)" gradientUnits="userSpaceOnUse"><stop offset="0" stop-color="#fffaf2"/><stop offset="0.37" stop-color="#fff0d9" stop-opacity="0.63"/><stop offset="0.73" stop-color="#ffe9c7" stop-opacity="0.26"/><stop offset="1" stop-color="#ffe6c1" stop-opacity="0"/></linearGradient><linearGradient id="a9e7de8d-aa19-4106-b347-8d709974b3ce" x1="299.42" y1="2113.2" x2="235.09" y2="1937.24" xlink:href="#fa675de1-7997-4cc8-98d8-954a10bdd20c"/><linearGradient id="a649dd9a-de88-42bb-93e5-69167fe8cb9b" x1="977.79" y1="1966.48" x2="970.13" y2="1806.74" gradientTransform="matrix(1, 0, 0, -1, 0, 2315.89)" gradientUnits="userSpaceOnUse"><stop offset="0" stop-color="#ffb05c"/><stop offset="1" stop-color="#ffc875"/></linearGradient><linearGradient id="a9f76d0a-db28-4991-ad4f-a84454b07b1f" x1="1535.92" y1="1857.06" x2="1545.64" y2="1739.97" gradientTransform="matrix(1, 0, 0, -1, 0, 2315.89)" gradientUnits="userSpaceOnUse"><stop offset="0" stop-color="#fffaf2"/><stop offset="1" stop-color="#ffe6c1" stop-opacity="0"/></linearGradient><linearGradient id="bb561e1b-0927-4f2a-8cd1-07a01667a4cb" x1="980.16" y1="1809.98" x2="970.84" y2="1644.43" gradientTransform="matrix(1, 0, 0, -1, 0, 2315.89)" gradientUnits="userSpaceOnUse"><stop offset="0" stop-color="#e8924d"/><stop offset="1" stop-color="#ffb05c"/></linearGradient><linearGradient id="e91ea205-ce49-479e-81d5-8d95089f8f36" x1="653.47" y1="1739.03" x2="615.67" y2="1557.46" gradientTransform="matrix(1, 0, 0, -1, 0, 2315.89)" gradientUnits="userSpaceOnUse"><stop offset="0" stop-color="#fffaf2"/><stop offset="0.57" stop-color="#ffeed4" stop-opacity="0.43"/><stop offset="1" stop-color="#ffe6c1" stop-opacity="0"/></linearGradient><linearGradient id="f0e3afba-1908-414d-9f63-24fa1c9cb25a" x1="1229.87" y1="1522.96" x2="1349.97" y2="1271.37" gradientTransform="matrix(1, 0, 0, -1, 0, 2315.89)" gradientUnits="userSpaceOnUse"><stop offset="0" stop-color="#bf5047"/><stop offset="0.88" stop-color="#de7e42"/></linearGradient><linearGradient id="b4ae91f4-6c18-4d3d-9ecc-7930ea6f924d" x1="961.32" y1="1727.16" x2="959.27" y2="1370.64" gradientTransform="matrix(1, 0, 0, -1, 0, 2315.89)" gradientUnits="userSpaceOnUse"><stop offset="0" stop-color="#912838"/><stop offset="1" stop-color="#bf5047"/></linearGradient><linearGradient id="b8e40bf3-91e2-4868-8136-32dc11ead48a" x1="1406.51" y1="1571.48" x2="1469.08" y2="1384.81" gradientTransform="matrix(1, 0, 0, -1, 0, 2315.89)" gradientUnits="userSpaceOnUse"><stop offset="0" stop-color="#fffaf2"/><stop offset="0.04" stop-color="#fff7eb" stop-opacity="0.96"/><stop offset="0.19" stop-color="#fff0d8" stop-opacity="0.81"/><stop offset="0.36" stop-color="#ffeacb" stop-opacity="0.64"/><stop offset="0.58" stop-color="#ffe7c3" stop-opacity="0.42"/><stop offset="1" stop-color="#ffe6c1" stop-opacity="0"/></linearGradient><linearGradient id="e73a7723-4f1f-44f5-949e-99109e8f7291" x1="960.3" y1="1468.15" x2="965.22" y2="1162.07" gradientTransform="matrix(1, 0, 0, -1, 0, 2315.89)" gradientUnits="userSpaceOnUse"><stop offset="0" stop-color="#4a1623"/><stop offset="0.21" stop-color="#511825"/><stop offset="0.5" stop-color="#631c2a"/><stop offset="0.84" stop-color="#812433"/><stop offset="1" stop-color="#912838"/></linearGradient></defs><title>conceptosRecurso 1frame1</title><g id="a763287a-2944-4cb0-a5a8-74525f532c32" data-name="Capa 2"><g id="b6119060-fabd-422d-8974-9e95575621cb" data-name="Capa 1"><g id="e3ceb6df-0369-4eab-95c4-9dc7e2f00cdd" data-name="Frame 1"><g style="clip-path:url(#a801b8e4-c522-4c63-9a58-b6bcdb53d38d)"><rect x="0.3" width="1920" height="1080" style="fill:#fff"/><g style="clip-path:url(#a801b8e4-c522-4c63-9a58-b6bcdb53d38d)"><g id="f318ead5-da13-42ee-88c9-136e1a900023" data-name="paisaje 1_2"><g id="b59cb4ee-3b25-48e4-b54a-c4cae9831702" data-name="BACKGROUND 2"><g id="e508ce02-ac04-44b8-8470-2556923ea350" data-name="Group 3"><path id="b1a016cb-8c7e-4a01-b6f0-7e16ccb9d381" data-name="Vector 14" d="M1920,0H0V1080H1920Z" transform="translate(0.3)" style="fill:url(#e2de25fa-4814-45a0-bc6d-8ff4b99a38b3)"/><path id="fb1a75c1-2031-4353-be3d-6edfe6e93603" data-name="Vector 15" d="M1920,139.5V455.8c-25.6.6-51.2,1.5-77.3,2.3-161.3,4.8-328.2,9.5-485.9,3.9s-322-7.3-466.7-63.3c22.5-24.6,69.6-29.8,99.1-11,5.1-12.9,29.7-19.2,42-10.3,7.9-28.6,38.6-54.9,72.4-61.6s71.4,3.9,93.7,26.3c15.4-12.9,43-16.4,62.2-7.7,14.1-19.9,43.3-28.3,64.5-13.6,7.5-31.6,35.6-59,71.7-68.9s78.4-2,106,19.8c11.8-6.7,32.8-3.6,43.5,4.1,26.1-31.7,88.9-43.8,129-25.5,5.7-25.4,34.9-47.7,63-58.1s62.2-8.2,88.3,5.7c6.4-20.8,33.1-36.5,54.8-47.3A113.6,113.6,0,0,1,1920,139.5Z" transform="translate(0.3)" style="fill:url(#fa675de1-7997-4cc8-98d8-954a10bdd20c)"/><path id="a49246c3-f18e-45cb-ac06-69cfab5fa733" data-name="Vector 16" d="M565.5,347.5C380.7,387.3,190,424.2,0,416.9V149c25.9,7.6,48.4,24,58.9,45.4,19.7-5.6,40.9,2.8,55.8,15.1,18.2-11.2,45-12.7,66.8-8.8s41.7,15.9,52.7,32.4c11.3-2.8,29.2,6,32,15.7,20.8-16.6,53.3-22.2,81.2-16.8s52,23.3,61.7,46a34.4,34.4,0,0,1,28.9,2.6c8.2,5.2,12.8,14,11.8,22.4,20.2-7.7,51.2-3.2,71.4,4.4S558.3,329.8,565.5,347.5Z" transform="translate(0.3)" style="fill:url(#a9e7de8d-aa19-4106-b347-8d709974b3ce)"/><g id="eecc628b-9da4-4063-a692-08d4dd383b14" data-name="Group 4"><path id="fb818990-6c56-4ed0-b128-e6b9e28282ef" data-name="Vector 17" d="M1920,405.9v673.9H0V361.2c56.6-32.7,112.1-67,179.5-82.1,115.7-25.9,215,45.8,326.6,58.3,55.6,6.3,110.9-13.8,167.2-13.4,98,.6,179.2,62.4,275.4,77.1,102.2,15.6,203.3-23.1,298.5-56.4s172.3-54.8,267-20.5c83.2,30,171.8,97.2,261.9,109.7C1819.9,440,1872.6,413.4,1920,405.9Z" transform="translate(0.3)" style="fill:url(#a649dd9a-de88-42bb-93e5-69167fe8cb9b)"/></g><path id="b58b935e-8195-4e27-a9ce-18a937b8f85f" data-name="Vector 18" d="M1920,433.7V657.5l-88.6.9-664.6,6.4V555.1c33.8-26.3,89.1-30,127.5-8.8,9.5-15.4,37.4-22.3,55.6-13.9,11-27.2,41.7-44.2,75.5-46.4s68.4,14,84,39.5c17.4-7.5,44.8,2,57.8,14.1,26.1-13,70.4-4.4,84,18.3,7.7-17,26.9-28.9,47.4-34.7a85.8,85.8,0,0,1,62.2,6.2c3.3-17,33.3-32.8,51.9-25.7,3.6-16.6,14.9-32.8,30-45.6a103,103,0,0,1,32.2-18.3A112.2,112.2,0,0,1,1920,433.7Z" transform="translate(0.3)" style="fill:url(#a9f76d0a-db28-4991-ad4f-a84454b07b1f)"/><path id="f8d9aea0-0ecb-4510-807b-374171d90176" data-name="Vector 19" d="M1920,676.1V1080H0V648.4q216.6-88.4,433.4-177.1l6.9-2.8,12.8-5.2c55.3-22.2,113.7-43.6,173.8-45.6L629,410l2,7.5a258.2,258.2,0,0,1,29.2,1.1,299.7,299.7,0,0,1,44.8,8l4.4-15.6,4.8,18.2,1.6.4,2-7.8,2.6,9.3c32.2,9.8,63.5,23.1,95.2,34.8l2.3-8.2,2.8,10.2c29.2,10.5,58.7,19.2,90.4,22a306.4,306.4,0,0,0,37.1.9l3.4-12.1,3.3,11.8h1.8l3.3-11.8,3.1,11.4c33-1.9,66-6.7,98.3-7.3l2.8-10,1.5,6.1,5.9-21.8,5.9,21.3,2.8-10.5,4.1,15.1h-2.3l5.9.2,2.6-9.5,2.8,9.7a195.3,195.3,0,0,1,35.6,6.3l3-11,3.6,12.9,3.3,1.1,1.3-5,1.6,6.1c26.3,9.7,47.6,26.3,69.9,41.4,6.9,4.8,13.8,9.3,20.9,13.4l.6-1.9.7,2.8,8.2,4.5,3.1-11.4,2.5,9.7,2.1-7.1,3.8,14.5c1.6.6,3.1,1.3,4.6,1.7l2.1-7.1,2.3,8.6,6.4,1.9,2.8-10.5,3.3,12.3a7.8,7.8,0,0,0,2.1.4l1.5-5.2,1.6,5.8c36.3,7.4,73.9.5,112.1-6.2l3.3-12.1,3.1,11,4.6-.9,3.6-12.9,3.3,11.9c21.3-3.5,42.5-6.3,63.5-6.1,24.6.4,47.6,5,69.9,12.3l1.8-6.2,1.5,6,2.6-9.1,3.3,12.3c7.7,2.9,15.4,5.9,22.8,9.1l2-7.5,2.6,9.7c39.2,17.7,76.3,41.2,115.2,61.3,13.6,6.9,27.4,13.6,41.7,19.2,23.6,9.3,47.9,16.2,74,19.1,5.6.6,11.5.8,17.4,1,19.7.9,39.9-.4,60.2-1.7C1899,677.2,1909.5,676.5,1920,676.1Z" transform="translate(0.3)" style="fill:url(#bb561e1b-0927-4f2a-8cd1-07a01667a4cb)"/><path id="a9ebab75-52a9-4802-8073-25e7dd650513" data-name="Vector 20" d="M1747.5,759.7c-135,10.1-271.7,3.2-403.8-21.2-12.8-2.4-25.3-4.7-37.8-7.3-108.3-22.7-211.8-56.8-314.2-93.6l-1.2-4.5-1.1,3.7c-8.2-3.1-16.3-6.1-24.5-8.9l-2.6-9.9-2.3,8-1-.5-1-3.4-.8,2.8c-90.6-33.3-180.8-67.8-272.9-98.3l-1.5-5.4-1.3,4.5-2.6-.8-3.1-11-2.5,9.3c-2.3-.9-4.6-1.6-7.2-2.4l-1.8-7.2-1.5,5.9c-1.8-.7-3.3-1.1-5.1-1.7l-3.6-13.4-2.1,7.1-2.5-9.5-3.4,12.3c-2.3-.7-4.8-1.5-7.1-2.4l-1.6-5.8-1.2,5q-46.2-14.2-94-26.6l-2.6-9.7-2.3,8.4-15.8-3.9-3.9-13.6-2,7.1-2.6-9.5-3.6,13.4c-6.4-1.5-12.8-2.8-18.9-4.3l-1.3-5-1.3,4.3a22.1,22.1,0,0,1-3.5-.8l-3.9-14.3-3.6,12.8c-7.7-1.8-15.3-3.3-23.3-4.8l-3.3-12.3-3.1,11-13.8-2.6c-19.2-3.4-38.6-6.7-58.1-9.3l-2.6-9.5-2.3,8.9a20.9,20.9,0,0,0-3.6-.4l-2.3-8.2-2,7.7c-4.4-.6-8.5-1.1-12.8-1.5l-2.3-8.4-2.1,8c-86.2-10-173-11.2-256.7.4L86.3,440l-2.6,9.1c-2.3.2-4.3.6-6.6,1L75,442.8l-2.3,8-10,1.5-.5-2.2-.5,2.4-12.5,2.2-2.9-10.4-2.8,10.6-5.9-21.4-6.9,24.9c-10.5,2.1-20.7,4.5-31,7.3V1080h1920V737A1512.7,1512.7,0,0,1,1747.5,759.7Z" transform="translate(0.3)" style="fill:#de7e41"/><path id="bfa6a6c6-fca1-48dd-a2ed-659977a2e9c0" data-name="Vector 21" d="M1261.8,818.2c-7.4-18.4-26.3-32.8-47.9-40.6-23.8-8.6-48.1-5.4-73.9-5.6-15.1-22.5-42.3-38-72-44.3-12.8-14.5-33-24.2-54.2-25.7s-42,7.1-57.9,19.2c-19.5-15.5-46.8-23.5-73.5-22s-55.3,10.1-71.6,27.9c-14.9-13.9-38.2-18-55.1-5.9-22-27.6-57.1-47.3-95.7-53.8s-88.6.7-121.4,19c-15.3-20.9-54-25.9-75.8-9.7-12.2-23.5-36.3-42.7-64.7-52s-64.3-8.9-92.2,1.7c-7.4-19.7-34.3-35.9-58.3-32.4-32.8-26.1-85-28.1-126-12.3C86.3,561,43.3,550.6.3,551V818.2Z" transform="translate(0.3)" style="fill:url(#e91ea205-ce49-479e-81d5-8d95089f8f36)"/><path id="ec5fa5e6-d7c7-4bdb-9b7f-e6c19daefa45" data-name="Vector 22" d="M1920,506.7V1080H540.2c81.1-27.7,143.6-86.4,212.4-136.1,5.4-3.9,11-8,16.7-11.6,39.4-27,81.4-50.4,130.3-62.5,85.5-21.1,180.7-4.7,265.7-27.2,60.7-16,109.6-49.9,158.2-84.2,6.7-4.8,13.3-9.5,20.2-14.1,2.4-1.5,4.4-3,6.7-4.5,37.4-25.7,76.3-49.9,121.3-64.6a420.7,420.7,0,0,1,59.4-14c54.3-9.1,111.7-11.3,164.4-21.2,37.6-7.1,72.7-18.1,102.1-38.4s49.7-47.6,77.1-69.4A164.8,164.8,0,0,1,1920,506.7Z" transform="translate(0.3)" style="fill:url(#f0e3afba-1908-414d-9f63-24fa1c9cb25a)"/><path id="fda877ef-73a2-4884-bb50-d3f9505cdb7a" data-name="Vector 23" d="M1904.1,956q-163.2-57.3-326.6-114.2L1524,823l-31.5-11.1-4.6-16.6-3.9,13.8a25.7,25.7,0,0,1-4.1-1.5l-8.2-29.8-6.6,24.6-14.6-4.9-5.4-19.9-4.6,16.4-10-3.2-9.4-34.4-4.7,16.4-6.1-22.2-8.4,31.1-16.7-5.2-3.1-11-2.5,9.3c-18.7-5.8-37.4-11.2-56.3-16.4-51.2-14.1-98.3-24.4-144.7-30.3l-2.3-8.8-2.3,8.2c-13.8-1.7-27.6-3-41.5-3.7l-7.1-25.7-4.6,16.4-6.2-22.2-8.4,30.7c-13.9-.3-27.7-.3-41.5.4l-5.9-21.2-5.9,21.8h-1.5l-12.8-46.8-13.3,49c-5.4.4-10.8,1.1-16.1,1.7l-3.4-12.1-3.6,13c-14,1.7-28.4,4.1-43,6.7-133.9,24.6-264.4,66.1-399.3,46.2a7.8,7.8,0,0,1-2.1-.4l-3.3-12.8-3.1,11.7a398.2,398.2,0,0,1-53.7-13.6l-9-32.8L482.6,756l-3.4-12.5-4.1,15.1c-75-29-143.1-75-220.1-103.7l-2.6-9.7-2.3,8A434.8,434.8,0,0,0,203,638.9L198.9,624l-3.6,13.2a314.2,314.2,0,0,0-32.7-5.6L159,618.8l-2.6,9.5-7.2-30-8.4,30.3-11.3-.7-6.4-23.1-6.4,23.1c-6.9,0-14,.2-21.2.7l-1.8-6.3-1.8,6.5c-9.5.6-18.9,1.7-28.9,3.2l-6.4-23.5-6.7,24.4L36.4,583.4,20.7,640.7c-6.9,1.7-14,3.8-21,6V1080h1920V961.6C1914.6,959.7,1909.3,957.7,1904.1,956Z" transform="translate(0.3)" style="fill:url(#b4ae91f4-6c18-4d3d-9ecc-7930ea6f924d)"/><path id="b96aee1f-00e7-4918-aa43-d672282ac121" data-name="Vector 24" d="M1920,587.5v442.6H936.2a83.1,83.1,0,0,1,13-27A118.3,118.3,0,0,1,962,988.4a87.7,87.7,0,0,1,11.3-8.8,73.5,73.5,0,0,1,23.6-10.8c13.5-3.5,29.2-2.2,40.7,4.7,2-12.7,14.8-21.4,29.2-24,8.9-1.5,33.5-.6,38.1,8.9a6.9,6.9,0,0,1,.5,1.3c0-.4-.2-.9-.2-1.3-3.6-17.9,13-36.5,32.7-44.3s43.5-7.1,65.3-3.4c7.7-9.8,17.1-17.1,28.9-18.6a36.7,36.7,0,0,1,12.3.4c6.9-20.7,31.3-35.2,56.3-38.4s52.3,7.1,66.1,25.2c21-16.8,56-17.5,77.5-1.5,23.9-39.5,81-58.5,132.9-51.6a33.8,33.8,0,0,1,5.4.9c0-1.1-.3-2-.3-3.1-2-21.1,4.9-44.2,21.8-60a34.4,34.4,0,0,1,4.1-3.5c20.7-16.2,50.7-23.5,78.3-19.2,3.4-14.7,18.2-25.7,34.8-30.9,12.6-4.1,27.2-3.4,39.5,1.1a47.4,47.4,0,0,1,10.5,5.4,14,14,0,0,1,1.5-3c9-16.9,34.6-29.8,54.3-22.5.5-4.1.7-8,1.2-12.1.8-7.1,1.8-14,3.1-21.1,2.6-13.2,6.7-26,14.9-38.1C1861.1,598.5,1890.8,581.9,1920,587.5Z" transform="translate(0.3)" style="fill:url(#b8e40bf3-91e2-4868-8136-32dc11ead48a)"/><path id="ad3ef0e1-72df-4c76-8582-f8a480a4fb97" data-name="Vector 25" d="M1920,663.3V1080H0V857.5c64.3-34.5,130.8-66.1,203.8-84a252.4,252.4,0,0,1,25.3-5.2l14.4-52.7L257,765.1c4.1-.2,8.2-.7,12.3-.9l7.2-25.7,5.9,21.2L292.9,721l11.7,43.6a401.5,401.5,0,0,1,77.9,13.2l3.8-14.2,4.6,16.6a511.2,511.2,0,0,1,93.7,39.1c39.4,20.9,80.1,46,119.3,69.5,37.4,22.3,75.3,50.2,123.7,49.1a188.9,188.9,0,0,0,25-2.4c5.7-.9,11-1.9,16.7-3,25.1-5,50.2-11.5,75.5-8.7,18.4,2,35.1,8.5,50.9,16.4L898,932l3.1,10.8c4.6,2.4,9.2,5,13.6,7.6L926,909.1l15.3,56.2a249.9,249.9,0,0,0,24.1,11.2c2.5,1.1,5.4,2,8.2,3.1,64.7,21.8,139.5,6,206.6-12.4,34.5-9.5,68.6-19.4,102.6-30.2l14.6-53.1,12.3,44.5,7.9-2.6,5.7-20.5,4.6,17q127.8-42.4,250.1-96.1c1.8-.6,3.3-1.5,5.1-2.2,35.3-15.5,70.4-31.9,105-48.8l3.3-12.3,2-7.1,2.1,7.1,2,7.8c5.9-2.8,11.6-5.8,17.4-8.7l17.7-9,15.6-8,5.1-2.6,8.5-30.7,5.6-20.7,6.4,23.1,4.4,15.8c7.4-3.7,15.1-7.6,22.5-11.1l4.4-15.7,3.3,12.1c25.8-12.1,52.2-22.7,79.3-30.5l1.8-6.7,5.4-20.1.3-.4.2.4,4.1,14.9,4.1-15.1,8-29.4,9.7,29.4v5.6Z" transform="translate(0.3)" style="fill:url(#e73a7723-4f1f-44f5-949e-99109e8f7291)"/><path id="f6c983fc-df22-4d91-b8a4-bd879d393969" data-name="Vector 26" d="M1853.7,967.5l-27.6-40.9-18.5,48.6-13.5-27-14.6,40-5.4.2-18.4-68.2-8.8,46.8-18.1-67.1-16.9,90.7h-.3l-9.5-29.8-9.2,30.6c-25.1,1.1-50.1,2.4-75.2,3.7l-14.1-33.9-7.9,24-13.9-42.4-9.7,52.7-9.2-23.1-9,26.2c-9.2.6-18.2,1-27.4,1.7l-5.1-19.4-4.9,20-11,.7-11-40.8-10,42.1-25.6,1.7-6.9-16.8-6.6,17.7q-54.9,3.9-109.3,8.4L1323,980l-10.2,31.3-18.5-40.6-17.6,48.2-21.3,1.9-8.2-30.2-5.9,31.5-6.9.7-14.1-52.3-10.2,54.4c-29.4,2.8-58.6,5.9-87.8,8.7l-16.1-31.1-10.5,28.9-7.4-19.7-7,26.4q-54.9,5.9-108.2,12.3l-18.7-58.7-17.2,63c-7.7.9-15.3,2-22.8,2.8l-3.8-14.4-4.9,15.7c-13,1.8-26.1,3.3-39.1,5l-26.4-71.7-28.4,62.8-15.9-48.6-22.5,59-61.5-7.8-22-58.3-21.7,53.1-22.1-2.5-21.7-92.5-23.6,87.3c-1.5-.2-2.8-.2-4.3-.5l-13.8-55.7-14.4,52.7c-9.5-1.1-19.2-2.1-28.7-3l-21.5-62.6-14.3,35.8-15.1-81.4-21.2,65.4-12.3-37.1-27.4,66.1-23.8.4c-28.7-2.6-56.6-5.2-83.5-7.3l-17.7-59.9-14.5,46.3L261.6,863.4,234,969.6l-13.8-75.4L189.4,1007l-3.8-.2-25.1-68.7-21,41.9-28.4-75L68.4,968.1l-52-196.3S9.7,791.2,0,818.9V1080H1920V933.6c-14.6-42.4-32.5-92.9-32.5-92.9Z" transform="translate(0.3)" style="fill:#2c0c19"/></g></g></g></g></g><rect x="3.3" y="3" width="1914" height="1074" style="fill:none;stroke:#ad4242;stroke-width:6px"/></g></g></g></svg>