<svg xmlns="http://www.w3.org/2000/svg" viewBox="0 0 247.6 298.6">
  <title>conceptosRecurso 1</title>
  <g id="Capa_2" data-name="Capa 2">
    <g id="Capa_1-2" data-name="Capa 1">
      <path d="M148.2,83.6a9.9,9.9,0,0,0-1.8-5.7c-1.1-1.5-2.9-2.2-5.4-2.3h-4.1V93.4H142C146.3,93.5,148.4,90.2,148.2,83.6Zm97.6,89.2c-3-22.9-26.7-22.5-54.5-16.7,1.3-17.2,3.7-44.4,6-56.2,3.9-20.2,14.8-80.7,14.8-80.7h-.4c0-10.6-39.9-19.2-89-19.2s-89,8.6-89,19.2a3.2,3.2,0,0,0,.3,1.4S45,80.1,48.9,99.9c2.3,11.8,4.7,39,6,56.2C27.1,150.3,3.4,149.9.4,172.8c-2.2,17.1,12.5,43.3,122.7,43.3S248,189.9,245.8,172.8Zm-129.5-90a5.8,5.8,0,0,1,.6-2.6,10.9,10.9,0,0,1,4.7-4.8c2-1.1,4.9-1.7,8.7-1.7h14.2a12,12,0,0,1,7.7,2.6c2.2,1.8,3.3,4.4,3.3,7.9a14.2,14.2,0,0,1-1.7,6.7,10.8,10.8,0,0,1-4.8,4.4l9.8,15.5c5.8,8.7,10.8,13.4,15,14.2-4.1.3-7,.4-8.7,0-3.7-.7-7.3-3.1-10.8-7.4a46,46,0,0,1-4-5.8q-1.8-3-5.7-9l-4.2-6.5h-3.5v10a3.9,3.9,0,0,0,1.6,3.2,5.7,5.7,0,0,0,2.8,1.4v1.7H124.7v-1.7a5.7,5.7,0,0,0,2.8-1.4,4,4,0,0,0,1.6-3.2V76.5l-.3-.8a.6.6,0,0,0-.7-.2,6.2,6.2,0,0,0-4,2.2,7.1,7.1,0,0,0-1.4,4.2,12,12,0,0,0,.7,4.2,4.1,4.1,0,0,0,2,2.6,9.4,9.4,0,0,1-4.4.5,5.2,5.2,0,0,1-2.8-1.3,4.6,4.6,0,0,1-1.6-2.3A6.7,6.7,0,0,1,116.3,82.8Zm-42,23.6.9-15.6c.3.9.7,1.8,1.1,2.7a18.7,18.7,0,0,0,1.5,3.2c.2.5.8,1.6,1.6,3.1a15.6,15.6,0,0,0,2.3,3.4l2.7,2.8a10.3,10.3,0,0,0,3.4,2.5c1.1.5,2.5.9,4,1.4a20.7,20.7,0,0,0,5,.5,9.1,9.1,0,0,0,7.6-4.4,10.3,10.3,0,0,0,1.3-9q-.7-2.7-4.8-5.1a94,94,0,0,0-10-5.1A57.6,57.6,0,0,1,82,82.2a19.2,19.2,0,0,1-6.3-6.7A11.6,11.6,0,0,1,74,68a14.5,14.5,0,0,1,2.8-6.9c1.5-2.2,4-3.9,7.4-5.2a31.9,31.9,0,0,1,11.8-2c9.2,0,15.8,2,20,6l-.7,12.2-2.5-3.8-3.9-4.8a21.2,21.2,0,0,0-6-4.7,14.6,14.6,0,0,0-7-1.8,8.6,8.6,0,0,0-6.1,2.5A7.7,7.7,0,0,0,87,65.3a8.8,8.8,0,0,0,3.3,6.9,22.8,22.8,0,0,0,7.6,4.6c2.8,1.1,6,2.5,9.5,4.1a37.6,37.6,0,0,1,8.1,5,12.2,12.2,0,0,1,4,6.6,14.2,14.2,0,0,1,0,7.1,18.8,18.8,0,0,1-2.8,6.1c-3.8,5.3-10.5,7.9-20.2,7.9A44.1,44.1,0,0,1,83,111.7,20.1,20.1,0,0,1,74.3,106.4ZM188,189.9s-27.4,3.1-38.6,2.3c-13.2-.9-25.2-7.6-37.5-12.4-7.4-2.8-25.7-12.4-25.7-12.4l103.1-3.3ZM0,216H14.9l13.4,63.9,12.9-50.5H55.8v2.7c-1,0-2.1.6-3.4,2a7.7,7.7,0,0,0-1.8,5v49.8a7.2,7.2,0,0,0,1.8,5c1.3,1.4,2.4,2.1,3.4,2.1v2.6H36V296c1,0,2.1-.7,3.4-2.1a7.2,7.2,0,0,0,1.8-5V251.7c-1.6,5.2-4.1,13-7.3,23.4l-7.3,23.5H24.2L16.6,275c-3.3-10.5-5.9-38.9-7.6-44.1v58a7.3,7.3,0,0,0,1.9,5c1.2,1.4,2.4,2.1,3.4,2.1v2.6H0V296q1.5,0,3.3-2.1a6.6,6.6,0,0,0,1.9-5V227.4a6.6,6.6,0,0,0-1.9-5c-1.2-1.3-2.3-2-3.3-2Zm60.7,20.6H80.5v2.7c-1,0-2.2.7-3.4,2.1a7.6,7.6,0,0,0-1.9,5.2v42.1a7.8,7.8,0,0,0,1.9,5.1c1.2,1.4,2.4,2.1,3.4,2.1v2.7H60.7v-2.7q1.5,0,3.3-2.1a6.9,6.9,0,0,0,1.9-5.1V246.6a7.2,7.2,0,0,0-1.9-5.2q-1.8-2.1-3.3-2.1Zm23,0h19.7v2.7q-1.5,0-3.3,2.1a7.2,7.2,0,0,0-1.9,5.2v48.8h11.5a9,9,0,0,0,3.6-.8,7.8,7.8,0,0,0,3-2.4l2.1-2.7a19.6,19.6,0,0,0,1.7-3.2l1.1-2.2-.5,14.5h-37v-2.7q1.5,0,3.3-2.1a6.9,6.9,0,0,0,1.9-5.1V246.6a7.2,7.2,0,0,0-1.9-5.2q-1.8-2.1-3.3-2.1Zm29.4,0h41.8l1,14.5c-1-2-3-4.2-5.9-6.6s-8.2-3.6-11.3-3.6v47.8a6.9,6.9,0,0,0,1.9,5.1c1.2,1.4,2.4,2.1,3.4,2.1v2.7H124.2v-2.7c1,0,2.2-.7,3.4-2.1a6.9,6.9,0,0,0,1.9-5.1V241h-2.4a14.3,14.3,0,0,0-9,3.5c-2.9,2.3-4.9,4.4-5.9,6.4Zm49.8,9.1c4.5-6,9.8-9.1,16.1-9.1s11.6,3.1,16,9.1,6.7,13.3,6.7,21.9-2.2,15.8-6.7,21.9-9.7,9.1-16,9.1-11.6-3-16.1-9.1-6.7-13.4-6.7-21.9S158.4,251.7,162.9,245.7Zm24.6,1.8c-2.2-4.7-5.1-7-8.5-7s-6.3,2.3-8.5,7-3.4,11.4-3.4,20.1,1.1,15.3,3.4,20.1,5,7.1,8.5,7.1,6.3-2.4,8.5-7.1,3.3-11.5,3.3-20.1S189.7,252.2,187.5,247.5ZM215,229.2l23.7,49.5V227.2a7.3,7.3,0,0,0-1.9-4.9c-1.3-1.3-2.4-2-3.4-2V216h14.2v4.3a5,5,0,0,0-3.4,2,6.5,6.5,0,0,0-1.9,4.9v71.4h-3.9l-27.9-48.1v38.6a6.8,6.8,0,0,0,1.8,4.9c1.3,1.3,2.4,2,3.4,2v2.6H201.6V296c1,0,2.1-.7,3.4-2a6.8,6.8,0,0,0,1.8-4.9V247.4c0-2-.5-12.3-1.7-13.6a5.2,5.2,0,0,0-3.4-2v-2.6Z" style="fill:#ffff"/>
    </g>
  </g>
</svg>
